<svg xmlns="http://www.w3.org/2000/svg" xmlns:lucid="lucid" width="1200" height="122"><g lucid:page-tab-id="0_0"><path d="M1100.16 56.5a.5.5 0 0 1 .5.5v8a.5.5 0 0 1-.5.5.5.5 0 0 1-.5-.5v-8a.5.5 0 0 1 .5-.5z" stroke="#dfdfdf" fill="none"/><path d="M80 61c0 5.52-4.48 10-10 10s-10-4.48-10-10 4.48-10 10-10 10 4.48 10 10zM175.5 28.88a3.95 3.95 0 0 0-5.5 3.62v57a3.95 3.95 0 0 0 5.5 3.62l69-29.74a2.6 2.6 0 0 0 0-4.76z" stroke="#dfdfdf" stroke-width="2" fill-opacity="0"/><path d="M82 61h68.54" stroke="#dfdfdf" stroke-width="2" fill="none"/><path d="M82.03 62h-1.18l.16-.98L80.9 60h1.15z" stroke="#dfdfdf" stroke-width=".05" fill="#dfdfdf"/><path d="M165.8 61l-14.26 4.64v-9.27z" stroke="#dfdfdf" stroke-width="2" fill="#dfdfdf"/><path d="M248.06 61h92.47" stroke="#dfdfdf" stroke-width="2" fill="none"/><path d="M248.1 62h-1.2l.06-.17.1-.83-.1-.83-.06-.17h1.2z" stroke="#dfdfdf" stroke-width=".05" fill="#dfdfdf"/><path d="M355.8 61l-14.27 4.64v-9.28z" stroke="#dfdfdf" stroke-width="2" fill="#dfdfdf"/><path d="M360 17a6 6 0 0 1 6-6h168a6 6 0 0 1 6 6v88a6 6 0 0 1-6 6H366a6 6 0 0 1-6-6zM660 17a6 6 0 0 1 6-6h168a6 6 0 0 1 6 6v88a6 6 0 0 1-6 6H666a6 6 0 0 1-6-6z" stroke="#dfdfdf" stroke-width="2" fill-opacity="0"/><path d="M841.96 61H904a6 6 0 0 0 6-6V31.75a6 6 0 0 1 6-6h4.53" stroke="#dfdfdf" stroke-width="2" fill="none"/><path d="M842 62h-1.04v-2H842z" stroke="#dfdfdf" stroke-width=".05" fill="#dfdfdf"/><path d="M935.8 25.75l-14.27 4.64v-9.3z" stroke="#dfdfdf" stroke-width="2" fill="#dfdfdf"/><path d="M541.96 61h98.57" stroke="#dfdfdf" stroke-width="2" fill="none"/><path d="M542 62h-1.04v-2H542z" stroke="#dfdfdf" stroke-width=".05" fill="#dfdfdf"/><path d="M655.8 61l-14.27 4.64v-9.28z" stroke="#dfdfdf" stroke-width="2" fill="#dfdfdf"/><path d="M940 17a6 6 0 0 1 6-6h68a6 6 0 0 1 6 6v17.5a6 6 0 0 1-6 6h-68a6 6 0 0 1-6-6zM940 90.72a6 6 0 0 1 6-6h68a6 6 0 0 1 6 6v17.5a6 6 0 0 1-6 6h-68a6 6 0 0 1-6-6z" stroke="#dfdfdf" stroke-width="2" fill-opacity="0"/><path d="M841.96 61H904a6 6 0 0 1 6 6v26.47a6 6 0 0 0 6 6h4.53" stroke="#dfdfdf" stroke-width="2" fill="none"/><path d="M842 62h-1.04v-2H842z" stroke="#dfdfdf" stroke-width=".05" fill="#dfdfdf"/><path d="M935.8 99.47l-14.27 4.64v-9.27z" stroke="#dfdfdf" stroke-width="2" fill="#dfdfdf"/><path d="M1059.6 82.44a3.7 3.7 0 0 0-5.38 3.3v26.95a3.7 3.7 0 0 0 5.37 3.3l28.14-14.1a3 3 0 0 0 0-5.37z" stroke="#dfdfdf" stroke-width="2" fill-opacity="0"/><path d="M1021.96 99.47H1035" stroke="#dfdfdf" stroke-width="2" fill="none"/><path d="M1022 100.47h-1.03v-2h1.02z" stroke="#dfdfdf" stroke-width=".05" fill="#dfdfdf"/><path d="M1050.02 99.26l-14.2 4.83-.12-9.28z" stroke="#dfdfdf" stroke-width="2" fill="#dfdfdf"/><path d="M1109.34 61.05h11.16" stroke="#dfdfdf" stroke-width="2" fill="none"/><path d="M1109.36 62.05h-1.23l.2-.95-.13-1.05h1.16z" stroke="#dfdfdf" stroke-width=".05" fill="#dfdfdf"/><path d="M1135.76 61.05l-14.26 4.63V56.4z" stroke="#dfdfdf" stroke-width="2" fill="#dfdfdf"/><path d="M1107.33 61.05c0 3.9-3.2 7.05-7.17 7.05-3.95 0-7.16-3.16-7.16-7.05 0-3.9 3.2-7.05 7.16-7.05s7.17 3.16 7.17 7.05z" stroke="#dfdfdf" stroke-width="2" fill-opacity="0"/><path d="M1091.4 99.22h2.76a6 6 0 0 0 6-6v-5.6" stroke="#dfdfdf" stroke-width="2" fill="none"/><path d="M1091.43 100.22h-1.16l.04-.12.1-.88-.1-.88-.03-.12h1.16z" stroke="#dfdfdf" stroke-width=".05" fill="#dfdfdf"/><path d="M1100.16 72.34l4.64 14.27h-9.27z" stroke="#dfdfdf" stroke-width="2" fill="#dfdfdf"/><path d="M1095.66 61a.5.5 0 0 1 .5-.5h8a.5.5 0 0 1 .5.5.5.5 0 0 1-.5.5h-8a.5.5 0 0 1-.5-.5z" stroke="#dfdfdf" fill="none"/><path d="M1021.96 25.75h72.2a6 6 0 0 1 6 6v2.74" stroke="#dfdfdf" stroke-width="2" fill="none"/><path d="M1022 26.75h-1.03v-2h1.02z" stroke="#dfdfdf" stroke-width=".05" fill="#dfdfdf"/><path d="M1100.16 49.76l-4.63-14.27h9.27z" stroke="#dfdfdf" stroke-width="2" fill="#dfdfdf"/><path d="M1181.57 25.14l-21.24 21.83H1140V74.9h19.9l21.67 22.06V25.14z" stroke="#dfdfdf" stroke-width="2" fill-opacity="0"/></g></svg>