<svg class="main-svg" xmlns="http://www.w3.org/2000/svg" xmlns:xlink="http://www.w3.org/1999/xlink" width="285" height="147" style="" viewBox="0 0 285 147"><rect x="0" y="0" width="285" height="147" style="fill: rgb(0, 0, 0); fill-opacity: 0;"/><defs id="defs-863b8d"><g class="clips"><clipPath id="clip863b8dxyplot" class="plotclip"><rect width="239" height="108"/></clipPath><clipPath class="axesclip" id="clip863b8dx"><rect x="31" y="0" width="239" height="147"/></clipPath><clipPath class="axesclip" id="clip863b8dy"><rect x="0" y="11" width="285" height="108"/></clipPath><clipPath class="axesclip" id="clip863b8dxy"><rect x="31" y="11" width="239" height="108"/></clipPath></g><g class="gradients"/><g class="patterns"/></defs><g class="bglayer"><rect class="bg" x="31" y="11" width="239" height="108" style="fill: rgb(0, 0, 0); fill-opacity: 0; stroke-width: 0;"/></g><g class="layer-below"><g class="imagelayer"/><g class="shapelayer"/></g><g class="cartesianlayer"><g class="subplot xy"><g class="layer-subplot"><g class="shapelayer"/><g class="imagelayer"/></g><g class="minor-gridlayer"><g class="x"/><g class="y"/></g><g class="gridlayer"><g class="x"><path class="xgrid crisp" transform="translate(62.260000000000005,0)" d="M0,11v108" style="stroke: rgb(190, 190, 190); stroke-opacity: 1; stroke-width: 1px;"/><path class="xgrid crisp" transform="translate(109.56,0)" d="M0,11v108" style="stroke: rgb(190, 190, 190); stroke-opacity: 1; stroke-width: 1px;"/><path class="xgrid crisp" transform="translate(164.47,0)" d="M0,11v108" style="stroke: rgb(190, 190, 190); stroke-opacity: 1; stroke-width: 1px;"/><path class="xgrid crisp" transform="translate(219.37,0)" d="M0,11v108" style="stroke: rgb(190, 190, 190); stroke-opacity: 1; stroke-width: 1px;"/><path class="xgrid crisp" transform="translate(266.66999999999996,0)" d="M0,11v108" style="stroke: rgb(190, 190, 190); stroke-opacity: 1; stroke-width: 1px;"/></g><g class="y"><path class="ygrid crisp" transform="translate(0,29)" d="M31,0h239" style="stroke: rgb(190, 190, 190); stroke-opacity: 1; stroke-width: 1px;"/><path class="ygrid crisp" transform="translate(0,47)" d="M31,0h239" style="stroke: rgb(190, 190, 190); stroke-opacity: 1; stroke-width: 1px;"/><path class="ygrid crisp" transform="translate(0,65)" d="M31,0h239" style="stroke: rgb(190, 190, 190); stroke-opacity: 1; stroke-width: 1px;"/><path class="ygrid crisp" transform="translate(0,83)" d="M31,0h239" style="stroke: rgb(190, 190, 190); stroke-opacity: 1; stroke-width: 1px;"/><path class="ygrid crisp" transform="translate(0,101)" d="M31,0h239" style="stroke: rgb(190, 190, 190); stroke-opacity: 1; stroke-width: 1px;"/></g></g><g class="zerolinelayer"/><path class="xlines-below"/><path class="ylines-below"/><g class="overlines-below"/><g class="xaxislayer-below"/><g class="yaxislayer-below"/><g class="overaxes-below"/><g class="plot" transform="translate(31,11)" clip-path="url(#clip863b8dxyplot)"><g class="scatterlayer mlayer"><g class="trace scatter trace500f10" style="stroke-miterlimit: 2; opacity: 1;"><g class="fills"/><g class="errorbars"/><g class="lines"><path class="js-line" d="M-4780,30.74L-4780,29.99159536908994L49.82,29.99L63.65,29.12L87.3,25.6L92.56,24.38L118.56,18.49L120.76,18.26L137.32,18.02L138.61,18.02L210.34,18.31L210.49,18.54L211.4,22.37L211.55,23.56L212.72,42.16L212.86,46.03L213.85,98.74L213.99,124.16L214.27,116.69L214.68,207.46L214.81,133.04L215.08,125.03L218.29,199.81L218.41,153.04L218.53,143.37L218.77,138.56L219.25,180.14L222.21,146.81L222.32,143.68L222.86,181.99L222.96,155.88L223.07,148L223.28,143.89L224.53,217.38L227.17,149.74L227.27,146.95L228.47,208.69L228.56,161.78L228.65,152.59L228.83,147.24L232,200.87L233.44,159.22L233.52,152.42L233.67,149L234.6,204.06L238.26,160.28L238.33,153.29L238.46,149.65L238.73,196.6L238.93,150.74" style="vector-effect: non-scaling-stroke; fill: none; stroke: rgb(128, 222, 234); stroke-opacity: 1; stroke-width: 4px; opacity: 1;"/></g><g class="points"/><g class="text"/></g></g></g><g class="overplot"/><path class="xlines-above crisp" d="M30,119.5H270" style="fill: none; stroke-width: 1px; stroke: rgb(190, 190, 190); stroke-opacity: 1;"/><path class="ylines-above crisp" d="M30.5,11V119" style="fill: none; stroke-width: 1px; stroke: rgb(190, 190, 190); stroke-opacity: 1;"/><g class="overlines-above"/><g class="xaxislayer-above"><path class="xtick ticks crisp" d="M0,120v5" transform="translate(31,0)" style="stroke: rgb(190, 190, 190); stroke-opacity: 1; stroke-width: 1px;"/><path class="xtick ticks crisp" d="M0,120v5" transform="translate(62.260000000000005,0)" style="stroke: rgb(190, 190, 190); stroke-opacity: 1; stroke-width: 1px;"/><path class="xtick ticks crisp" d="M0,120v5" transform="translate(109.56,0)" style="stroke: rgb(190, 190, 190); stroke-opacity: 1; stroke-width: 1px;"/><path class="xtick ticks crisp" d="M0,120v5" transform="translate(164.47,0)" style="stroke: rgb(190, 190, 190); stroke-opacity: 1; stroke-width: 1px;"/><path class="xtick ticks crisp" d="M0,120v5" transform="translate(219.37,0)" style="stroke: rgb(190, 190, 190); stroke-opacity: 1; stroke-width: 1px;"/><path class="xtick ticks crisp" d="M0,120v5" transform="translate(266.66999999999996,0)" style="stroke: rgb(190, 190, 190); stroke-opacity: 1; stroke-width: 1px;"/><g class="xtick"><text text-anchor="middle" x="0" y="143" transform="translate(31,0)" style="font-family: 'Open Sans', verdana, arial, sans-serif; font-size: 15px; fill: rgb(255, 255, 255); fill-opacity: 1; white-space: pre; opacity: 1;">20</text></g><g class="xtick"><text text-anchor="middle" x="0" y="143" style="font-family: 'Open Sans', verdana, arial, sans-serif; font-size: 15px; fill: rgb(255, 255, 255); fill-opacity: 1; white-space: pre; opacity: 1;" transform="translate(62.260000000000005,0)">50</text></g><g class="xtick"><text text-anchor="middle" x="0" y="143" style="font-family: 'Open Sans', verdana, arial, sans-serif; font-size: 15px; fill: rgb(255, 255, 255); fill-opacity: 1; white-space: pre; opacity: 1;" transform="translate(109.56,0)">200</text></g><g class="xtick"><text text-anchor="middle" x="0" y="143" style="font-family: 'Open Sans', verdana, arial, sans-serif; font-size: 15px; fill: rgb(255, 255, 255); fill-opacity: 1; white-space: pre; opacity: 1;" transform="translate(164.47,0)">1k</text></g><g class="xtick"><text text-anchor="middle" x="0" y="143" style="font-family: 'Open Sans', verdana, arial, sans-serif; font-size: 15px; fill: rgb(255, 255, 255); fill-opacity: 1; white-space: pre; opacity: 1;" transform="translate(219.37,0)">5k</text></g><g class="xtick"><text text-anchor="middle" x="0" y="143" style="font-family: 'Open Sans', verdana, arial, sans-serif; font-size: 15px; fill: rgb(255, 255, 255); fill-opacity: 1; white-space: pre; opacity: 1;" transform="translate(266.66999999999996,0)">20k</text></g></g><g class="yaxislayer-above"><path class="ytick ticks crisp" d="M30,0h-5" transform="translate(0,11)" style="stroke: rgb(190, 190, 190); stroke-opacity: 1; stroke-width: 1px;"/><path class="ytick ticks crisp" d="M30,0h-5" transform="translate(0,29)" style="stroke: rgb(190, 190, 190); stroke-opacity: 1; stroke-width: 1px;"/><path class="ytick ticks crisp" d="M30,0h-5" transform="translate(0,47)" style="stroke: rgb(190, 190, 190); stroke-opacity: 1; stroke-width: 1px;"/><path class="ytick ticks crisp" d="M30,0h-5" transform="translate(0,65)" style="stroke: rgb(190, 190, 190); stroke-opacity: 1; stroke-width: 1px;"/><path class="ytick ticks crisp" d="M30,0h-5" transform="translate(0,83)" style="stroke: rgb(190, 190, 190); stroke-opacity: 1; stroke-width: 1px;"/><path class="ytick ticks crisp" d="M30,0h-5" transform="translate(0,101)" style="stroke: rgb(190, 190, 190); stroke-opacity: 1; stroke-width: 1px;"/><path class="ytick ticks crisp" d="M30,0h-5" transform="translate(0,119)" style="stroke: rgb(190, 190, 190); stroke-opacity: 1; stroke-width: 1px;"/><g class="ytick"><text text-anchor="end" x="22" y="5.25" transform="translate(0,11)" style="font-family: 'Open Sans', verdana, arial, sans-serif; font-size: 15px; fill: rgb(255, 255, 255); fill-opacity: 1; white-space: pre; opacity: 1;">10</text></g><g class="ytick"><text text-anchor="end" x="22" y="5.25" style="font-family: 'Open Sans', verdana, arial, sans-serif; font-size: 15px; fill: rgb(255, 255, 255); fill-opacity: 1; white-space: pre; opacity: 1;" transform="translate(0,29)">0</text></g><g class="ytick"><text text-anchor="end" x="22" y="5.25" style="font-family: 'Open Sans', verdana, arial, sans-serif; font-size: 15px; fill: rgb(255, 255, 255); fill-opacity: 1; white-space: pre; opacity: 1;" transform="translate(0,47)">-10</text></g><g class="ytick"><text text-anchor="end" x="22" y="5.25" style="font-family: 'Open Sans', verdana, arial, sans-serif; font-size: 15px; fill: rgb(255, 255, 255); fill-opacity: 1; white-space: pre; opacity: 1;" transform="translate(0,65)">-20</text></g><g class="ytick"><text text-anchor="end" x="22" y="5.25" style="font-family: 'Open Sans', verdana, arial, sans-serif; font-size: 15px; fill: rgb(255, 255, 255); fill-opacity: 1; white-space: pre; opacity: 1;" transform="translate(0,83)">-30</text></g><g class="ytick"><text text-anchor="end" x="22" y="5.25" style="font-family: 'Open Sans', verdana, arial, sans-serif; font-size: 15px; fill: rgb(255, 255, 255); fill-opacity: 1; white-space: pre; opacity: 1;" transform="translate(0,101)">-40</text></g><g class="ytick"><text text-anchor="end" x="22" y="5.25" style="font-family: 'Open Sans', verdana, arial, sans-serif; font-size: 15px; fill: rgb(255, 255, 255); fill-opacity: 1; white-space: pre; opacity: 1;" transform="translate(0,119)">-50</text></g></g><g class="overaxes-above"/></g></g><g class="polarlayer"/><g class="smithlayer"/><g class="ternarylayer"/><g class="geolayer"/><g class="funnelarealayer"/><g class="pielayer"/><g class="iciclelayer"/><g class="treemaplayer"/><g class="sunburstlayer"/><g class="glimages"/><defs id="topdefs-863b8d"><g class="clips"/></defs><g class="layer-above"><g class="imagelayer"/><g class="shapelayer"/></g><g class="infolayer"><g class="g-gtitle"/><g class="g-xtitle"/><g class="g-ytitle"/></g></svg>