<svg class="main-svg" xmlns="http://www.w3.org/2000/svg" xmlns:xlink="http://www.w3.org/1999/xlink" width="285" height="147" style="" viewBox="0 0 285 147"><rect x="0" y="0" width="285" height="147" style="fill: rgb(0, 0, 0); fill-opacity: 0;"/><defs id="defs-70e0cc"><g class="clips"><clipPath id="clip70e0ccxyplot" class="plotclip"><rect width="239" height="108"/></clipPath><clipPath class="axesclip" id="clip70e0ccx"><rect x="31" y="0" width="239" height="147"/></clipPath><clipPath class="axesclip" id="clip70e0ccy"><rect x="0" y="11" width="285" height="108"/></clipPath><clipPath class="axesclip" id="clip70e0ccxy"><rect x="31" y="11" width="239" height="108"/></clipPath></g><g class="gradients"/><g class="patterns"/></defs><g class="bglayer"><rect class="bg" x="31" y="11" width="239" height="108" style="fill: rgb(0, 0, 0); fill-opacity: 0; stroke-width: 0;"/></g><g class="layer-below"><g class="imagelayer"/><g class="shapelayer"/></g><g class="cartesianlayer"><g class="subplot xy"><g class="layer-subplot"><g class="shapelayer"/><g class="imagelayer"/></g><g class="gridlayer"><g class="x"><path class="xgrid crisp" transform="translate(62.260000000000005,0)" d="M0,11v108" style="stroke: rgb(190, 190, 190); stroke-opacity: 1; stroke-width: 1px;"/><path class="xgrid crisp" transform="translate(109.56,0)" d="M0,11v108" style="stroke: rgb(190, 190, 190); stroke-opacity: 1; stroke-width: 1px;"/><path class="xgrid crisp" transform="translate(164.47,0)" d="M0,11v108" style="stroke: rgb(190, 190, 190); stroke-opacity: 1; stroke-width: 1px;"/><path class="xgrid crisp" transform="translate(219.37,0)" d="M0,11v108" style="stroke: rgb(190, 190, 190); stroke-opacity: 1; stroke-width: 1px;"/><path class="xgrid crisp" transform="translate(266.66999999999996,0)" d="M0,11v108" style="stroke: rgb(190, 190, 190); stroke-opacity: 1; stroke-width: 1px;"/></g><g class="y"><path class="ygrid crisp" transform="translate(0,29)" d="M31,0h239" style="stroke: rgb(190, 190, 190); stroke-opacity: 1; stroke-width: 1px;"/><path class="ygrid crisp" transform="translate(0,47)" d="M31,0h239" style="stroke: rgb(190, 190, 190); stroke-opacity: 1; stroke-width: 1px;"/><path class="ygrid crisp" transform="translate(0,65)" d="M31,0h239" style="stroke: rgb(190, 190, 190); stroke-opacity: 1; stroke-width: 1px;"/><path class="ygrid crisp" transform="translate(0,83)" d="M31,0h239" style="stroke: rgb(190, 190, 190); stroke-opacity: 1; stroke-width: 1px;"/><path class="ygrid crisp" transform="translate(0,101)" d="M31,0h239" style="stroke: rgb(190, 190, 190); stroke-opacity: 1; stroke-width: 1px;"/></g></g><g class="zerolinelayer"/><path class="xlines-below"/><path class="ylines-below"/><g class="overlines-below"/><g class="xaxislayer-below"/><g class="yaxislayer-below"/><g class="overaxes-below"/><g class="plot" transform="translate(31,11)" clip-path="url(#clip70e0ccxyplot)"><g class="scatterlayer mlayer"><g class="trace scatter trace68e670" style="stroke-miterlimit: 2; opacity: 1;"><g class="fills"/><g class="errorbars"/><g class="lines"><path class="js-line" d="M0,30.77L65.02,29.04L65.58,28.99L84.19,26.3L84.51,26.23L102.69,21.81L102.87,21.77L118.79,18.5L118.91,18.48L134.97,18.06L135.05,18.06L155.65,18.04L155.69,18.04L162.4,19.3L162.43,19.32L173,23.44L173.03,23.44L210.68,24.38L210.69,24.4L211.68,30.21L211.69,30.29L213.05,57.31L213.06,57.56L213.83,101.38L213.84,102.15L213.88,107.25" style="vector-effect: non-scaling-stroke; fill: none; stroke: rgb(128, 222, 234); stroke-opacity: 1; stroke-width: 4px; opacity: 1;"/></g><g class="points"/><g class="text"/></g></g></g><g class="overplot"/><path class="xlines-above crisp" d="M30,119.5H270" style="fill: none; stroke-width: 1px; stroke: rgb(190, 190, 190); stroke-opacity: 1;"/><path class="ylines-above crisp" d="M30.5,11V119" style="fill: none; stroke-width: 1px; stroke: rgb(190, 190, 190); stroke-opacity: 1;"/><g class="overlines-above"/><g class="xaxislayer-above"><path class="xtick ticks crisp" d="M0,120v5" transform="translate(31,0)" style="stroke: rgb(190, 190, 190); stroke-opacity: 1; stroke-width: 1px;"/><path class="xtick ticks crisp" d="M0,120v5" transform="translate(62.260000000000005,0)" style="stroke: rgb(190, 190, 190); stroke-opacity: 1; stroke-width: 1px;"/><path class="xtick ticks crisp" d="M0,120v5" transform="translate(109.56,0)" style="stroke: rgb(190, 190, 190); stroke-opacity: 1; stroke-width: 1px;"/><path class="xtick ticks crisp" d="M0,120v5" transform="translate(164.47,0)" style="stroke: rgb(190, 190, 190); stroke-opacity: 1; stroke-width: 1px;"/><path class="xtick ticks crisp" d="M0,120v5" transform="translate(219.37,0)" style="stroke: rgb(190, 190, 190); stroke-opacity: 1; stroke-width: 1px;"/><path class="xtick ticks crisp" d="M0,120v5" transform="translate(266.66999999999996,0)" style="stroke: rgb(190, 190, 190); stroke-opacity: 1; stroke-width: 1px;"/><g class="xtick"><text text-anchor="middle" x="0" y="143" transform="translate(31,0)" style="font-family: 'Open Sans', verdana, arial, sans-serif; font-size: 15px; fill: rgb(255, 255, 255); fill-opacity: 1; white-space: pre; opacity: 1;">20</text></g><g class="xtick"><text text-anchor="middle" x="0" y="143" style="font-family: 'Open Sans', verdana, arial, sans-serif; font-size: 15px; fill: rgb(255, 255, 255); fill-opacity: 1; white-space: pre; opacity: 1;" transform="translate(62.260000000000005,0)">50</text></g><g class="xtick"><text text-anchor="middle" x="0" y="143" style="font-family: 'Open Sans', verdana, arial, sans-serif; font-size: 15px; fill: rgb(255, 255, 255); fill-opacity: 1; white-space: pre; opacity: 1;" transform="translate(109.56,0)">200</text></g><g class="xtick"><text text-anchor="middle" x="0" y="143" style="font-family: 'Open Sans', verdana, arial, sans-serif; font-size: 15px; fill: rgb(255, 255, 255); fill-opacity: 1; white-space: pre; opacity: 1;" transform="translate(164.47,0)">1k</text></g><g class="xtick"><text text-anchor="middle" x="0" y="143" style="font-family: 'Open Sans', verdana, arial, sans-serif; font-size: 15px; fill: rgb(255, 255, 255); fill-opacity: 1; white-space: pre; opacity: 1;" transform="translate(219.37,0)">5k</text></g><g class="xtick"><text text-anchor="middle" x="0" y="143" style="font-family: 'Open Sans', verdana, arial, sans-serif; font-size: 15px; fill: rgb(255, 255, 255); fill-opacity: 1; white-space: pre; opacity: 1;" transform="translate(266.66999999999996,0)">20k</text></g></g><g class="yaxislayer-above"><path class="ytick ticks crisp" d="M30,0h-5" transform="translate(0,11)" style="stroke: rgb(190, 190, 190); stroke-opacity: 1; stroke-width: 1px;"/><path class="ytick ticks crisp" d="M30,0h-5" transform="translate(0,29)" style="stroke: rgb(190, 190, 190); stroke-opacity: 1; stroke-width: 1px;"/><path class="ytick ticks crisp" d="M30,0h-5" transform="translate(0,47)" style="stroke: rgb(190, 190, 190); stroke-opacity: 1; stroke-width: 1px;"/><path class="ytick ticks crisp" d="M30,0h-5" transform="translate(0,65)" style="stroke: rgb(190, 190, 190); stroke-opacity: 1; stroke-width: 1px;"/><path class="ytick ticks crisp" d="M30,0h-5" transform="translate(0,83)" style="stroke: rgb(190, 190, 190); stroke-opacity: 1; stroke-width: 1px;"/><path class="ytick ticks crisp" d="M30,0h-5" transform="translate(0,101)" style="stroke: rgb(190, 190, 190); stroke-opacity: 1; stroke-width: 1px;"/><path class="ytick ticks crisp" d="M30,0h-5" transform="translate(0,119)" style="stroke: rgb(190, 190, 190); stroke-opacity: 1; stroke-width: 1px;"/><g class="ytick"><text text-anchor="end" x="22" y="5.25" transform="translate(0,11)" style="font-family: 'Open Sans', verdana, arial, sans-serif; font-size: 15px; fill: rgb(255, 255, 255); fill-opacity: 1; white-space: pre; opacity: 1;">10</text></g><g class="ytick"><text text-anchor="end" x="22" y="5.25" style="font-family: 'Open Sans', verdana, arial, sans-serif; font-size: 15px; fill: rgb(255, 255, 255); fill-opacity: 1; white-space: pre; opacity: 1;" transform="translate(0,29)">0</text></g><g class="ytick"><text text-anchor="end" x="22" y="5.25" style="font-family: 'Open Sans', verdana, arial, sans-serif; font-size: 15px; fill: rgb(255, 255, 255); fill-opacity: 1; white-space: pre; opacity: 1;" transform="translate(0,47)">-10</text></g><g class="ytick"><text text-anchor="end" x="22" y="5.25" style="font-family: 'Open Sans', verdana, arial, sans-serif; font-size: 15px; fill: rgb(255, 255, 255); fill-opacity: 1; white-space: pre; opacity: 1;" transform="translate(0,65)">-20</text></g><g class="ytick"><text text-anchor="end" x="22" y="5.25" style="font-family: 'Open Sans', verdana, arial, sans-serif; font-size: 15px; fill: rgb(255, 255, 255); fill-opacity: 1; white-space: pre; opacity: 1;" transform="translate(0,83)">-30</text></g><g class="ytick"><text text-anchor="end" x="22" y="5.25" style="font-family: 'Open Sans', verdana, arial, sans-serif; font-size: 15px; fill: rgb(255, 255, 255); fill-opacity: 1; white-space: pre; opacity: 1;" transform="translate(0,101)">-40</text></g><g class="ytick"><text text-anchor="end" x="22" y="5.25" style="font-family: 'Open Sans', verdana, arial, sans-serif; font-size: 15px; fill: rgb(255, 255, 255); fill-opacity: 1; white-space: pre; opacity: 1;" transform="translate(0,119)">-50</text></g></g><g class="overaxes-above"/></g></g><g class="polarlayer"/><g class="smithlayer"/><g class="ternarylayer"/><g class="geolayer"/><g class="funnelarealayer"/><g class="pielayer"/><g class="iciclelayer"/><g class="treemaplayer"/><g class="sunburstlayer"/><g class="glimages"/><defs id="topdefs-70e0cc"><g class="clips"/></defs><g class="layer-above"><g class="imagelayer"/><g class="shapelayer"/></g><g class="infolayer"><g class="g-gtitle"/><g class="g-xtitle"/><g class="g-ytitle"/></g></svg>