<svg class="main-svg" xmlns="http://www.w3.org/2000/svg" xmlns:xlink="http://www.w3.org/1999/xlink" width="285" height="147" style="" viewBox="0 0 285 147"><rect x="0" y="0" width="285" height="147" style="fill: rgb(0, 0, 0); fill-opacity: 0;"/><defs id="defs-5931bb"><g class="clips"><clipPath id="clip5931bbxyplot" class="plotclip"><rect width="235" height="110"/></clipPath><clipPath class="axesclip" id="clip5931bbx"><rect x="35" y="0" width="235" height="147"/></clipPath><clipPath class="axesclip" id="clip5931bby"><rect x="0" y="10" width="285" height="110"/></clipPath><clipPath class="axesclip" id="clip5931bbxy"><rect x="35" y="10" width="235" height="110"/></clipPath></g><g class="gradients"/><g class="patterns"/></defs><g class="bglayer"><rect class="bg" x="35" y="10" width="235" height="110" style="fill: rgb(0, 0, 0); fill-opacity: 0; stroke-width: 0;"/></g><g class="layer-below"><g class="imagelayer"/><g class="shapelayer"/></g><g class="cartesianlayer"><g class="subplot xy"><g class="layer-subplot"><g class="shapelayer"/><g class="imagelayer"/></g><g class="minor-gridlayer"><g class="x"/><g class="y"/></g><g class="gridlayer"><g class="x"><path class="xgrid crisp" transform="translate(65.74,0)" d="M0,10v110" style="stroke: rgb(190, 190, 190); stroke-opacity: 1; stroke-width: 1px;"/><path class="xgrid crisp" transform="translate(112.24,0)" d="M0,10v110" style="stroke: rgb(190, 190, 190); stroke-opacity: 1; stroke-width: 1px;"/><path class="xgrid crisp" transform="translate(166.23,0)" d="M0,10v110" style="stroke: rgb(190, 190, 190); stroke-opacity: 1; stroke-width: 1px;"/><path class="xgrid crisp" transform="translate(220.22,0)" d="M0,10v110" style="stroke: rgb(190, 190, 190); stroke-opacity: 1; stroke-width: 1px;"/><path class="xgrid crisp" transform="translate(266.73,0)" d="M0,10v110" style="stroke: rgb(190, 190, 190); stroke-opacity: 1; stroke-width: 1px;"/></g><g class="y"><path class="ygrid crisp" transform="translate(0,28.33)" d="M35,0h235" style="stroke: rgb(190, 190, 190); stroke-opacity: 1; stroke-width: 1px;"/><path class="ygrid crisp" transform="translate(0,46.67)" d="M35,0h235" style="stroke: rgb(190, 190, 190); stroke-opacity: 1; stroke-width: 1px;"/><path class="ygrid crisp" transform="translate(0,65)" d="M35,0h235" style="stroke: rgb(190, 190, 190); stroke-opacity: 1; stroke-width: 1px;"/><path class="ygrid crisp" transform="translate(0,83.33)" d="M35,0h235" style="stroke: rgb(190, 190, 190); stroke-opacity: 1; stroke-width: 1px;"/><path class="ygrid crisp" transform="translate(0,101.67)" d="M35,0h235" style="stroke: rgb(190, 190, 190); stroke-opacity: 1; stroke-width: 1px;"/></g></g><g class="zerolinelayer"/><path class="xlines-below"/><path class="ylines-below"/><g class="overlines-below"/><g class="xaxislayer-below"/><g class="yaxislayer-below"/><g class="overaxes-below"/><g class="plot" transform="translate(35,10)" clip-path="url(#clip5931bbxyplot)"><g class="scatterlayer mlayer"><g class="trace scatter trace140d1d" style="stroke-miterlimit: 2; opacity: 1;"><g class="fills"/><g class="errorbars"/><g class="lines"><path class="js-line" d="M0,30.93L64.48,29.17L65.02,29.12L86.35,25.7L86.63,25.64L118.79,18.36L118.9,18.36L126.34,18.99L126.43,19.01L132,21.37L132.07,21.41L136.52,25.41L136.59,25.48L141.34,33.39L141.4,33.51L146.78,49.47L146.83,49.64L151.35,62.48L151.39,62.53L153.58,63.59L153.62,63.59L156.87,64.69L156.91,64.73L159.62,68.84L159.65,68.9L163.11,73.04L163.14,73.05L167.32,75.21L167.35,75.24L170.95,77.82L170.98,77.82L173.25,79.15L173.27,79.18L176.99,83.28L177.01,83.27L179.45,82.67L179.47,82.7L182.89,87.47L183.04,87.34L183.06,87.32L184.83,86.88L184.92,86.99L184.93,87.01L187.74,89.94L187.8,89.89L187.82,89.88L189.19,89.93L189.26,90.05L189.28,90.07L191.23,93.49L191.68,93L191.69,92.99L192.93,91.69L193.32,92.21L193.34,92.23L195.09,96.37L195.57,95.71L195.58,95.69L196.62,94.32L197.06,94.93L197.07,94.96L198.49,98.12L198.99,97.46L199,97.45L199.81,96.6L200.21,97.25L200.22,97.28L201.44,100.32L201.93,99.46L201.94,99.43L202.74,98.05L203.18,98.92L203.19,98.95L204.3,102.58L204.79,101.46L204.8,101.43L205.54,99.86L205.99,100.89L206,100.92L206.92,103.98L207.44,102.82L207.45,102.8L208.02,101.7L208.48,102.8L208.49,102.83L209.3,105.55L209.79,104.2L209.8,104.17L210.34,102.88L210.8,104.22L210.81,104.26L211.57,107.43L212.06,105.71L212.07,105.68L212.58,104.19L213.06,105.81L213.06,105.85L213.72,108.65L214.21,106.87L214.22,106.85L214.64,105.72L215.12,107.46L215.12,107.5L215.68,109.84L216.17,107.86L216.18,107.83L216.57,106.76L217.01,108.7L217.02,108.74L217.9,109.99L218.05,108.97L218.06,108.93L218.41,107.74L218.88,109.99L219.86,110L220.18,109.01L220.44,109.99L221.74,109.99" style="vector-effect: non-scaling-stroke; fill: none; stroke: rgb(128, 222, 234); stroke-opacity: 1; stroke-width: 4px; opacity: 1;"/></g><g class="points"/><g class="text"/></g></g></g><g class="overplot"/><path class="xlines-above crisp" d="M34,120.5H270" style="fill: none; stroke-width: 1px; stroke: rgb(190, 190, 190); stroke-opacity: 1;"/><path class="ylines-above crisp" d="M34.5,10V120" style="fill: none; stroke-width: 1px; stroke: rgb(190, 190, 190); stroke-opacity: 1;"/><g class="overlines-above"/><g class="xaxislayer-above"><path class="xtick ticks crisp" d="M0,121v5" transform="translate(35,0)" style="stroke: rgb(190, 190, 190); stroke-opacity: 1; stroke-width: 1px;"/><path class="xtick ticks crisp" d="M0,121v5" transform="translate(65.74,0)" style="stroke: rgb(190, 190, 190); stroke-opacity: 1; stroke-width: 1px;"/><path class="xtick ticks crisp" d="M0,121v5" transform="translate(112.24,0)" style="stroke: rgb(190, 190, 190); stroke-opacity: 1; stroke-width: 1px;"/><path class="xtick ticks crisp" d="M0,121v5" transform="translate(166.23,0)" style="stroke: rgb(190, 190, 190); stroke-opacity: 1; stroke-width: 1px;"/><path class="xtick ticks crisp" d="M0,121v5" transform="translate(220.22,0)" style="stroke: rgb(190, 190, 190); stroke-opacity: 1; stroke-width: 1px;"/><path class="xtick ticks crisp" d="M0,121v5" transform="translate(266.73,0)" style="stroke: rgb(190, 190, 190); stroke-opacity: 1; stroke-width: 1px;"/><g class="xtick"><text text-anchor="middle" x="0" y="144" transform="translate(35,0)" style="font-family: 'Open Sans', verdana, arial, sans-serif; font-size: 15px; fill: rgb(255, 255, 255); fill-opacity: 1; white-space: pre; opacity: 1;">20</text></g><g class="xtick"><text text-anchor="middle" x="0" y="144" style="font-family: 'Open Sans', verdana, arial, sans-serif; font-size: 15px; fill: rgb(255, 255, 255); fill-opacity: 1; white-space: pre; opacity: 1;" transform="translate(65.74,0)">50</text></g><g class="xtick"><text text-anchor="middle" x="0" y="144" style="font-family: 'Open Sans', verdana, arial, sans-serif; font-size: 15px; fill: rgb(255, 255, 255); fill-opacity: 1; white-space: pre; opacity: 1;" transform="translate(112.24,0)">200</text></g><g class="xtick"><text text-anchor="middle" x="0" y="144" style="font-family: 'Open Sans', verdana, arial, sans-serif; font-size: 15px; fill: rgb(255, 255, 255); fill-opacity: 1; white-space: pre; opacity: 1;" transform="translate(166.23,0)">1k</text></g><g class="xtick"><text text-anchor="middle" x="0" y="144" style="font-family: 'Open Sans', verdana, arial, sans-serif; font-size: 15px; fill: rgb(255, 255, 255); fill-opacity: 1; white-space: pre; opacity: 1;" transform="translate(220.22,0)">5k</text></g><g class="xtick"><text text-anchor="middle" x="0" y="144" style="font-family: 'Open Sans', verdana, arial, sans-serif; font-size: 15px; fill: rgb(255, 255, 255); fill-opacity: 1; white-space: pre; opacity: 1;" transform="translate(266.73,0)">20k</text></g></g><g class="yaxislayer-above"><path class="ytick ticks crisp" d="M34,0h-5" transform="translate(0,10)" style="stroke: rgb(190, 190, 190); stroke-opacity: 1; stroke-width: 1px;"/><path class="ytick ticks crisp" d="M34,0h-5" transform="translate(0,28.33)" style="stroke: rgb(190, 190, 190); stroke-opacity: 1; stroke-width: 1px;"/><path class="ytick ticks crisp" d="M34,0h-5" transform="translate(0,46.67)" style="stroke: rgb(190, 190, 190); stroke-opacity: 1; stroke-width: 1px;"/><path class="ytick ticks crisp" d="M34,0h-5" transform="translate(0,65)" style="stroke: rgb(190, 190, 190); stroke-opacity: 1; stroke-width: 1px;"/><path class="ytick ticks crisp" d="M34,0h-5" transform="translate(0,83.33)" style="stroke: rgb(190, 190, 190); stroke-opacity: 1; stroke-width: 1px;"/><path class="ytick ticks crisp" d="M34,0h-5" transform="translate(0,101.67)" style="stroke: rgb(190, 190, 190); stroke-opacity: 1; stroke-width: 1px;"/><path class="ytick ticks crisp" d="M34,0h-5" transform="translate(0,120)" style="stroke: rgb(190, 190, 190); stroke-opacity: 1; stroke-width: 1px;"/><g class="ytick"><text text-anchor="end" x="26" y="5.25" transform="translate(0,10)" style="font-family: 'Open Sans', verdana, arial, sans-serif; font-size: 15px; fill: rgb(255, 255, 255); fill-opacity: 1; white-space: pre; opacity: 1;">10</text></g><g class="ytick"><text text-anchor="end" x="26" y="5.25" style="font-family: 'Open Sans', verdana, arial, sans-serif; font-size: 15px; fill: rgb(255, 255, 255); fill-opacity: 1; white-space: pre; opacity: 1;" transform="translate(0,28.33)">0</text></g><g class="ytick"><text text-anchor="end" x="26" y="5.25" style="font-family: 'Open Sans', verdana, arial, sans-serif; font-size: 15px; fill: rgb(255, 255, 255); fill-opacity: 1; white-space: pre; opacity: 1;" transform="translate(0,46.67)">-10</text></g><g class="ytick"><text text-anchor="end" x="26" y="5.25" style="font-family: 'Open Sans', verdana, arial, sans-serif; font-size: 15px; fill: rgb(255, 255, 255); fill-opacity: 1; white-space: pre; opacity: 1;" transform="translate(0,65)">-20</text></g><g class="ytick"><text text-anchor="end" x="26" y="5.25" style="font-family: 'Open Sans', verdana, arial, sans-serif; font-size: 15px; fill: rgb(255, 255, 255); fill-opacity: 1; white-space: pre; opacity: 1;" transform="translate(0,83.33)">-30</text></g><g class="ytick"><text text-anchor="end" x="26" y="5.25" style="font-family: 'Open Sans', verdana, arial, sans-serif; font-size: 15px; fill: rgb(255, 255, 255); fill-opacity: 1; white-space: pre; opacity: 1;" transform="translate(0,101.67)">-40</text></g><g class="ytick"><text text-anchor="end" x="26" y="5.25" style="font-family: 'Open Sans', verdana, arial, sans-serif; font-size: 15px; fill: rgb(255, 255, 255); fill-opacity: 1; white-space: pre; opacity: 1;" transform="translate(0,120)">-50</text></g></g><g class="overaxes-above"/></g></g><g class="polarlayer"/><g class="smithlayer"/><g class="ternarylayer"/><g class="geolayer"/><g class="funnelarealayer"/><g class="pielayer"/><g class="iciclelayer"/><g class="treemaplayer"/><g class="sunburstlayer"/><g class="glimages"/><defs id="topdefs-5931bb"><g class="clips"/></defs><g class="layer-above"><g class="imagelayer"/><g class="shapelayer"/></g><g class="infolayer"><g class="g-gtitle"/><g class="g-xtitle"/><g class="g-ytitle"/></g></svg>