<svg class="main-svg" xmlns="http://www.w3.org/2000/svg" xmlns:xlink="http://www.w3.org/1999/xlink" width="285" height="147" style="" viewBox="0 0 285 147"><rect x="0" y="0" width="285" height="147" style="fill: rgb(0, 0, 0); fill-opacity: 0;"/><defs id="defs-3a8874"><g class="clips"><clipPath id="clip3a8874xyplot" class="plotclip"><rect width="239" height="108"/></clipPath><clipPath class="axesclip" id="clip3a8874x"><rect x="31" y="0" width="239" height="147"/></clipPath><clipPath class="axesclip" id="clip3a8874y"><rect x="0" y="11" width="285" height="108"/></clipPath><clipPath class="axesclip" id="clip3a8874xy"><rect x="31" y="11" width="239" height="108"/></clipPath></g><g class="gradients"/><g class="patterns"/></defs><g class="bglayer"><rect class="bg" x="31" y="11" width="239" height="108" style="fill: rgb(0, 0, 0); fill-opacity: 0; stroke-width: 0;"/></g><g class="layer-below"><g class="imagelayer"/><g class="shapelayer"/></g><g class="cartesianlayer"><g class="subplot xy"><g class="layer-subplot"><g class="shapelayer"/><g class="imagelayer"/></g><g class="gridlayer"><g class="x"><path class="xgrid crisp" transform="translate(62.260000000000005,0)" d="M0,11v108" style="stroke: rgb(190, 190, 190); stroke-opacity: 1; stroke-width: 1px;"/><path class="xgrid crisp" transform="translate(109.56,0)" d="M0,11v108" style="stroke: rgb(190, 190, 190); stroke-opacity: 1; stroke-width: 1px;"/><path class="xgrid crisp" transform="translate(164.47,0)" d="M0,11v108" style="stroke: rgb(190, 190, 190); stroke-opacity: 1; stroke-width: 1px;"/><path class="xgrid crisp" transform="translate(219.37,0)" d="M0,11v108" style="stroke: rgb(190, 190, 190); stroke-opacity: 1; stroke-width: 1px;"/><path class="xgrid crisp" transform="translate(266.66999999999996,0)" d="M0,11v108" style="stroke: rgb(190, 190, 190); stroke-opacity: 1; stroke-width: 1px;"/></g><g class="y"><path class="ygrid crisp" transform="translate(0,29)" d="M31,0h239" style="stroke: rgb(190, 190, 190); stroke-opacity: 1; stroke-width: 1px;"/><path class="ygrid crisp" transform="translate(0,47)" d="M31,0h239" style="stroke: rgb(190, 190, 190); stroke-opacity: 1; stroke-width: 1px;"/><path class="ygrid crisp" transform="translate(0,65)" d="M31,0h239" style="stroke: rgb(190, 190, 190); stroke-opacity: 1; stroke-width: 1px;"/><path class="ygrid crisp" transform="translate(0,83)" d="M31,0h239" style="stroke: rgb(190, 190, 190); stroke-opacity: 1; stroke-width: 1px;"/><path class="ygrid crisp" transform="translate(0,101)" d="M31,0h239" style="stroke: rgb(190, 190, 190); stroke-opacity: 1; stroke-width: 1px;"/></g></g><g class="zerolinelayer"/><path class="xlines-below"/><path class="ylines-below"/><g class="overlines-below"/><g class="xaxislayer-below"/><g class="yaxislayer-below"/><g class="overaxes-below"/><g class="plot" transform="translate(31,11)" clip-path="url(#clip3a8874xyplot)"><g class="scatterlayer mlayer"><g class="trace scatter trace50e62c" style="stroke-miterlimit: 2; opacity: 1;"><g class="fills"/><g class="errorbars"/><g class="lines"><path class="js-line" d="M0,30.37L65.58,28.64L66.12,28.59L88.11,25.17L88.39,25.11L120.38,18.05L120.49,18.04L128.58,18.66L128.67,18.68L134.83,21.35L134.9,21.4L139.48,25.71L139.55,25.79L143.64,32.55L143.69,32.67L147.73,43.39L147.78,43.55L154.33,61.77L154.37,61.81L156.85,62.45L156.89,62.45L159.58,63.55L159.61,63.58L162.5,67.87L162.53,67.93L165.92,71.72L165.95,71.73L170.22,73.9L170.25,73.93L173.91,76.41L173.93,76.41L176.22,77.74L176.24,77.77L179.98,81.78L180,81.76L180.02,81.75L182.47,81.13L182.48,81.15L182.5,81.17L184.62,85.35L184.63,85.38L185.97,85.9L186.1,85.8L186.11,85.79L188.02,85.35L188.05,85.39L188.06,85.41L190.99,88.27L191.01,88.25L191.03,88.24L192.38,88.26L192.46,88.38L192.47,88.4L194.56,91.75L194.97,91.28L194.98,91.26L196.19,90.01L196.6,90.51L196.61,90.53L198.4,94.62L198.9,93.97L198.91,93.95L199.96,92.6L200.4,93.18L200.41,93.21L201.86,96.34L202.37,95.69L202.38,95.67L203.22,94.85L203.62,95.48L203.63,95.51L204.89,98.49L205.36,97.65L205.37,97.63L206.17,96.26L206.63,97.09L206.64,97.12L207.76,100.72L208.27,99.64L208.28,99.62L209.02,98.04L209.49,99.03L209.5,99.06L210.48,102.08L210.97,100.98L210.98,100.95L211.56,99.85L212.02,100.9L212.03,100.93L212.86,103.63L213.36,102.33L213.36,102.3L213.92,101.01L214.38,102.29L214.39,102.32L215.15,105.48L215.66,103.82L215.67,103.79L216.21,102.3L216.67,103.82L216.68,103.85L217.35,106.68L217.86,104.9L217.87,104.87L218.3,103.8L218.76,105.44L218.77,105.47L219.35,107.84L219.85,105.93L219.85,105.9L220.26,104.82L220.7,106.68L220.71,106.72L221.61,107.99L221.75,107.05L221.76,107.02L222.13,105.78L222.6,107.99L223.6,108L223.92,107.03L224.19,107.99L225.51,107.99" style="vector-effect: non-scaling-stroke; fill: none; stroke: rgb(128, 222, 234); stroke-opacity: 1; stroke-width: 4px; opacity: 1;"/></g><g class="points"/><g class="text"/></g></g></g><g class="overplot"/><path class="xlines-above crisp" d="M30,119.5H270" style="fill: none; stroke-width: 1px; stroke: rgb(190, 190, 190); stroke-opacity: 1;"/><path class="ylines-above crisp" d="M30.5,11V119" style="fill: none; stroke-width: 1px; stroke: rgb(190, 190, 190); stroke-opacity: 1;"/><g class="overlines-above"/><g class="xaxislayer-above"><path class="xtick ticks crisp" d="M0,120v5" transform="translate(31,0)" style="stroke: rgb(190, 190, 190); stroke-opacity: 1; stroke-width: 1px;"/><path class="xtick ticks crisp" d="M0,120v5" transform="translate(62.260000000000005,0)" style="stroke: rgb(190, 190, 190); stroke-opacity: 1; stroke-width: 1px;"/><path class="xtick ticks crisp" d="M0,120v5" transform="translate(109.56,0)" style="stroke: rgb(190, 190, 190); stroke-opacity: 1; stroke-width: 1px;"/><path class="xtick ticks crisp" d="M0,120v5" transform="translate(164.47,0)" style="stroke: rgb(190, 190, 190); stroke-opacity: 1; stroke-width: 1px;"/><path class="xtick ticks crisp" d="M0,120v5" transform="translate(219.37,0)" style="stroke: rgb(190, 190, 190); stroke-opacity: 1; stroke-width: 1px;"/><path class="xtick ticks crisp" d="M0,120v5" transform="translate(266.66999999999996,0)" style="stroke: rgb(190, 190, 190); stroke-opacity: 1; stroke-width: 1px;"/><g class="xtick"><text text-anchor="middle" x="0" y="143" transform="translate(31,0)" style="font-family: 'Open Sans', verdana, arial, sans-serif; font-size: 15px; fill: rgb(255, 255, 255); fill-opacity: 1; white-space: pre; opacity: 1;">20</text></g><g class="xtick"><text text-anchor="middle" x="0" y="143" style="font-family: 'Open Sans', verdana, arial, sans-serif; font-size: 15px; fill: rgb(255, 255, 255); fill-opacity: 1; white-space: pre; opacity: 1;" transform="translate(62.260000000000005,0)">50</text></g><g class="xtick"><text text-anchor="middle" x="0" y="143" style="font-family: 'Open Sans', verdana, arial, sans-serif; font-size: 15px; fill: rgb(255, 255, 255); fill-opacity: 1; white-space: pre; opacity: 1;" transform="translate(109.56,0)">200</text></g><g class="xtick"><text text-anchor="middle" x="0" y="143" style="font-family: 'Open Sans', verdana, arial, sans-serif; font-size: 15px; fill: rgb(255, 255, 255); fill-opacity: 1; white-space: pre; opacity: 1;" transform="translate(164.47,0)">1k</text></g><g class="xtick"><text text-anchor="middle" x="0" y="143" style="font-family: 'Open Sans', verdana, arial, sans-serif; font-size: 15px; fill: rgb(255, 255, 255); fill-opacity: 1; white-space: pre; opacity: 1;" transform="translate(219.37,0)">5k</text></g><g class="xtick"><text text-anchor="middle" x="0" y="143" style="font-family: 'Open Sans', verdana, arial, sans-serif; font-size: 15px; fill: rgb(255, 255, 255); fill-opacity: 1; white-space: pre; opacity: 1;" transform="translate(266.66999999999996,0)">20k</text></g></g><g class="yaxislayer-above"><path class="ytick ticks crisp" d="M30,0h-5" transform="translate(0,11)" style="stroke: rgb(190, 190, 190); stroke-opacity: 1; stroke-width: 1px;"/><path class="ytick ticks crisp" d="M30,0h-5" transform="translate(0,29)" style="stroke: rgb(190, 190, 190); stroke-opacity: 1; stroke-width: 1px;"/><path class="ytick ticks crisp" d="M30,0h-5" transform="translate(0,47)" style="stroke: rgb(190, 190, 190); stroke-opacity: 1; stroke-width: 1px;"/><path class="ytick ticks crisp" d="M30,0h-5" transform="translate(0,65)" style="stroke: rgb(190, 190, 190); stroke-opacity: 1; stroke-width: 1px;"/><path class="ytick ticks crisp" d="M30,0h-5" transform="translate(0,83)" style="stroke: rgb(190, 190, 190); stroke-opacity: 1; stroke-width: 1px;"/><path class="ytick ticks crisp" d="M30,0h-5" transform="translate(0,101)" style="stroke: rgb(190, 190, 190); stroke-opacity: 1; stroke-width: 1px;"/><path class="ytick ticks crisp" d="M30,0h-5" transform="translate(0,119)" style="stroke: rgb(190, 190, 190); stroke-opacity: 1; stroke-width: 1px;"/><g class="ytick"><text text-anchor="end" x="22" y="5.25" transform="translate(0,11)" style="font-family: 'Open Sans', verdana, arial, sans-serif; font-size: 15px; fill: rgb(255, 255, 255); fill-opacity: 1; white-space: pre; opacity: 1;">10</text></g><g class="ytick"><text text-anchor="end" x="22" y="5.25" style="font-family: 'Open Sans', verdana, arial, sans-serif; font-size: 15px; fill: rgb(255, 255, 255); fill-opacity: 1; white-space: pre; opacity: 1;" transform="translate(0,29)">0</text></g><g class="ytick"><text text-anchor="end" x="22" y="5.25" style="font-family: 'Open Sans', verdana, arial, sans-serif; font-size: 15px; fill: rgb(255, 255, 255); fill-opacity: 1; white-space: pre; opacity: 1;" transform="translate(0,47)">-10</text></g><g class="ytick"><text text-anchor="end" x="22" y="5.25" style="font-family: 'Open Sans', verdana, arial, sans-serif; font-size: 15px; fill: rgb(255, 255, 255); fill-opacity: 1; white-space: pre; opacity: 1;" transform="translate(0,65)">-20</text></g><g class="ytick"><text text-anchor="end" x="22" y="5.25" style="font-family: 'Open Sans', verdana, arial, sans-serif; font-size: 15px; fill: rgb(255, 255, 255); fill-opacity: 1; white-space: pre; opacity: 1;" transform="translate(0,83)">-30</text></g><g class="ytick"><text text-anchor="end" x="22" y="5.25" style="font-family: 'Open Sans', verdana, arial, sans-serif; font-size: 15px; fill: rgb(255, 255, 255); fill-opacity: 1; white-space: pre; opacity: 1;" transform="translate(0,101)">-40</text></g><g class="ytick"><text text-anchor="end" x="22" y="5.25" style="font-family: 'Open Sans', verdana, arial, sans-serif; font-size: 15px; fill: rgb(255, 255, 255); fill-opacity: 1; white-space: pre; opacity: 1;" transform="translate(0,119)">-50</text></g></g><g class="overaxes-above"/></g></g><g class="polarlayer"/><g class="smithlayer"/><g class="ternarylayer"/><g class="geolayer"/><g class="funnelarealayer"/><g class="pielayer"/><g class="iciclelayer"/><g class="treemaplayer"/><g class="sunburstlayer"/><g class="glimages"/><defs id="topdefs-3a8874"><g class="clips"/></defs><g class="layer-above"><g class="imagelayer"/><g class="shapelayer"/></g><g class="infolayer"><g class="g-gtitle"/><g class="g-xtitle"/><g class="g-ytitle"/></g></svg>