<svg class="main-svg" xmlns="http://www.w3.org/2000/svg" xmlns:xlink="http://www.w3.org/1999/xlink" width="285" height="147" style="" viewBox="0 0 285 147"><rect x="0" y="0" width="285" height="147" style="fill: rgb(0, 0, 0); fill-opacity: 0;"/><defs id="defs-51f8c6"><g class="clips"><clipPath id="clip51f8c6xyplot" class="plotclip"><rect width="239" height="108"/></clipPath><clipPath class="axesclip" id="clip51f8c6x"><rect x="31" y="0" width="239" height="147"/></clipPath><clipPath class="axesclip" id="clip51f8c6y"><rect x="0" y="11" width="285" height="108"/></clipPath><clipPath class="axesclip" id="clip51f8c6xy"><rect x="31" y="11" width="239" height="108"/></clipPath></g><g class="gradients"/><g class="patterns"/></defs><g class="bglayer"><rect class="bg" x="31" y="11" width="239" height="108" style="fill: rgb(0, 0, 0); fill-opacity: 0; stroke-width: 0;"/></g><g class="layer-below"><g class="imagelayer"/><g class="shapelayer"/></g><g class="cartesianlayer"><g class="subplot xy"><g class="layer-subplot"><g class="shapelayer"/><g class="imagelayer"/></g><g class="minor-gridlayer"><g class="x"/><g class="y"/></g><g class="gridlayer"><g class="x"><path class="xgrid crisp" transform="translate(62.260000000000005,0)" d="M0,11v108" style="stroke: rgb(190, 190, 190); stroke-opacity: 1; stroke-width: 1px;"/><path class="xgrid crisp" transform="translate(109.56,0)" d="M0,11v108" style="stroke: rgb(190, 190, 190); stroke-opacity: 1; stroke-width: 1px;"/><path class="xgrid crisp" transform="translate(164.47,0)" d="M0,11v108" style="stroke: rgb(190, 190, 190); stroke-opacity: 1; stroke-width: 1px;"/><path class="xgrid crisp" transform="translate(219.37,0)" d="M0,11v108" style="stroke: rgb(190, 190, 190); stroke-opacity: 1; stroke-width: 1px;"/><path class="xgrid crisp" transform="translate(266.66999999999996,0)" d="M0,11v108" style="stroke: rgb(190, 190, 190); stroke-opacity: 1; stroke-width: 1px;"/></g><g class="y"><path class="ygrid crisp" transform="translate(0,29)" d="M31,0h239" style="stroke: rgb(190, 190, 190); stroke-opacity: 1; stroke-width: 1px;"/><path class="ygrid crisp" transform="translate(0,47)" d="M31,0h239" style="stroke: rgb(190, 190, 190); stroke-opacity: 1; stroke-width: 1px;"/><path class="ygrid crisp" transform="translate(0,65)" d="M31,0h239" style="stroke: rgb(190, 190, 190); stroke-opacity: 1; stroke-width: 1px;"/><path class="ygrid crisp" transform="translate(0,83)" d="M31,0h239" style="stroke: rgb(190, 190, 190); stroke-opacity: 1; stroke-width: 1px;"/><path class="ygrid crisp" transform="translate(0,101)" d="M31,0h239" style="stroke: rgb(190, 190, 190); stroke-opacity: 1; stroke-width: 1px;"/></g></g><g class="zerolinelayer"/><path class="xlines-below"/><path class="ylines-below"/><g class="overlines-below"/><g class="xaxislayer-below"/><g class="yaxislayer-below"/><g class="overaxes-below"/><g class="plot" transform="translate(31,11)" clip-path="url(#clip51f8c6xyplot)"><g class="scatterlayer mlayer"><g class="trace scatter tracec68b91" style="stroke-miterlimit: 2; opacity: 1;"><g class="fills"/><g class="errorbars"/><g class="lines"><path class="js-line" d="M-4780,30.37L-4780,29.64155282591421L49.82,29.64L63.65,28.81L87.3,25.35L92.56,24.13L118.56,18.19L120.76,18.03L128.37,18.61L130.04,19.06L135.99,22.19L137.32,23.35L142.21,29.79L143.32,31.91L147.47,42.55L148.43,45.66L153.69,61.04L154.49,61.9L157.52,62.49L158.24,62.67L160.31,64.37L160.97,65.3L165.85,71.7L166.42,71.86L169.62,73.28L170.12,73.79L173.47,76.34L173.92,76.41L176.09,77.58L176.51,78.15L179.69,81.91L180.06,81.72L182.24,80.93L182.59,81.28L185.91,85.94L186.22,85.7L188.05,85.39L188.35,85.8L190.62,88.5L190.89,88.33L192.23,88.09L192.49,88.43L194.52,91.77L194.76,91.56L195,91.22L196.19,90.02L196.43,90.23L196.66,90.62L198.45,94.59L198.89,94L199.1,93.56L199.95,92.6L200.37,93.11L200.57,93.6L201.78,96.35L202.18,96.03L202.37,95.69L203.15,94.82L203.52,95.27L203.71,95.73L204.82,98.5L205.18,98.09L205.36,97.66L206.24,96.3L206.59,96.96L206.76,97.55L207.77,100.71L208.27,99.66L208.43,99.12L209.08,98.07L209.4,98.7L209.56,99.27L210.49,102.07L210.95,101.04L211.1,100.57L211.55,99.85L211.99,100.79L212.14,101.4L212.86,103.63L213.29,102.58L213.43,102.04L213.99,101.06L214.27,101.77L214.41,102.41L215.22,105.43L215.62,104.05L215.75,103.43L216.14,102.31L216.66,103.75L216.79,104.5L217.29,106.66L217.79,105.23L217.92,104.66L218.29,103.8L218.65,104.82L218.77,105.49L219.37,107.83L219.84,105.96L219.96,105.42L220.19,104.83L220.65,106.32L220.76,107.11L221.21,109.4L221.66,107.64L221.77,106.95L222.1,105.79L222.54,107.48L222.64,108.31L223.07,110.53L223.6,107.99L223.7,107.46L223.91,107.03L224.32,108.92L224.43,109.72L224.83,111.42L225.33,108.62L225.43,108.19L225.63,108.02L225.92,109.59L226.02,110.44L226.41,112.78L226.98,109.29L227.08,108.88L227.64,111.58L227.73,112.48L228.01,113.86L228.56,110.2L228.65,109.84L229.54,114.58L229.71,113.57L229.8,112.8L230.15,110.62L230.92,115.77L231.17,114.18L231.25,113.3L231.59,111.23L232.32,116.8L232.65,114L232.73,113.17L232.97,112.06L233.6,117.51L234.06,113.67L234.14,113.13L235.64,122.17L235.71,125.21L236.08,192.27L238.93,144.52" style="vector-effect: non-scaling-stroke; fill: none; stroke: rgb(128, 222, 234); stroke-opacity: 1; stroke-width: 4px; opacity: 1;"/></g><g class="points"/><g class="text"/></g></g></g><g class="overplot"/><path class="xlines-above crisp" d="M30,119.5H270" style="fill: none; stroke-width: 1px; stroke: rgb(190, 190, 190); stroke-opacity: 1;"/><path class="ylines-above crisp" d="M30.5,11V119" style="fill: none; stroke-width: 1px; stroke: rgb(190, 190, 190); stroke-opacity: 1;"/><g class="overlines-above"/><g class="xaxislayer-above"><path class="xtick ticks crisp" d="M0,120v5" transform="translate(31,0)" style="stroke: rgb(190, 190, 190); stroke-opacity: 1; stroke-width: 1px;"/><path class="xtick ticks crisp" d="M0,120v5" transform="translate(62.260000000000005,0)" style="stroke: rgb(190, 190, 190); stroke-opacity: 1; stroke-width: 1px;"/><path class="xtick ticks crisp" d="M0,120v5" transform="translate(109.56,0)" style="stroke: rgb(190, 190, 190); stroke-opacity: 1; stroke-width: 1px;"/><path class="xtick ticks crisp" d="M0,120v5" transform="translate(164.47,0)" style="stroke: rgb(190, 190, 190); stroke-opacity: 1; stroke-width: 1px;"/><path class="xtick ticks crisp" d="M0,120v5" transform="translate(219.37,0)" style="stroke: rgb(190, 190, 190); stroke-opacity: 1; stroke-width: 1px;"/><path class="xtick ticks crisp" d="M0,120v5" transform="translate(266.66999999999996,0)" style="stroke: rgb(190, 190, 190); stroke-opacity: 1; stroke-width: 1px;"/><g class="xtick"><text text-anchor="middle" x="0" y="143" transform="translate(31,0)" style="font-family: 'Open Sans', verdana, arial, sans-serif; font-size: 15px; fill: rgb(255, 255, 255); fill-opacity: 1; white-space: pre; opacity: 1;">20</text></g><g class="xtick"><text text-anchor="middle" x="0" y="143" style="font-family: 'Open Sans', verdana, arial, sans-serif; font-size: 15px; fill: rgb(255, 255, 255); fill-opacity: 1; white-space: pre; opacity: 1;" transform="translate(62.260000000000005,0)">50</text></g><g class="xtick"><text text-anchor="middle" x="0" y="143" style="font-family: 'Open Sans', verdana, arial, sans-serif; font-size: 15px; fill: rgb(255, 255, 255); fill-opacity: 1; white-space: pre; opacity: 1;" transform="translate(109.56,0)">200</text></g><g class="xtick"><text text-anchor="middle" x="0" y="143" style="font-family: 'Open Sans', verdana, arial, sans-serif; font-size: 15px; fill: rgb(255, 255, 255); fill-opacity: 1; white-space: pre; opacity: 1;" transform="translate(164.47,0)">1k</text></g><g class="xtick"><text text-anchor="middle" x="0" y="143" style="font-family: 'Open Sans', verdana, arial, sans-serif; font-size: 15px; fill: rgb(255, 255, 255); fill-opacity: 1; white-space: pre; opacity: 1;" transform="translate(219.37,0)">5k</text></g><g class="xtick"><text text-anchor="middle" x="0" y="143" style="font-family: 'Open Sans', verdana, arial, sans-serif; font-size: 15px; fill: rgb(255, 255, 255); fill-opacity: 1; white-space: pre; opacity: 1;" transform="translate(266.66999999999996,0)">20k</text></g></g><g class="yaxislayer-above"><path class="ytick ticks crisp" d="M30,0h-5" transform="translate(0,11)" style="stroke: rgb(190, 190, 190); stroke-opacity: 1; stroke-width: 1px;"/><path class="ytick ticks crisp" d="M30,0h-5" transform="translate(0,29)" style="stroke: rgb(190, 190, 190); stroke-opacity: 1; stroke-width: 1px;"/><path class="ytick ticks crisp" d="M30,0h-5" transform="translate(0,47)" style="stroke: rgb(190, 190, 190); stroke-opacity: 1; stroke-width: 1px;"/><path class="ytick ticks crisp" d="M30,0h-5" transform="translate(0,65)" style="stroke: rgb(190, 190, 190); stroke-opacity: 1; stroke-width: 1px;"/><path class="ytick ticks crisp" d="M30,0h-5" transform="translate(0,83)" style="stroke: rgb(190, 190, 190); stroke-opacity: 1; stroke-width: 1px;"/><path class="ytick ticks crisp" d="M30,0h-5" transform="translate(0,101)" style="stroke: rgb(190, 190, 190); stroke-opacity: 1; stroke-width: 1px;"/><path class="ytick ticks crisp" d="M30,0h-5" transform="translate(0,119)" style="stroke: rgb(190, 190, 190); stroke-opacity: 1; stroke-width: 1px;"/><g class="ytick"><text text-anchor="end" x="22" y="5.25" transform="translate(0,11)" style="font-family: 'Open Sans', verdana, arial, sans-serif; font-size: 15px; fill: rgb(255, 255, 255); fill-opacity: 1; white-space: pre; opacity: 1;">10</text></g><g class="ytick"><text text-anchor="end" x="22" y="5.25" style="font-family: 'Open Sans', verdana, arial, sans-serif; font-size: 15px; fill: rgb(255, 255, 255); fill-opacity: 1; white-space: pre; opacity: 1;" transform="translate(0,29)">0</text></g><g class="ytick"><text text-anchor="end" x="22" y="5.25" style="font-family: 'Open Sans', verdana, arial, sans-serif; font-size: 15px; fill: rgb(255, 255, 255); fill-opacity: 1; white-space: pre; opacity: 1;" transform="translate(0,47)">-10</text></g><g class="ytick"><text text-anchor="end" x="22" y="5.25" style="font-family: 'Open Sans', verdana, arial, sans-serif; font-size: 15px; fill: rgb(255, 255, 255); fill-opacity: 1; white-space: pre; opacity: 1;" transform="translate(0,65)">-20</text></g><g class="ytick"><text text-anchor="end" x="22" y="5.25" style="font-family: 'Open Sans', verdana, arial, sans-serif; font-size: 15px; fill: rgb(255, 255, 255); fill-opacity: 1; white-space: pre; opacity: 1;" transform="translate(0,83)">-30</text></g><g class="ytick"><text text-anchor="end" x="22" y="5.25" style="font-family: 'Open Sans', verdana, arial, sans-serif; font-size: 15px; fill: rgb(255, 255, 255); fill-opacity: 1; white-space: pre; opacity: 1;" transform="translate(0,101)">-40</text></g><g class="ytick"><text text-anchor="end" x="22" y="5.25" style="font-family: 'Open Sans', verdana, arial, sans-serif; font-size: 15px; fill: rgb(255, 255, 255); fill-opacity: 1; white-space: pre; opacity: 1;" transform="translate(0,119)">-50</text></g></g><g class="overaxes-above"/></g></g><g class="polarlayer"/><g class="smithlayer"/><g class="ternarylayer"/><g class="geolayer"/><g class="funnelarealayer"/><g class="pielayer"/><g class="iciclelayer"/><g class="treemaplayer"/><g class="sunburstlayer"/><g class="glimages"/><defs id="topdefs-51f8c6"><g class="clips"/></defs><g class="layer-above"><g class="imagelayer"/><g class="shapelayer"/></g><g class="infolayer"><g class="g-gtitle"/><g class="g-xtitle"/><g class="g-ytitle"/></g></svg>