<?xml version="1.0" encoding="UTF-8"?>
<svg xmlns="http://www.w3.org/2000/svg" xmlns:xlink="http://www.w3.org/1999/xlink" width="196px" height="1500px" viewBox="0 0 196 1502" version="1.1">
<g id="surface1">
<path style="fill:none;stroke-width:0.75;stroke-linecap:butt;stroke-linejoin:miter;stroke:rgb(74.509804%,74.509804%,74.509804%);stroke-opacity:1;stroke-miterlimit:10;" d="M 1 40.999917 L 5 40.999917 " transform="matrix(6.125,0,0,6.122283,3.0625,3.061141)"/>
<path style=" stroke:none;fill-rule:nonzero;fill:rgb(74.509804%,74.509804%,74.509804%);fill-opacity:1;" d="M 51.425781 254.96875 C 51.425781 250.058594 51.933594 246.101562 52.957031 243.105469 C 53.976562 240.140625 55.445312 237.84375 57.421875 236.21875 C 59.464844 234.527344 61.953125 233.667969 64.949219 233.667969 C 67.246094 233.667969 69.191406 234.144531 70.820312 235.070312 C 72.511719 235.929688 73.914062 237.207031 75.03125 238.898438 C 76.117188 240.617188 76.976562 242.691406 77.582031 245.144531 C 78.253906 247.539062 78.605469 250.820312 78.605469 254.96875 C 78.605469 259.8125 78.09375 263.769531 77.074219 266.828125 C 76.050781 269.828125 74.519531 272.15625 72.480469 273.84375 C 70.5 275.472656 68.011719 276.269531 64.949219 276.269531 C 60.929688 276.269531 57.804688 274.832031 55.507812 271.929688 C 52.765625 268.457031 51.425781 262.8125 51.425781 254.96875 Z M 56.65625 254.96875 C 56.65625 261.792969 57.453125 266.320312 59.082031 268.613281 C 60.675781 270.910156 62.652344 272.058594 64.949219 272.058594 C 67.3125 272.058594 69.320312 270.910156 70.949219 268.613281 C 72.542969 266.320312 73.371094 261.792969 73.371094 254.96875 C 73.371094 248.078125 72.542969 243.550781 70.949219 241.320312 C 69.320312 239.023438 67.3125 237.875 64.949219 237.875 C 62.558594 237.875 60.675781 238.898438 59.335938 240.9375 C 57.550781 243.488281 56.65625 248.175781 56.65625 254.96875 Z M 56.65625 254.96875 "/>
<path style=" stroke:none;fill-rule:nonzero;fill:rgb(74.509804%,74.509804%,74.509804%);fill-opacity:1;" d="M 120.878906 275.503906 L 120.878906 271.675781 C 118.996094 274.671875 116.191406 276.140625 112.457031 276.140625 C 110.066406 276.140625 107.863281 275.503906 105.820312 274.226562 C 103.84375 272.886719 102.3125 271.007812 101.226562 268.613281 C 100.113281 266.253906 99.570312 263.511719 99.570312 260.453125 C 99.570312 257.488281 100.015625 254.777344 100.972656 252.289062 C 101.992188 249.832031 103.460938 247.953125 105.4375 246.675781 C 107.480469 245.335938 109.777344 244.636719 112.328125 244.636719 C 114.117188 244.636719 115.679688 245.019531 117.050781 245.785156 C 118.488281 246.550781 119.667969 247.570312 120.625 248.84375 L 120.625 233.921875 L 125.726562 233.921875 L 125.726562 275.503906 Z M 104.800781 260.453125 C 104.800781 264.277344 105.597656 267.179688 107.226562 269.125 C 108.820312 271.007812 110.734375 271.929688 112.96875 271.929688 C 115.167969 271.929688 117.050781 271.039062 118.582031 269.253906 C 120.175781 267.402344 121.007812 264.597656 121.007812 260.835938 C 121.007812 256.753906 120.175781 253.753906 118.582031 251.777344 C 117.050781 249.832031 115.074219 248.84375 112.710938 248.84375 C 110.480469 248.84375 108.628906 249.800781 107.097656 251.652344 C 105.566406 253.53125 104.800781 256.464844 104.800781 260.453125 Z M 104.800781 260.453125 "/>
<path style=" stroke:none;fill-rule:nonzero;fill:rgb(74.509804%,74.509804%,74.509804%);fill-opacity:1;" d="M 134.097656 275.503906 L 134.097656 233.921875 L 149.792969 233.921875 C 152.921875 233.921875 155.441406 234.367188 157.324219 235.199219 C 159.269531 235.964844 160.800781 237.238281 161.917969 239.023438 C 163 240.808594 163.574219 242.660156 163.574219 244.507812 C 163.574219 246.292969 163.066406 248.015625 162.042969 249.609375 C 161.085938 251.140625 159.652344 252.382812 157.707031 253.308594 C 160.257812 254.074219 162.203125 255.351562 163.574219 257.136719 C 164.914062 258.921875 165.617188 261.027344 165.617188 263.386719 C 165.617188 265.363281 165.171875 267.179688 164.339844 268.871094 C 163.574219 270.59375 162.554688 271.898438 161.277344 272.824219 C 160.066406 273.683594 158.535156 274.355469 156.683594 274.863281 C 154.898438 275.3125 152.664062 275.503906 150.050781 275.503906 Z M 139.714844 251.394531 L 148.644531 251.394531 C 151.101562 251.394531 152.855469 251.238281 153.878906 250.886719 C 155.3125 250.472656 156.367188 249.800781 157.066406 248.84375 C 157.832031 247.824219 158.214844 246.613281 158.214844 245.144531 C 158.214844 243.808594 157.867188 242.59375 157.195312 241.574219 C 156.492188 240.492188 155.535156 239.757812 154.261719 239.40625 C 153.046875 238.992188 150.976562 238.769531 148.007812 238.769531 L 139.714844 238.769531 Z M 139.714844 270.527344 L 150.050781 270.527344 C 151.835938 270.527344 153.046875 270.496094 153.75 270.402344 C 155.027344 270.144531 156.078125 269.761719 156.941406 269.253906 C 157.769531 268.742188 158.472656 267.976562 158.980469 266.957031 C 159.554688 265.9375 159.875 264.757812 159.875 263.386719 C 159.875 261.855469 159.429688 260.546875 158.597656 259.433594 C 157.832031 258.25 156.71875 257.453125 155.28125 257.007812 C 153.910156 256.5 151.898438 256.242188 149.285156 256.242188 L 139.714844 256.242188 Z M 139.714844 270.527344 "/>
<path style="fill:none;stroke-width:0.75;stroke-linecap:butt;stroke-linejoin:miter;stroke:rgb(74.509804%,74.509804%,74.509804%);stroke-opacity:1;stroke-miterlimit:10;" d="M 1 64.999723 L 5 64.999723 " transform="matrix(6.125,0,0,6.122283,3.0625,3.061141)"/>
<path style=" stroke:none;fill-rule:nonzero;fill:rgb(74.509804%,74.509804%,74.509804%);fill-opacity:1;" d="M 44.660156 403.816406 L 44.660156 398.714844 L 60.484375 398.714844 L 60.484375 403.816406 Z M 44.660156 403.816406 "/>
<path style=" stroke:none;fill-rule:nonzero;fill:rgb(74.509804%,74.509804%,74.509804%);fill-opacity:1;" d="M 91.21875 384.9375 L 86.113281 385.320312 C 85.667969 383.28125 85.027344 381.8125 84.199219 380.855469 C 82.828125 379.421875 81.136719 378.6875 79.09375 378.6875 C 77.46875 378.6875 76.03125 379.167969 74.757812 380.089844 C 73.128906 381.304688 71.855469 383.023438 70.929688 385.320312 C 69.972656 387.554688 69.523438 390.742188 69.523438 394.886719 C 70.707031 393.039062 72.203125 391.632812 73.992188 390.679688 C 75.777344 389.753906 77.628906 389.273438 79.605469 389.273438 C 82.988281 389.273438 85.890625 390.550781 88.28125 393.101562 C 90.738281 395.589844 91.984375 398.808594 91.984375 402.796875 C 91.984375 405.441406 91.378906 407.898438 90.195312 410.191406 C 89.082031 412.425781 87.550781 414.113281 85.601562 415.292969 C 83.625 416.476562 81.390625 417.082031 78.839844 417.082031 C 74.566406 417.082031 71.089844 415.519531 68.375 412.359375 C 65.730469 409.234375 64.421875 404.039062 64.421875 396.800781 C 64.421875 388.828125 65.886719 382.992188 68.886719 379.328125 C 71.503906 376.105469 75.011719 374.480469 79.351562 374.480469 C 82.667969 374.480469 85.347656 375.4375 87.390625 377.285156 C 89.496094 379.070312 90.769531 381.621094 91.21875 384.9375 Z M 70.289062 402.796875 C 70.289062 404.582031 70.671875 406.300781 71.4375 407.898438 C 72.203125 409.523438 73.226562 410.765625 74.5 411.597656 C 75.839844 412.457031 77.308594 412.871094 78.839844 412.871094 C 80.945312 412.871094 82.796875 412.042969 84.328125 410.320312 C 85.921875 408.535156 86.75 406.113281 86.75 403.050781 C 86.75 400.246094 85.984375 398.042969 84.453125 396.417969 C 82.921875 394.726562 80.945312 393.867188 78.585938 393.867188 C 76.289062 393.867188 74.308594 394.726562 72.714844 396.417969 C 71.089844 398.042969 70.289062 400.179688 70.289062 402.796875 Z M 70.289062 402.796875 "/>
<path style="fill:none;stroke-width:0.75;stroke-linecap:butt;stroke-linejoin:miter;stroke:rgb(74.509804%,74.509804%,74.509804%);stroke-opacity:1;stroke-miterlimit:10;" d="M 1 89.000166 L 5 89.000166 " transform="matrix(6.125,0,0,6.122283,3.0625,3.061141)"/>
<path style=" stroke:none;fill-rule:nonzero;fill:rgb(74.509804%,74.509804%,74.509804%);fill-opacity:1;" d="M 44.660156 550.75 L 44.660156 545.648438 L 60.484375 545.648438 L 60.484375 550.75 Z M 44.660156 550.75 "/>
<path style=" stroke:none;fill-rule:nonzero;fill:rgb(74.509804%,74.509804%,74.509804%);fill-opacity:1;" d="M 83.945312 563.25 L 78.839844 563.25 L 78.839844 530.726562 C 77.5625 531.839844 75.90625 532.988281 73.863281 534.167969 C 71.886719 535.378906 70.164062 536.273438 68.632812 536.847656 L 68.632812 531.875 C 71.4375 530.535156 73.894531 528.90625 76.03125 527.027344 C 78.234375 525.082031 79.765625 523.199219 80.625 521.414062 L 83.945312 521.414062 Z M 83.945312 563.25 "/>
<path style=" stroke:none;fill-rule:nonzero;fill:rgb(74.509804%,74.509804%,74.509804%);fill-opacity:1;" d="M 123.960938 558.277344 L 123.960938 563.25 L 96.398438 563.25 C 96.304688 562.070312 96.464844 560.890625 96.910156 559.679688 C 97.675781 557.828125 98.824219 555.980469 100.355469 554.195312 C 101.886719 552.34375 104.085938 550.207031 106.992188 547.816406 C 111.585938 544.179688 114.648438 541.28125 116.179688 539.144531 C 117.773438 536.941406 118.601562 534.871094 118.601562 532.894531 C 118.601562 530.851562 117.867188 529.164062 116.433594 527.792969 C 114.964844 526.355469 113.050781 525.625 110.691406 525.625 C 108.296875 525.625 106.351562 526.390625 104.820312 527.917969 C 103.355469 529.386719 102.652344 531.425781 102.652344 534.042969 L 97.292969 533.53125 C 97.707031 529.640625 99.078125 526.644531 101.375 524.601562 C 103.738281 522.5 106.894531 521.414062 110.820312 521.414062 C 114.804688 521.414062 117.964844 522.53125 120.261719 524.730469 C 122.621094 526.960938 123.835938 529.703125 123.835938 533.019531 C 123.835938 534.648438 123.484375 536.273438 122.8125 537.867188 C 122.113281 539.496094 120.964844 541.183594 119.367188 542.96875 C 117.835938 544.753906 115.222656 547.242188 111.585938 550.367188 C 108.523438 552.917969 106.511719 554.671875 105.585938 555.597656 C 104.726562 556.554688 103.992188 557.445312 103.417969 558.277344 Z M 123.960938 558.277344 "/>
<path style="fill:none;stroke-width:0.75;stroke-linecap:butt;stroke-linejoin:miter;stroke:rgb(74.509804%,74.509804%,74.509804%);stroke-opacity:1;stroke-miterlimit:10;" d="M 1 112.999972 L 5 112.999972 " transform="matrix(6.125,0,0,6.122283,3.0625,3.061141)"/>
<path style=" stroke:none;fill-rule:nonzero;fill:rgb(74.509804%,74.509804%,74.509804%);fill-opacity:1;" d="M 44.660156 697.683594 L 44.660156 692.582031 L 60.484375 692.582031 L 60.484375 697.683594 Z M 44.660156 697.683594 "/>
<path style=" stroke:none;fill-rule:nonzero;fill:rgb(74.509804%,74.509804%,74.509804%);fill-opacity:1;" d="M 83.945312 710.183594 L 78.839844 710.183594 L 78.839844 677.660156 C 77.5625 678.777344 75.90625 679.925781 73.863281 681.105469 C 71.886719 682.316406 70.164062 683.207031 68.632812 683.78125 L 68.632812 678.808594 C 71.4375 677.46875 73.894531 675.84375 76.03125 673.960938 C 78.234375 672.015625 79.765625 670.136719 80.625 668.347656 L 83.945312 668.347656 Z M 83.945312 710.183594 "/>
<path style=" stroke:none;fill-rule:nonzero;fill:rgb(74.509804%,74.509804%,74.509804%);fill-opacity:1;" d="M 104.949219 687.609375 C 102.8125 686.84375 101.25 685.757812 100.226562 684.292969 C 99.207031 682.859375 98.695312 681.105469 98.695312 679.0625 C 98.695312 676.097656 99.75 673.578125 101.886719 671.539062 C 104.085938 669.433594 106.992188 668.347656 110.5625 668.347656 C 114.199219 668.347656 117.136719 669.433594 119.367188 671.539062 C 121.570312 673.675781 122.6875 676.257812 122.6875 679.316406 C 122.6875 681.199219 122.175781 682.859375 121.15625 684.292969 C 120.132812 685.757812 118.601562 686.84375 116.5625 687.609375 C 119.113281 688.46875 121.058594 689.839844 122.429688 691.691406 C 123.769531 693.476562 124.472656 695.707031 124.472656 698.324219 C 124.472656 701.894531 123.195312 704.921875 120.644531 707.378906 C 118.09375 709.769531 114.773438 710.949219 110.691406 710.949219 C 106.609375 710.949219 103.289062 709.738281 100.738281 707.25 C 98.1875 704.796875 96.910156 701.765625 96.910156 698.195312 C 96.910156 695.484375 97.578125 693.222656 98.953125 691.433594 C 100.386719 689.585938 102.398438 688.308594 104.949219 687.609375 Z M 103.929688 678.9375 C 103.929688 680.914062 104.503906 682.507812 105.714844 683.78125 C 106.992188 685.058594 108.648438 685.695312 110.691406 685.695312 C 112.636719 685.695312 114.265625 685.058594 115.539062 683.78125 C 116.816406 682.507812 117.453125 680.976562 117.453125 679.191406 C 117.453125 677.339844 116.816406 675.746094 115.539062 674.472656 C 114.265625 673.195312 112.636719 672.558594 110.691406 672.558594 C 108.714844 672.558594 107.117188 673.195312 105.84375 674.472656 C 104.566406 675.746094 103.929688 677.246094 103.929688 678.9375 Z M 102.269531 698.195312 C 102.269531 699.660156 102.589844 701.066406 103.289062 702.40625 C 103.960938 703.777344 104.980469 704.828125 106.351562 705.59375 C 107.691406 706.359375 109.160156 706.742188 110.691406 706.742188 C 113.148438 706.742188 115.1875 705.976562 116.816406 704.445312 C 118.410156 702.851562 119.242188 700.808594 119.242188 698.324219 C 119.242188 695.867188 118.378906 693.828125 116.6875 692.199219 C 115.0625 690.605469 113.019531 689.777344 110.5625 689.777344 C 108.171875 689.777344 106.160156 690.605469 104.566406 692.199219 C 103.035156 693.828125 102.269531 695.835938 102.269531 698.195312 Z M 102.269531 698.195312 "/>
<path style="fill:none;stroke-width:0.75;stroke-linecap:butt;stroke-linejoin:miter;stroke:rgb(74.509804%,74.509804%,74.509804%);stroke-opacity:1;stroke-miterlimit:10;" d="M 1 136.999778 L 5 136.999778 " transform="matrix(6.125,0,0,6.122283,3.0625,3.061141)"/>
<path style=" stroke:none;fill-rule:nonzero;fill:rgb(74.509804%,74.509804%,74.509804%);fill-opacity:1;" d="M 44.660156 844.621094 L 44.660156 839.519531 L 60.484375 839.519531 L 60.484375 844.621094 Z M 44.660156 844.621094 "/>
<path style=" stroke:none;fill-rule:nonzero;fill:rgb(74.509804%,74.509804%,74.509804%);fill-opacity:1;" d="M 91.601562 852.144531 L 91.601562 857.121094 L 64.039062 857.121094 C 63.941406 855.941406 64.101562 854.761719 64.546875 853.546875 C 65.3125 851.699219 66.460938 849.847656 67.992188 848.0625 C 69.523438 846.214844 71.726562 844.078125 74.628906 841.6875 C 79.222656 838.050781 82.285156 835.148438 83.816406 833.011719 C 85.410156 830.8125 86.242188 828.738281 86.242188 826.761719 C 86.242188 824.722656 85.507812 823.03125 84.070312 821.660156 C 82.605469 820.226562 80.691406 819.492188 78.328125 819.492188 C 75.9375 819.492188 73.992188 820.257812 72.460938 821.789062 C 70.992188 823.253906 70.289062 825.296875 70.289062 827.910156 L 64.929688 827.402344 C 65.347656 823.511719 66.71875 820.511719 69.015625 818.472656 C 71.375 816.367188 74.535156 815.285156 78.457031 815.285156 C 82.445312 815.285156 85.601562 816.398438 87.898438 818.601562 C 90.261719 820.832031 91.472656 823.574219 91.472656 826.890625 C 91.472656 828.515625 91.121094 830.144531 90.453125 831.738281 C 89.75 833.363281 88.601562 835.054688 87.007812 836.839844 C 85.476562 838.625 82.859375 841.113281 79.222656 844.238281 C 76.160156 846.789062 74.152344 848.542969 73.226562 849.464844 C 72.363281 850.421875 71.628906 851.316406 71.054688 852.144531 Z M 91.601562 852.144531 "/>
<path style=" stroke:none;fill-rule:nonzero;fill:rgb(74.509804%,74.509804%,74.509804%);fill-opacity:1;" d="M 113.371094 857.121094 L 113.371094 847.171875 L 95.378906 847.171875 L 95.378906 842.453125 L 114.390625 815.539062 L 118.476562 815.539062 L 118.476562 842.453125 L 124.21875 842.453125 L 124.21875 847.171875 L 118.476562 847.171875 L 118.476562 857.121094 Z M 113.371094 842.453125 L 113.371094 823.703125 L 100.355469 842.453125 Z M 113.371094 842.453125 "/>
<path style="fill:none;stroke-width:0.75;stroke-linecap:butt;stroke-linejoin:miter;stroke:rgb(74.509804%,74.509804%,74.509804%);stroke-opacity:1;stroke-miterlimit:10;" d="M 1 161.000222 L 5 161.000222 " transform="matrix(6.125,0,0,6.122283,3.0625,3.061141)"/>
<path style=" stroke:none;fill-rule:nonzero;fill:rgb(74.509804%,74.509804%,74.509804%);fill-opacity:1;" d="M 44.660156 991.554688 L 44.660156 986.453125 L 60.484375 986.453125 L 60.484375 991.554688 Z M 44.660156 991.554688 "/>
<path style=" stroke:none;fill-rule:nonzero;fill:rgb(74.509804%,74.509804%,74.509804%);fill-opacity:1;" d="M 64.675781 993.085938 L 69.78125 992.320312 C 70.355469 995.316406 71.34375 997.421875 72.714844 998.699219 C 74.152344 999.972656 75.90625 1000.609375 77.945312 1000.609375 C 80.308594 1000.609375 82.316406 999.78125 83.945312 998.058594 C 85.636719 996.371094 86.496094 994.296875 86.496094 991.808594 C 86.496094 989.515625 85.730469 987.601562 84.199219 986.070312 C 82.667969 984.539062 80.691406 983.773438 78.328125 983.773438 C 77.371094 983.773438 76.191406 983.964844 74.757812 984.285156 L 75.394531 979.820312 C 75.714844 979.914062 75.96875 979.949219 76.160156 979.949219 C 78.363281 979.949219 80.308594 979.40625 82.03125 978.289062 C 83.816406 977.109375 84.710938 975.324219 84.710938 972.933594 C 84.710938 971.082031 84.070312 969.550781 82.796875 968.339844 C 81.519531 967.066406 79.859375 966.429688 77.820312 966.429688 C 75.839844 966.429688 74.183594 967.066406 72.84375 968.339844 C 71.566406 969.617188 70.707031 971.496094 70.289062 973.953125 L 65.1875 973.058594 C 65.855469 969.679688 67.292969 967.035156 69.523438 965.152344 C 71.726562 963.207031 74.4375 962.21875 77.691406 962.21875 C 79.988281 962.21875 82.0625 962.730469 83.945312 963.75 C 85.890625 964.707031 87.390625 966.011719 88.410156 967.703125 C 89.429688 969.425781 89.941406 971.210938 89.941406 973.058594 C 89.941406 974.847656 89.429688 976.503906 88.410156 978.035156 C 87.453125 979.5 86.050781 980.648438 84.199219 981.476562 C 86.65625 982.085938 88.570312 983.265625 89.941406 985.050781 C 91.28125 986.835938 91.984375 989.097656 91.984375 991.808594 C 91.984375 995.382812 90.644531 998.441406 88.027344 1000.992188 C 85.378906 1003.542969 82.03125 1004.820312 77.945312 1004.820312 C 74.277344 1004.820312 71.214844 1003.765625 68.757812 1001.632812 C 66.367188 999.429688 64.996094 996.59375 64.675781 993.085938 Z M 64.675781 993.085938 "/>
<path style=" stroke:none;fill-rule:nonzero;fill:rgb(74.509804%,74.509804%,74.509804%);fill-opacity:1;" d="M 97.039062 983.519531 C 97.039062 978.609375 97.546875 974.65625 98.570312 971.65625 C 99.589844 968.691406 101.058594 966.394531 103.035156 964.769531 C 105.078125 963.078125 107.566406 962.21875 110.5625 962.21875 C 112.859375 962.21875 114.804688 962.695312 116.433594 963.621094 C 118.125 964.484375 119.527344 965.757812 120.644531 967.449219 C 121.730469 969.171875 122.589844 971.242188 123.195312 973.699219 C 123.867188 976.089844 124.21875 979.375 124.21875 983.519531 C 124.21875 988.367188 123.707031 992.320312 122.6875 995.382812 C 121.664062 998.378906 120.132812 1000.707031 118.09375 1002.394531 C 116.113281 1004.023438 113.625 1004.820312 110.5625 1004.820312 C 106.542969 1004.820312 103.417969 1003.382812 101.121094 1000.484375 C 98.378906 997.007812 97.039062 991.363281 97.039062 983.519531 Z M 102.269531 983.519531 C 102.269531 990.34375 103.066406 994.871094 104.695312 997.167969 C 106.289062 999.460938 108.265625 1000.609375 110.5625 1000.609375 C 112.925781 1000.609375 114.933594 999.460938 116.5625 997.167969 C 118.15625 994.871094 118.984375 990.34375 118.984375 983.519531 C 118.984375 976.632812 118.15625 972.105469 116.5625 969.871094 C 114.933594 967.574219 112.925781 966.429688 110.5625 966.429688 C 108.171875 966.429688 106.289062 967.449219 104.949219 969.488281 C 103.164062 972.039062 102.269531 976.726562 102.269531 983.519531 Z M 102.269531 983.519531 "/>
<path style="fill:none;stroke-width:0.75;stroke-linecap:butt;stroke-linejoin:miter;stroke:rgb(74.509804%,74.509804%,74.509804%);stroke-opacity:1;stroke-miterlimit:10;" d="M 1 185.000028 L 5 185.000028 " transform="matrix(6.125,0,0,6.122283,3.0625,3.061141)"/>
<path style=" stroke:none;fill-rule:nonzero;fill:rgb(74.509804%,74.509804%,74.509804%);fill-opacity:1;" d="M 44.660156 1138.488281 L 44.660156 1133.386719 L 60.484375 1133.386719 L 60.484375 1138.488281 Z M 44.660156 1138.488281 "/>
<path style=" stroke:none;fill-rule:nonzero;fill:rgb(74.509804%,74.509804%,74.509804%);fill-opacity:1;" d="M 64.675781 1140.019531 L 69.78125 1139.253906 C 70.355469 1142.253906 71.34375 1144.355469 72.714844 1145.632812 C 74.152344 1146.90625 75.90625 1147.546875 77.945312 1147.546875 C 80.308594 1147.546875 82.316406 1146.714844 83.945312 1144.996094 C 85.636719 1143.304688 86.496094 1141.230469 86.496094 1138.746094 C 86.496094 1136.449219 85.730469 1134.535156 84.199219 1133.003906 C 82.667969 1131.472656 80.691406 1130.710938 78.328125 1130.710938 C 77.371094 1130.710938 76.191406 1130.898438 74.757812 1131.21875 L 75.394531 1126.753906 C 75.714844 1126.851562 75.96875 1126.882812 76.160156 1126.882812 C 78.363281 1126.882812 80.308594 1126.339844 82.03125 1125.222656 C 83.816406 1124.042969 84.710938 1122.257812 84.710938 1119.867188 C 84.710938 1118.019531 84.070312 1116.488281 82.796875 1115.277344 C 81.519531 1114 79.859375 1113.363281 77.820312 1113.363281 C 75.839844 1113.363281 74.183594 1114 72.84375 1115.277344 C 71.566406 1116.550781 70.707031 1118.433594 70.289062 1120.886719 L 65.1875 1119.996094 C 65.855469 1116.613281 67.292969 1113.96875 69.523438 1112.085938 C 71.726562 1110.140625 74.4375 1109.152344 77.691406 1109.152344 C 79.988281 1109.152344 82.0625 1109.664062 83.945312 1110.683594 C 85.890625 1111.640625 87.390625 1112.949219 88.410156 1114.636719 C 89.429688 1116.359375 89.941406 1118.144531 89.941406 1119.996094 C 89.941406 1121.78125 89.429688 1123.4375 88.410156 1124.96875 C 87.453125 1126.4375 86.050781 1127.585938 84.199219 1128.414062 C 86.65625 1129.019531 88.570312 1130.199219 89.941406 1131.984375 C 91.28125 1133.769531 91.984375 1136.035156 91.984375 1138.746094 C 91.984375 1142.316406 90.644531 1145.378906 88.027344 1147.929688 C 85.378906 1150.480469 82.03125 1151.753906 77.945312 1151.753906 C 74.277344 1151.753906 71.214844 1150.703125 68.757812 1148.566406 C 66.367188 1146.367188 64.996094 1143.527344 64.675781 1140.019531 Z M 64.675781 1140.019531 "/>
<path style=" stroke:none;fill-rule:nonzero;fill:rgb(74.509804%,74.509804%,74.509804%);fill-opacity:1;" d="M 123.578125 1119.613281 L 118.476562 1119.996094 C 118.027344 1117.953125 117.390625 1116.488281 116.5625 1115.53125 C 115.1875 1114.097656 113.5 1113.363281 111.457031 1113.363281 C 109.828125 1113.363281 108.394531 1113.839844 107.117188 1114.765625 C 105.492188 1115.976562 104.214844 1117.699219 103.289062 1119.996094 C 102.332031 1122.226562 101.886719 1125.414062 101.886719 1129.5625 C 103.066406 1127.710938 104.566406 1126.308594 106.351562 1125.351562 C 108.140625 1124.425781 109.988281 1123.949219 111.96875 1123.949219 C 115.347656 1123.949219 118.25 1125.222656 120.644531 1127.777344 C 123.101562 1130.261719 124.34375 1133.484375 124.34375 1137.46875 C 124.34375 1140.117188 123.738281 1142.570312 122.558594 1144.867188 C 121.441406 1147.097656 119.910156 1148.789062 117.964844 1149.96875 C 115.988281 1151.148438 113.753906 1151.753906 111.203125 1151.753906 C 106.925781 1151.753906 103.449219 1150.191406 100.738281 1147.035156 C 98.089844 1143.910156 96.78125 1138.710938 96.78125 1131.472656 C 96.78125 1123.503906 98.25 1117.667969 101.25 1114 C 103.863281 1110.78125 107.375 1109.152344 111.710938 1109.152344 C 115.03125 1109.152344 117.710938 1110.109375 119.75 1111.960938 C 121.855469 1113.746094 123.132812 1116.296875 123.578125 1119.613281 Z M 102.652344 1137.46875 C 102.652344 1139.253906 103.035156 1140.976562 103.800781 1142.570312 C 104.566406 1144.195312 105.585938 1145.441406 106.863281 1146.269531 C 108.203125 1147.128906 109.671875 1147.546875 111.203125 1147.546875 C 113.308594 1147.546875 115.15625 1146.714844 116.6875 1144.996094 C 118.285156 1143.207031 119.113281 1140.785156 119.113281 1137.722656 C 119.113281 1134.917969 118.347656 1132.71875 116.816406 1131.089844 C 115.285156 1129.402344 113.308594 1128.539062 110.945312 1128.539062 C 108.648438 1128.539062 106.671875 1129.402344 105.078125 1131.089844 C 103.449219 1132.71875 102.652344 1134.855469 102.652344 1137.46875 Z M 102.652344 1137.46875 "/>
<path style="fill:none;stroke-width:0.75;stroke-linecap:butt;stroke-linejoin:miter;stroke:rgb(74.509804%,74.509804%,74.509804%);stroke-opacity:1;stroke-miterlimit:10;" d="M 1 208.999834 L 5 208.999834 " transform="matrix(6.125,0,0,6.122283,3.0625,3.061141)"/>
<path style=" stroke:none;fill-rule:nonzero;fill:rgb(74.509804%,74.509804%,74.509804%);fill-opacity:1;" d="M 44.660156 1285.425781 L 44.660156 1280.324219 L 60.484375 1280.324219 L 60.484375 1285.425781 Z M 44.660156 1285.425781 "/>
<path style=" stroke:none;fill-rule:nonzero;fill:rgb(74.509804%,74.509804%,74.509804%);fill-opacity:1;" d="M 81.007812 1297.925781 L 81.007812 1287.976562 L 63.015625 1287.976562 L 63.015625 1283.257812 L 82.03125 1256.34375 L 86.113281 1256.34375 L 86.113281 1283.257812 L 91.855469 1283.257812 L 91.855469 1287.976562 L 86.113281 1287.976562 L 86.113281 1297.925781 Z M 81.007812 1283.257812 L 81.007812 1264.507812 L 67.992188 1283.257812 Z M 81.007812 1283.257812 "/>
<path style=" stroke:none;fill-rule:nonzero;fill:rgb(74.509804%,74.509804%,74.509804%);fill-opacity:1;" d="M 123.960938 1292.949219 L 123.960938 1297.925781 L 96.398438 1297.925781 C 96.304688 1296.742188 96.464844 1295.5625 96.910156 1294.351562 C 97.675781 1292.503906 98.824219 1290.652344 100.355469 1288.867188 C 101.886719 1287.019531 104.085938 1284.882812 106.992188 1282.492188 C 111.585938 1278.855469 114.648438 1275.953125 116.179688 1273.816406 C 117.773438 1271.617188 118.601562 1269.542969 118.601562 1267.566406 C 118.601562 1265.527344 117.867188 1263.835938 116.433594 1262.464844 C 114.964844 1261.03125 113.050781 1260.296875 110.691406 1260.296875 C 108.296875 1260.296875 106.351562 1261.0625 104.820312 1262.59375 C 103.355469 1264.058594 102.652344 1266.101562 102.652344 1268.714844 L 97.292969 1268.207031 C 97.707031 1264.316406 99.078125 1261.316406 101.375 1259.277344 C 103.738281 1257.171875 106.894531 1256.089844 110.820312 1256.089844 C 114.804688 1256.089844 117.964844 1257.203125 120.261719 1259.40625 C 122.621094 1261.636719 123.835938 1264.378906 123.835938 1267.695312 C 123.835938 1269.320312 123.484375 1270.949219 122.8125 1272.542969 C 122.113281 1274.167969 120.964844 1275.859375 119.367188 1277.644531 C 117.835938 1279.429688 115.222656 1281.917969 111.585938 1285.042969 C 108.523438 1287.59375 106.511719 1289.347656 105.585938 1290.269531 C 104.726562 1291.226562 103.992188 1292.121094 103.417969 1292.949219 Z M 123.960938 1292.949219 "/>
<path style="fill:none;stroke-width:0.75;stroke-linecap:butt;stroke-linejoin:miter;stroke:rgb(74.509804%,74.509804%,74.509804%);stroke-opacity:1;stroke-miterlimit:10;" d="M 1 233.000277 L 5 233.000277 " transform="matrix(6.125,0,0,6.122283,3.0625,3.061141)"/>
<path style=" stroke:none;fill-rule:nonzero;fill:rgb(74.509804%,74.509804%,74.509804%);fill-opacity:1;" d="M 44.660156 1432.359375 L 44.660156 1427.257812 L 60.484375 1427.257812 L 60.484375 1432.359375 Z M 44.660156 1432.359375 "/>
<path style=" stroke:none;fill-rule:nonzero;fill:rgb(74.509804%,74.509804%,74.509804%);fill-opacity:1;" d="M 81.007812 1444.859375 L 81.007812 1434.910156 L 63.015625 1434.910156 L 63.015625 1430.191406 L 82.03125 1403.277344 L 86.113281 1403.277344 L 86.113281 1430.191406 L 91.855469 1430.191406 L 91.855469 1434.910156 L 86.113281 1434.910156 L 86.113281 1444.859375 Z M 81.007812 1430.191406 L 81.007812 1411.441406 L 67.992188 1430.191406 Z M 81.007812 1430.191406 "/>
<path style=" stroke:none;fill-rule:nonzero;fill:rgb(74.509804%,74.509804%,74.509804%);fill-opacity:1;" d="M 104.949219 1422.28125 C 102.8125 1421.515625 101.25 1420.433594 100.226562 1418.964844 C 99.207031 1417.53125 98.695312 1415.777344 98.695312 1413.738281 C 98.695312 1410.773438 99.75 1408.253906 101.886719 1406.210938 C 104.085938 1404.105469 106.992188 1403.023438 110.5625 1403.023438 C 114.199219 1403.023438 117.136719 1404.105469 119.367188 1406.210938 C 121.570312 1408.347656 122.6875 1410.929688 122.6875 1413.992188 C 122.6875 1415.875 122.175781 1417.53125 121.15625 1418.964844 C 120.132812 1420.433594 118.601562 1421.515625 116.5625 1422.28125 C 119.113281 1423.144531 121.058594 1424.515625 122.429688 1426.363281 C 123.769531 1428.148438 124.472656 1430.382812 124.472656 1432.996094 C 124.472656 1436.566406 123.195312 1439.597656 120.644531 1442.050781 C 118.09375 1444.445312 114.773438 1445.625 110.691406 1445.625 C 106.609375 1445.625 103.289062 1444.414062 100.738281 1441.925781 C 98.1875 1439.46875 96.910156 1436.441406 96.910156 1432.871094 C 96.910156 1430.160156 97.578125 1427.894531 98.953125 1426.109375 C 100.386719 1424.257812 102.398438 1422.984375 104.949219 1422.28125 Z M 103.929688 1413.609375 C 103.929688 1415.585938 104.503906 1417.179688 105.714844 1418.457031 C 106.992188 1419.730469 108.648438 1420.371094 110.691406 1420.371094 C 112.636719 1420.371094 114.265625 1419.730469 115.539062 1418.457031 C 116.816406 1417.179688 117.453125 1415.648438 117.453125 1413.863281 C 117.453125 1412.015625 116.816406 1410.421875 115.539062 1409.144531 C 114.265625 1407.871094 112.636719 1407.230469 110.691406 1407.230469 C 108.714844 1407.230469 107.117188 1407.871094 105.84375 1409.144531 C 104.566406 1410.421875 103.929688 1411.917969 103.929688 1413.609375 Z M 102.269531 1432.871094 C 102.269531 1434.335938 102.589844 1435.738281 103.289062 1437.078125 C 103.960938 1438.449219 104.980469 1439.5 106.351562 1440.265625 C 107.691406 1441.03125 109.160156 1441.414062 110.691406 1441.414062 C 113.148438 1441.414062 115.1875 1440.648438 116.816406 1439.117188 C 118.410156 1437.523438 119.242188 1435.484375 119.242188 1432.996094 C 119.242188 1430.542969 118.378906 1428.5 116.6875 1426.875 C 115.0625 1425.28125 113.019531 1424.449219 110.5625 1424.449219 C 108.171875 1424.449219 106.160156 1425.28125 104.566406 1426.875 C 103.035156 1428.5 102.269531 1430.507812 102.269531 1432.871094 Z M 102.269531 1432.871094 "/>
<path style="fill:none;stroke-width:0.75;stroke-linecap:butt;stroke-linejoin:miter;stroke:rgb(96.078431%,29.411765%,21.960784%);stroke-opacity:1;stroke-miterlimit:10;" d="M 1 17.000111 L 5 17.000111 " transform="matrix(6.125,0,0,6.122283,3.0625,3.061141)"/>
<path style=" stroke:none;fill-rule:nonzero;fill:rgb(96.078431%,29.411765%,21.960784%);fill-opacity:1;" d="M 77.964844 97.191406 L 72.863281 97.574219 C 72.414062 95.53125 71.777344 94.066406 70.949219 93.109375 C 69.574219 91.675781 67.886719 90.941406 65.84375 90.941406 C 64.214844 90.941406 62.78125 91.417969 61.503906 92.34375 C 59.878906 93.554688 58.601562 95.277344 57.675781 97.574219 C 56.71875 99.804688 56.273438 102.996094 56.273438 107.140625 C 57.453125 105.289062 58.953125 103.886719 60.738281 102.929688 C 62.527344 102.007812 64.375 101.527344 66.355469 101.527344 C 69.734375 101.527344 72.636719 102.804688 75.03125 105.355469 C 77.488281 107.839844 78.730469 111.0625 78.730469 115.046875 C 78.730469 117.695312 78.125 120.148438 76.945312 122.445312 C 75.828125 124.675781 74.296875 126.367188 72.351562 127.546875 C 70.375 128.726562 68.140625 129.332031 65.589844 129.332031 C 61.3125 129.332031 57.835938 127.769531 55.125 124.613281 C 52.476562 121.488281 51.167969 116.292969 51.167969 109.054688 C 51.167969 101.082031 52.636719 95.246094 55.636719 91.578125 C 58.25 88.359375 61.761719 86.730469 66.097656 86.730469 C 69.417969 86.730469 72.097656 87.6875 74.136719 89.539062 C 76.242188 91.324219 77.519531 93.875 77.964844 97.191406 Z M 57.039062 115.046875 C 57.039062 116.832031 57.421875 118.554688 58.1875 120.148438 C 58.953125 121.777344 59.972656 123.019531 61.25 123.847656 C 62.589844 124.710938 64.058594 125.125 65.589844 125.125 C 67.695312 125.125 69.542969 124.296875 71.074219 122.574219 C 72.671875 120.789062 73.5 118.363281 73.5 115.304688 C 73.5 112.496094 72.734375 110.296875 71.203125 108.671875 C 69.671875 106.980469 67.695312 106.121094 65.332031 106.121094 C 63.035156 106.121094 61.058594 106.980469 59.464844 108.671875 C 57.835938 110.296875 57.039062 112.433594 57.039062 115.046875 Z M 57.039062 115.046875 "/>
<path style="fill:none;stroke-width:0.75;stroke-linecap:butt;stroke-linejoin:miter;stroke:rgb(96.078431%,29.411765%,21.960784%);stroke-opacity:1;stroke-miterlimit:10;" d="M 1 40.999917 L 1 1.000028 " transform="matrix(6.125,0,0,6.122283,3.0625,3.061141)"/>
<path style="fill:none;stroke-width:0.75;stroke-linecap:butt;stroke-linejoin:miter;stroke:rgb(74.509804%,74.509804%,74.509804%);stroke-opacity:1;stroke-miterlimit:10;" d="M 1 241 L 1 40.999917 L 5 40.999917 " transform="matrix(6.125,0,0,6.122283,3.0625,3.061141)"/>
</g>
</svg>
