<?xml version="1.0" encoding="UTF-8"?>
<svg xmlns="http://www.w3.org/2000/svg" xmlns:xlink="http://www.w3.org/1999/xlink" width="1000px" height="108px" viewBox="0 0 996 108" version="1.1">
<g id="surface1">
<path style="fill:none;stroke-width:0.75;stroke-linecap:butt;stroke-linejoin:miter;stroke:rgb(74.509804%,74.509804%,74.509804%);stroke-opacity:1;stroke-miterlimit:10;" d="M 5.998533 5.289835 L 5.998533 1.288692 L 201.999592 1.288692 L 201.999592 5.289835 " transform="matrix(4.208762,0,0,4.212663,14.554382,2.106332)"/>
<path style=" stroke:none;fill-rule:nonzero;fill:rgb(74.509804%,74.509804%,74.509804%);fill-opacity:1;" d="M 831.953125 67.402344 L 828.269531 67.402344 L 828.269531 43.847656 C 827.386719 44.679688 826.199219 45.515625 824.753906 46.398438 C 823.347656 47.230469 822.050781 47.847656 820.890625 48.242188 L 820.890625 44.726562 C 822.933594 43.738281 824.707031 42.570312 826.246094 41.214844 C 827.828125 39.804688 828.921875 38.460938 829.585938 37.171875 L 831.953125 37.171875 Z M 831.953125 67.402344 "/>
<path style=" stroke:none;fill-rule:nonzero;fill:rgb(74.509804%,74.509804%,74.509804%);fill-opacity:1;" d="M 841.484375 52.546875 C 841.484375 48.988281 841.839844 46.113281 842.539062 43.933594 C 843.285156 41.785156 844.382812 40.109375 845.789062 38.921875 C 847.234375 37.761719 849.082031 37.171875 851.320312 37.171875 C 852.902344 37.171875 854.308594 37.496094 855.535156 38.136719 C 856.765625 38.792969 857.753906 39.714844 858.523438 40.949219 C 859.335938 42.179688 859.953125 43.671875 860.367188 45.433594 C 860.828125 47.183594 861.066406 49.5625 861.066406 52.546875 C 861.066406 56.0625 860.714844 58.917969 860.015625 61.074219 C 859.308594 63.25 858.214844 64.941406 856.765625 66.167969 C 855.296875 67.355469 853.472656 67.929688 851.320312 67.929688 C 848.375 67.929688 846.09375 66.875 844.472656 64.765625 C 842.476562 62.261719 841.484375 58.171875 841.484375 52.546875 Z M 845.265625 52.546875 C 845.265625 57.472656 845.835938 60.769531 847.019531 62.390625 C 848.183594 64.039062 849.609375 64.851562 851.320312 64.851562 C 853.011719 64.851562 854.414062 64.039062 855.535156 62.390625 C 856.703125 60.769531 857.292969 57.472656 857.292969 52.546875 C 857.292969 47.582031 856.703125 44.289062 855.535156 42.707031 C 854.414062 41.078125 852.988281 40.246094 851.238281 40.246094 C 849.523438 40.246094 848.183594 40.949219 847.195312 42.355469 C 845.898438 44.179688 845.265625 47.582031 845.265625 52.546875 Z M 845.265625 52.546875 "/>
<path style=" stroke:none;fill-rule:nonzero;fill:rgb(74.509804%,74.509804%,74.509804%);fill-opacity:1;" d="M 864.890625 52.546875 C 864.890625 48.988281 865.242188 46.113281 865.949219 43.933594 C 866.695312 41.785156 867.789062 40.109375 869.199219 38.921875 C 870.644531 37.761719 872.492188 37.171875 874.730469 37.171875 C 876.3125 37.171875 877.710938 37.496094 878.945312 38.136719 C 880.167969 38.792969 881.160156 39.714844 881.925781 40.949219 C 882.742188 42.179688 883.351562 43.671875 883.773438 45.433594 C 884.234375 47.183594 884.476562 49.5625 884.476562 52.546875 C 884.476562 56.0625 884.125 58.917969 883.425781 61.074219 C 882.71875 63.25 881.621094 64.941406 880.167969 66.167969 C 878.703125 67.355469 876.882812 67.929688 874.730469 67.929688 C 871.785156 67.929688 869.503906 66.875 867.882812 64.765625 C 865.882812 62.261719 864.890625 58.171875 864.890625 52.546875 Z M 868.671875 52.546875 C 868.671875 57.472656 869.242188 60.769531 870.421875 62.390625 C 871.589844 64.039062 873.015625 64.851562 874.730469 64.851562 C 876.421875 64.851562 877.824219 64.039062 878.945312 62.390625 C 880.105469 60.769531 880.703125 57.472656 880.703125 52.546875 C 880.703125 47.582031 880.105469 44.289062 878.945312 42.707031 C 877.824219 41.078125 876.394531 40.246094 874.636719 40.246094 C 872.925781 40.246094 871.589844 40.949219 870.597656 42.355469 C 869.308594 44.179688 868.671875 47.582031 868.671875 52.546875 Z M 868.671875 52.546875 "/>
<path style=" stroke:none;fill-rule:nonzero;fill:rgb(74.509804%,74.509804%,74.509804%);fill-opacity:1;" d="M 900.699219 44.464844 C 900.699219 42.355469 901.222656 40.550781 902.273438 39.015625 C 903.378906 37.496094 904.953125 36.730469 907.019531 36.730469 C 908.882812 36.730469 910.445312 37.410156 911.671875 38.746094 C 912.902344 40.109375 913.519531 42.089844 913.519531 44.726562 C 913.519531 47.320312 912.902344 49.292969 911.671875 50.703125 C 910.445312 52.066406 908.882812 52.726562 907.019531 52.726562 C 905.199219 52.726562 903.683594 52.066406 902.449219 50.703125 C 901.269531 49.292969 900.699219 47.230469 900.699219 44.464844 Z M 907.105469 39.28125 C 906.164062 39.28125 905.394531 39.695312 904.824219 40.507812 C 904.234375 41.277344 903.949219 42.753906 903.949219 44.902344 C 903.949219 46.835938 904.234375 48.222656 904.824219 49.035156 C 905.457031 49.800781 906.230469 50.175781 907.105469 50.175781 C 908.027344 50.175781 908.796875 49.78125 909.386719 48.945312 C 910.023438 48.132812 910.355469 46.660156 910.355469 44.550781 C 910.355469 42.617188 910.023438 41.277344 909.386719 40.507812 C 908.796875 39.695312 908.027344 39.28125 907.105469 39.28125 Z M 907.105469 68.546875 L 923.613281 36.730469 L 926.597656 36.730469 L 910.179688 68.546875 Z M 920.191406 60.375 C 920.191406 58.21875 920.714844 56.375 921.773438 54.835938 C 922.871094 53.320312 924.453125 52.546875 926.511719 52.546875 C 928.382812 52.546875 929.9375 53.226562 931.167969 54.570312 C 932.394531 55.933594 933.011719 57.90625 933.011719 60.546875 C 933.011719 63.136719 932.394531 65.117188 931.167969 66.527344 C 929.9375 67.863281 928.382812 68.546875 926.511719 68.546875 C 924.691406 68.546875 923.175781 67.863281 921.949219 66.527344 C 920.761719 65.117188 920.191406 63.074219 920.191406 60.375 Z M 926.597656 55.097656 C 925.65625 55.097656 924.867188 55.511719 924.230469 56.328125 C 923.632812 57.160156 923.347656 58.613281 923.347656 60.722656 C 923.347656 62.613281 923.632812 63.949219 924.230469 64.765625 C 924.867188 65.597656 925.65625 65.996094 926.597656 65.996094 C 927.523438 65.996094 928.289062 65.597656 928.886719 64.765625 C 929.523438 63.949219 929.847656 62.484375 929.847656 60.375 C 929.847656 58.4375 929.523438 57.097656 928.886719 56.328125 C 928.289062 55.511719 927.523438 55.097656 926.597656 55.097656 Z M 926.597656 55.097656 "/>
<path style=" stroke:none;fill-rule:nonzero;fill:rgb(74.509804%,74.509804%,74.509804%);fill-opacity:1;" d="M 26.832031 52.546875 C 26.832031 48.988281 27.183594 46.113281 27.890625 43.933594 C 28.636719 41.785156 29.730469 40.109375 31.136719 38.921875 C 32.582031 37.761719 34.425781 37.171875 36.667969 37.171875 C 38.246094 37.171875 39.652344 37.496094 40.882812 38.136719 C 42.109375 38.792969 43.101562 39.714844 43.867188 40.949219 C 44.675781 42.179688 45.292969 43.671875 45.707031 45.433594 C 46.175781 47.183594 46.414062 49.5625 46.414062 52.546875 C 46.414062 56.0625 46.066406 58.917969 45.359375 61.074219 C 44.65625 63.25 43.5625 64.941406 42.109375 66.167969 C 40.636719 67.355469 38.816406 67.929688 36.667969 67.929688 C 33.726562 67.929688 31.441406 66.875 29.816406 64.765625 C 27.816406 62.261719 26.832031 58.171875 26.832031 52.546875 Z M 30.605469 52.546875 C 30.605469 57.472656 31.175781 60.769531 32.363281 62.390625 C 33.53125 64.039062 34.957031 64.851562 36.667969 64.851562 C 38.355469 64.851562 39.761719 64.039062 40.882812 62.390625 C 42.042969 60.769531 42.640625 57.472656 42.640625 52.546875 C 42.640625 47.582031 42.042969 44.289062 40.882812 42.707031 C 39.761719 41.078125 38.335938 40.246094 36.578125 40.246094 C 34.867188 40.246094 33.53125 40.949219 32.539062 42.355469 C 31.242188 44.179688 30.605469 47.582031 30.605469 52.546875 Z M 30.605469 52.546875 "/>
<path style=" stroke:none;fill-rule:nonzero;fill:rgb(74.509804%,74.509804%,74.509804%);fill-opacity:1;" d="M 354.34375 67.402344 L 354.34375 60.199219 L 341.257812 60.199219 L 341.257812 56.765625 L 355.046875 37.253906 L 358.035156 37.253906 L 358.035156 56.765625 L 362.066406 56.765625 L 362.066406 60.199219 L 358.035156 60.199219 L 358.035156 67.402344 Z M 354.34375 56.765625 L 354.34375 43.234375 L 344.859375 56.765625 Z M 354.34375 56.765625 "/>
<path style=" stroke:none;fill-rule:nonzero;fill:rgb(74.509804%,74.509804%,74.509804%);fill-opacity:1;" d="M 365.894531 52.546875 C 365.894531 48.988281 366.25 46.113281 366.949219 43.933594 C 367.695312 41.785156 368.792969 40.109375 370.199219 38.921875 C 371.644531 37.761719 373.492188 37.171875 375.730469 37.171875 C 377.3125 37.171875 378.71875 37.496094 379.945312 38.136719 C 381.175781 38.792969 382.164062 39.714844 382.933594 40.949219 C 383.746094 42.179688 384.363281 43.671875 384.777344 45.433594 C 385.238281 47.183594 385.476562 49.5625 385.476562 52.546875 C 385.476562 56.0625 385.125 58.917969 384.425781 61.074219 C 383.71875 63.25 382.625 64.941406 381.175781 66.167969 C 379.707031 67.355469 377.882812 67.929688 375.730469 67.929688 C 372.785156 67.929688 370.503906 66.875 368.882812 64.765625 C 366.886719 62.261719 365.894531 58.171875 365.894531 52.546875 Z M 369.675781 52.546875 C 369.675781 57.472656 370.246094 60.769531 371.429688 62.390625 C 372.59375 64.039062 374.019531 64.851562 375.730469 64.851562 C 377.421875 64.851562 378.824219 64.039062 379.945312 62.390625 C 381.113281 60.769531 381.703125 57.472656 381.703125 52.546875 C 381.703125 47.582031 381.113281 44.289062 379.945312 42.707031 C 378.824219 41.078125 377.398438 40.246094 375.644531 40.246094 C 373.933594 40.246094 372.59375 40.949219 371.605469 42.355469 C 370.308594 44.179688 369.675781 47.582031 369.675781 52.546875 Z M 369.675781 52.546875 "/>
<path style=" stroke:none;fill-rule:nonzero;fill:rgb(74.509804%,74.509804%,74.509804%);fill-opacity:1;" d="M 529.980469 44.640625 L 526.292969 44.902344 C 525.988281 43.5 525.546875 42.441406 524.976562 41.738281 C 523.925781 40.683594 522.652344 40.15625 521.199219 40.15625 C 520.015625 40.15625 519.007812 40.507812 518.128906 41.214844 C 516.941406 42.042969 516.019531 43.277344 515.320312 44.902344 C 514.660156 46.550781 514.355469 48.859375 514.355469 51.84375 C 515.230469 50.507812 516.304688 49.515625 517.601562 48.859375 C 518.875 48.222656 520.234375 47.890625 521.640625 47.890625 C 524.097656 47.890625 526.160156 48.8125 527.875 50.617188 C 529.628906 52.441406 530.507812 54.792969 530.507812 57.648438 C 530.507812 59.535156 530.089844 61.296875 529.28125 62.917969 C 528.507812 64.5 527.394531 65.734375 525.941406 66.609375 C 524.539062 67.492188 522.914062 67.929688 521.117188 67.929688 C 517.996094 67.929688 515.496094 66.785156 513.5625 64.5 C 511.628906 62.21875 510.664062 58.503906 510.664062 53.339844 C 510.664062 47.496094 511.742188 43.234375 513.914062 40.597656 C 515.78125 38.3125 518.300781 37.171875 521.46875 37.171875 C 523.792969 37.171875 525.722656 37.851562 527.257812 39.1875 C 528.773438 40.488281 529.675781 42.3125 529.980469 44.640625 Z M 514.878906 57.648438 C 514.878906 58.945312 515.144531 60.171875 515.667969 61.339844 C 516.242188 62.457031 517.003906 63.339844 517.953125 63.976562 C 518.9375 64.566406 519.96875 64.851562 521.027344 64.851562 C 522.609375 64.851562 523.945312 64.234375 525.066406 63.007812 C 526.160156 61.738281 526.730469 59.996094 526.730469 57.824219 C 526.730469 55.777344 526.160156 54.175781 525.066406 52.988281 C 523.945312 51.761719 522.5625 51.144531 520.933594 51.144531 C 519.222656 51.144531 517.796875 51.761719 516.636719 52.988281 C 515.449219 54.175781 514.878906 55.714844 514.878906 57.648438 Z M 514.878906 57.648438 "/>
<path style=" stroke:none;fill-rule:nonzero;fill:rgb(74.509804%,74.509804%,74.509804%);fill-opacity:1;" d="M 534.246094 52.546875 C 534.246094 48.988281 534.597656 46.113281 535.296875 43.933594 C 536.050781 41.785156 537.144531 40.109375 538.546875 38.921875 C 540 37.761719 541.839844 37.171875 544.085938 37.171875 C 545.660156 37.171875 547.066406 37.496094 548.300781 38.136719 C 549.523438 38.792969 550.515625 39.714844 551.28125 40.949219 C 552.09375 42.179688 552.707031 43.671875 553.125 45.433594 C 553.585938 47.183594 553.832031 49.5625 553.832031 52.546875 C 553.832031 56.0625 553.480469 58.917969 552.773438 61.074219 C 552.074219 63.25 550.976562 64.941406 549.523438 66.167969 C 548.054688 67.355469 546.230469 67.929688 544.085938 67.929688 C 541.140625 67.929688 538.859375 66.875 537.230469 64.765625 C 535.234375 62.261719 534.246094 58.171875 534.246094 52.546875 Z M 538.023438 52.546875 C 538.023438 57.472656 538.59375 60.769531 539.777344 62.390625 C 540.941406 64.039062 542.371094 64.851562 544.085938 64.851562 C 545.769531 64.851562 547.175781 64.039062 548.300781 62.390625 C 549.460938 60.769531 550.050781 57.472656 550.050781 52.546875 C 550.050781 47.582031 549.460938 44.289062 548.300781 42.707031 C 547.175781 41.078125 545.75 40.246094 543.992188 40.246094 C 542.28125 40.246094 540.941406 40.949219 539.953125 42.355469 C 538.65625 44.179688 538.023438 47.582031 538.023438 52.546875 Z M 538.023438 52.546875 "/>
<path style=" stroke:none;fill-rule:nonzero;fill:rgb(74.509804%,74.509804%,74.509804%);fill-opacity:1;" d="M 197.753906 63.886719 L 197.753906 67.402344 L 177.910156 67.402344 C 177.839844 66.527344 177.949219 65.6875 178.261719 64.851562 C 178.789062 63.515625 179.597656 62.199219 180.71875 60.898438 C 181.816406 59.554688 183.441406 58 185.550781 56.238281 C 188.820312 53.558594 191.015625 51.449219 192.132812 49.910156 C 193.300781 48.328125 193.890625 46.835938 193.890625 45.433594 C 193.890625 43.980469 193.363281 42.753906 192.308594 41.738281 C 191.300781 40.746094 189.960938 40.246094 188.265625 40.246094 C 186.445312 40.246094 185.019531 40.773438 183.96875 41.824219 C 182.910156 42.882812 182.386719 44.355469 182.386719 46.21875 L 178.519531 45.867188 C 178.808594 43.011719 179.796875 40.835938 181.511719 39.363281 C 183.195312 37.917969 185.484375 37.171875 188.359375 37.171875 C 191.210938 37.171875 193.492188 37.960938 195.207031 39.539062 C 196.898438 41.125 197.753906 43.121094 197.753906 45.515625 C 197.753906 46.703125 197.488281 47.867188 196.964844 49.035156 C 196.484375 50.222656 195.667969 51.449219 194.503906 52.726562 C 193.382812 54.019531 191.476562 55.796875 188.800781 58.089844 C 186.625 59.914062 185.21875 61.164062 184.585938 61.867188 C 183.921875 62.523438 183.398438 63.183594 183.003906 63.886719 Z M 197.753906 63.886719 "/>
<path style=" stroke:none;fill-rule:nonzero;fill:rgb(74.509804%,74.509804%,74.509804%);fill-opacity:1;" d="M 201.753906 52.546875 C 201.753906 48.988281 202.105469 46.113281 202.8125 43.933594 C 203.558594 41.785156 204.652344 40.109375 206.058594 38.921875 C 207.507812 37.761719 209.347656 37.171875 211.589844 37.171875 C 213.167969 37.171875 214.574219 37.496094 215.804688 38.136719 C 217.03125 38.792969 218.023438 39.714844 218.789062 40.949219 C 219.601562 42.179688 220.214844 43.671875 220.628906 45.433594 C 221.097656 47.183594 221.335938 49.5625 221.335938 52.546875 C 221.335938 56.0625 220.988281 58.917969 220.28125 61.074219 C 219.582031 63.25 218.484375 64.941406 217.03125 66.167969 C 215.558594 67.355469 213.738281 67.929688 211.589844 67.929688 C 208.648438 67.929688 206.363281 66.875 204.738281 64.765625 C 202.742188 62.261719 201.753906 58.171875 201.753906 52.546875 Z M 205.527344 52.546875 C 205.527344 57.472656 206.097656 60.769531 207.285156 62.390625 C 208.453125 64.039062 209.878906 64.851562 211.589844 64.851562 C 213.277344 64.851562 214.683594 64.039062 215.804688 62.390625 C 216.96875 60.769531 217.5625 57.472656 217.5625 52.546875 C 217.5625 47.582031 216.96875 44.289062 215.804688 42.707031 C 214.683594 41.078125 213.257812 40.246094 211.5 40.246094 C 209.789062 40.246094 208.453125 40.949219 207.460938 42.355469 C 206.164062 44.179688 205.527344 47.582031 205.527344 52.546875 Z M 205.527344 52.546875 "/>
<path style="fill:none;stroke-width:0.75;stroke-linecap:butt;stroke-linejoin:miter;stroke:rgb(74.509804%,74.509804%,74.509804%);stroke-opacity:1;stroke-miterlimit:10;" d="M 123.981555 1.288692 L 123.981555 5.580996 " transform="matrix(4.208762,0,0,4.212663,14.554382,2.106332)"/>
<path style="fill:none;stroke-width:0.75;stroke-linecap:butt;stroke-linejoin:miter;stroke:rgb(74.509804%,74.509804%,74.509804%);stroke-opacity:1;stroke-miterlimit:10;" d="M 83.971092 1.288692 L 83.971092 5.580996 " transform="matrix(4.208762,0,0,4.212663,14.554382,2.106332)"/>
<path style="fill:none;stroke-width:0.75;stroke-linecap:butt;stroke-linejoin:miter;stroke:rgb(74.509804%,74.509804%,74.509804%);stroke-opacity:1;stroke-miterlimit:10;" d="M 44.971354 1.288692 L 44.971354 5.580996 " transform="matrix(4.208762,0,0,4.212663,14.554382,2.106332)"/>
<path style=" stroke:none;fill-rule:nonzero;fill:rgb(74.509804%,74.509804%,74.509804%);fill-opacity:1;" d="M 684.898438 51.054688 C 683.316406 50.480469 682.128906 49.691406 681.382812 48.683594 C 680.683594 47.625 680.335938 46.375 680.335938 44.902344 C 680.335938 42.753906 681.125 40.929688 682.699219 39.453125 C 684.28125 37.9375 686.390625 37.171875 689.023438 37.171875 C 691.664062 37.171875 693.769531 37.9375 695.34375 39.453125 C 696.925781 40.992188 697.71875 42.835938 697.71875 44.992188 C 697.71875 46.398438 697.324219 47.625 696.578125 48.683594 C 695.878906 49.691406 694.773438 50.480469 693.328125 51.054688 C 695.125 51.652344 696.511719 52.617188 697.453125 53.953125 C 698.445312 55.316406 698.949219 56.921875 698.949219 58.789062 C 698.949219 61.378906 698.023438 63.535156 696.226562 65.292969 C 694.40625 67.050781 692.011719 67.929688 689.023438 67.929688 C 686.085938 67.929688 683.691406 67.050781 681.824219 65.292969 C 680.003906 63.535156 679.101562 61.339844 679.101562 58.699219 C 679.101562 56.726562 679.589844 55.078125 680.59375 53.78125 C 681.585938 52.441406 683.011719 51.539062 684.898438 51.054688 Z M 684.109375 44.816406 C 684.109375 46.21875 684.570312 47.40625 685.515625 48.328125 C 686.4375 49.210938 687.640625 49.652344 689.113281 49.652344 C 690.519531 49.652344 691.664062 49.210938 692.539062 48.328125 C 693.457031 47.40625 693.945312 46.289062 693.945312 44.992188 C 693.945312 43.648438 693.457031 42.503906 692.539062 41.5625 C 691.589844 40.644531 690.429688 40.15625 689.023438 40.15625 C 687.621094 40.15625 686.4375 40.644531 685.515625 41.5625 C 684.570312 42.441406 684.109375 43.539062 684.109375 44.816406 Z M 682.964844 58.699219 C 682.964844 59.757812 683.1875 60.789062 683.667969 61.777344 C 684.199219 62.789062 684.917969 63.535156 685.867188 64.058594 C 686.851562 64.59375 687.925781 64.851562 689.113281 64.851562 C 690.871094 64.851562 692.296875 64.308594 693.414062 63.183594 C 694.582031 62.023438 695.171875 60.546875 695.171875 58.789062 C 695.171875 57.03125 694.582031 55.582031 693.414062 54.394531 C 692.234375 53.226562 690.734375 52.636719 688.9375 52.636719 C 687.226562 52.636719 685.800781 53.226562 684.632812 54.394531 C 683.519531 55.582031 682.964844 57.011719 682.964844 58.699219 Z M 682.964844 58.699219 "/>
<path style=" stroke:none;fill-rule:nonzero;fill:rgb(74.509804%,74.509804%,74.509804%);fill-opacity:1;" d="M 702.59375 52.546875 C 702.59375 48.988281 702.953125 46.113281 703.652344 43.933594 C 704.398438 41.785156 705.492188 40.109375 706.902344 38.921875 C 708.347656 37.761719 710.195312 37.171875 712.433594 37.171875 C 714.015625 37.171875 715.414062 37.496094 716.648438 38.136719 C 717.878906 38.792969 718.863281 39.714844 719.628906 40.949219 C 720.445312 42.179688 721.0625 43.671875 721.476562 45.433594 C 721.9375 47.183594 722.179688 49.5625 722.179688 52.546875 C 722.179688 56.0625 721.828125 58.917969 721.128906 61.074219 C 720.421875 63.25 719.324219 64.941406 717.878906 66.167969 C 716.40625 67.355469 714.585938 67.929688 712.433594 67.929688 C 709.488281 67.929688 707.207031 66.875 705.585938 64.765625 C 703.585938 62.261719 702.59375 58.171875 702.59375 52.546875 Z M 706.375 52.546875 C 706.375 57.472656 706.945312 60.769531 708.132812 62.390625 C 709.292969 64.039062 710.71875 64.851562 712.433594 64.851562 C 714.125 64.851562 715.523438 64.039062 716.648438 62.390625 C 717.8125 60.769531 718.402344 57.472656 718.402344 52.546875 C 718.402344 47.582031 717.8125 44.289062 716.648438 42.707031 C 715.523438 41.078125 714.097656 40.246094 712.347656 40.246094 C 710.628906 40.246094 709.292969 40.949219 708.308594 42.355469 C 707.011719 44.179688 706.375 47.582031 706.375 52.546875 Z M 706.375 52.546875 "/>
<path style="fill:none;stroke-width:0.75;stroke-linecap:butt;stroke-linejoin:miter;stroke:rgb(74.509804%,74.509804%,74.509804%);stroke-opacity:1;stroke-miterlimit:10;" d="M 162.960873 1.002167 L 162.960873 5.289835 " transform="matrix(4.208762,0,0,4.212663,14.554382,2.106332)"/>
</g>
</svg>
