<?xml version="1.0" encoding="UTF-8"?>
<svg xmlns="http://www.w3.org/2000/svg" xmlns:xlink="http://www.w3.org/1999/xlink" width="200px" height="1000px" viewBox="0 0 200 1000" version="1.1">
<g id="surface1">
<path style="fill:none;stroke-width:0.75;stroke-linecap:butt;stroke-linejoin:miter;stroke:rgb(74.509804%,74.509804%,74.509804%);stroke-opacity:1;stroke-miterlimit:10;" d="M 0.998535 28.879658 L 5.139647 28.879658 " transform="matrix(6.060608,0,0,6.060608,3.0303,3.0303)"/>
<path style=" stroke:none;fill-rule:nonzero;fill:rgb(74.509804%,74.509804%,74.509804%);fill-opacity:1;" d="M 50.828125 173.625 C 50.828125 168.777344 51.285156 164.871094 52.261719 161.90625 C 53.300781 158.878906 54.800781 156.570312 56.816406 155.007812 C 58.804688 153.378906 61.308594 152.53125 64.371094 152.53125 C 66.519531 152.53125 68.4375 153.019531 70.097656 153.964844 C 71.726562 154.84375 73.09375 156.113281 74.136719 157.742188 C 75.242188 159.402344 76.121094 161.453125 76.738281 163.859375 C 77.421875 166.300781 77.78125 169.558594 77.78125 173.625 C 77.78125 178.507812 77.261719 182.414062 76.21875 185.34375 C 75.242188 188.308594 73.777344 190.617188 71.792969 192.246094 C 69.773438 193.808594 67.300781 194.589844 64.371094 194.589844 C 60.367188 194.589844 57.242188 193.222656 54.996094 190.421875 C 52.195312 186.972656 50.828125 181.375 50.828125 173.625 Z M 56.035156 173.625 C 56.035156 180.398438 56.816406 184.921875 58.378906 187.167969 C 60.007812 189.347656 62.027344 190.421875 64.371094 190.421875 C 66.617188 190.421875 68.535156 189.347656 70.097656 187.167969 C 71.726562 184.921875 72.574219 180.398438 72.574219 173.625 C 72.574219 166.855469 71.726562 162.363281 70.097656 160.085938 C 68.535156 157.839844 66.582031 156.699219 64.238281 156.699219 C 61.894531 156.699219 60.007812 157.707031 58.640625 159.695312 C 56.882812 162.234375 56.035156 166.855469 56.035156 173.625 Z M 56.035156 173.625 "/>
<path style=" stroke:none;fill-rule:nonzero;fill:rgb(74.509804%,74.509804%,74.509804%);fill-opacity:1;" d="M 119.679688 193.9375 L 119.679688 190.164062 C 117.757812 193.125 114.992188 194.589844 111.347656 194.589844 C 108.90625 194.589844 106.691406 193.9375 104.707031 192.636719 C 102.6875 191.335938 101.125 189.511719 100.019531 187.167969 C 98.976562 184.824219 98.457031 182.15625 98.457031 179.09375 C 98.457031 176.066406 98.910156 173.332031 99.886719 170.890625 C 100.929688 168.484375 102.425781 166.660156 104.445312 165.421875 C 106.429688 164.121094 108.644531 163.46875 111.085938 163.46875 C 112.910156 163.46875 114.503906 163.859375 115.902344 164.640625 C 117.269531 165.359375 118.410156 166.300781 119.289062 167.507812 L 119.289062 152.792969 L 124.367188 152.792969 L 124.367188 193.9375 Z M 103.664062 179.09375 C 103.664062 182.9375 104.445312 185.800781 106.007812 187.6875 C 107.636719 189.511719 109.554688 190.421875 111.738281 190.421875 C 113.984375 190.421875 115.839844 189.578125 117.335938 187.820312 C 118.898438 185.996094 119.679688 183.230469 119.679688 179.484375 C 119.679688 175.417969 118.898438 172.421875 117.335938 170.5 C 115.773438 168.613281 113.851562 167.636719 111.605469 167.636719 C 109.328125 167.636719 107.441406 168.546875 105.878906 170.371094 C 104.378906 172.195312 103.664062 175.125 103.664062 179.09375 Z M 103.664062 179.09375 "/>
<path style=" stroke:none;fill-rule:nonzero;fill:rgb(74.509804%,74.509804%,74.509804%);fill-opacity:1;" d="M 132.691406 193.9375 L 132.691406 152.792969 L 148.183594 152.792969 C 151.308594 152.792969 153.816406 153.25 155.738281 154.09375 C 157.625 154.875 159.121094 156.144531 160.164062 157.871094 C 161.269531 159.628906 161.855469 161.453125 161.855469 163.339844 C 161.855469 165.097656 161.367188 166.726562 160.425781 168.289062 C 159.449219 169.851562 158.015625 171.121094 156.128906 172.0625 C 158.535156 172.78125 160.425781 174.015625 161.726562 175.839844 C 163.09375 177.597656 163.808594 179.617188 163.808594 181.960938 C 163.808594 183.976562 163.417969 185.800781 162.636719 187.429688 C 161.855469 189.089844 160.847656 190.359375 159.644531 191.203125 C 158.40625 192.082031 156.910156 192.765625 155.085938 193.289062 C 153.261719 193.742188 151.050781 193.9375 148.445312 193.9375 Z M 138.160156 170.109375 L 147.144531 170.109375 C 149.488281 170.109375 151.210938 169.949219 152.351562 169.589844 C 153.71875 169.167969 154.761719 168.484375 155.476562 167.507812 C 156.160156 166.5625 156.519531 165.390625 156.519531 163.992188 C 156.519531 162.625 156.160156 161.386719 155.476562 160.34375 C 154.859375 159.304688 153.945312 158.621094 152.742188 158.261719 C 151.503906 157.839844 149.390625 157.609375 146.363281 157.609375 L 138.160156 157.609375 Z M 138.160156 189.121094 L 148.445312 189.121094 C 150.171875 189.121094 151.441406 189.054688 152.222656 188.859375 C 153.425781 188.699219 154.433594 188.339844 155.214844 187.820312 C 156.0625 187.234375 156.777344 186.453125 157.300781 185.476562 C 157.886719 184.433594 158.210938 183.261719 158.210938 181.960938 C 158.210938 180.496094 157.820312 179.191406 157.039062 178.054688 C 156.257812 176.847656 155.152344 176.035156 153.785156 175.578125 C 152.382812 175.15625 150.332031 174.929688 147.664062 174.929688 L 138.160156 174.929688 Z M 138.160156 189.121094 "/>
<path style="fill:none;stroke-width:0.75;stroke-linecap:butt;stroke-linejoin:miter;stroke:rgb(74.509804%,74.509804%,74.509804%);stroke-opacity:1;stroke-miterlimit:10;" d="M 0.998535 44.138929 L 5.139647 44.138929 " transform="matrix(6.060608,0,0,6.060608,3.0303,3.0303)"/>
<path style=" stroke:none;fill-rule:nonzero;fill:rgb(74.509804%,74.509804%,74.509804%);fill-opacity:1;" d="M 44.246094 272.480469 L 44.246094 267.402344 L 59.742188 267.402344 L 59.742188 272.480469 Z M 44.246094 272.480469 "/>
<path style=" stroke:none;fill-rule:nonzero;fill:rgb(74.509804%,74.509804%,74.509804%);fill-opacity:1;" d="M 90.242188 253.730469 L 85.164062 254.121094 C 84.710938 252.132812 84.125 250.703125 83.34375 249.824219 C 81.941406 248.359375 80.25 247.609375 78.265625 247.609375 C 76.605469 247.609375 75.171875 248.097656 73.96875 249.042969 C 72.40625 250.179688 71.136719 251.875 70.191406 254.121094 C 69.3125 256.300781 68.824219 259.457031 68.757812 263.625 C 69.964844 261.738281 71.429688 260.335938 73.1875 259.457031 C 75.007812 258.613281 76.863281 258.15625 78.785156 258.15625 C 82.171875 258.15625 85.035156 259.425781 87.378906 261.933594 C 89.789062 264.375 91.023438 267.53125 91.023438 271.4375 C 91.023438 274.042969 90.4375 276.484375 89.332031 278.730469 C 88.191406 280.910156 86.628906 282.601562 84.644531 283.808594 C 82.722656 284.914062 80.511719 285.5 78.003906 285.5 C 73.835938 285.5 70.386719 284.003906 67.71875 280.941406 C 65.113281 277.816406 63.8125 272.707031 63.8125 265.578125 C 63.8125 257.601562 65.277344 251.839844 68.238281 248.261719 C 70.746094 245.070312 74.164062 243.441406 78.523438 243.441406 C 81.714844 243.441406 84.382812 244.355469 86.46875 246.175781 C 88.550781 248 89.789062 250.539062 90.242188 253.730469 Z M 69.539062 271.4375 C 69.539062 273.261719 69.867188 274.953125 70.582031 276.515625 C 71.363281 278.078125 72.40625 279.316406 73.707031 280.160156 C 75.074219 280.941406 76.507812 281.332031 78.003906 281.332031 C 80.085938 281.332031 81.910156 280.519531 83.472656 278.859375 C 85.035156 277.132812 85.816406 274.789062 85.816406 271.828125 C 85.816406 268.964844 85.035156 266.71875 83.472656 265.058594 C 81.976562 263.429688 80.085938 262.582031 77.742188 262.582031 C 75.464844 262.582031 73.511719 263.429688 71.882812 265.058594 C 70.320312 266.71875 69.539062 268.832031 69.539062 271.4375 Z M 69.539062 271.4375 "/>
<path style="fill:none;stroke-width:0.75;stroke-linecap:butt;stroke-linejoin:miter;stroke:rgb(74.509804%,74.509804%,74.509804%);stroke-opacity:1;stroke-miterlimit:10;" d="M 0.998535 59.387888 L 5.139647 59.387888 " transform="matrix(6.060608,0,0,6.060608,3.0303,3.0303)"/>
<path style=" stroke:none;fill-rule:nonzero;fill:rgb(74.509804%,74.509804%,74.509804%);fill-opacity:1;" d="M 44.246094 369.449219 L 44.246094 364.371094 L 59.742188 364.371094 L 59.742188 369.449219 Z M 44.246094 369.449219 "/>
<path style=" stroke:none;fill-rule:nonzero;fill:rgb(74.509804%,74.509804%,74.509804%);fill-opacity:1;" d="M 83.082031 381.816406 L 78.003906 381.816406 L 78.003906 349.527344 C 76.765625 350.761719 75.171875 351.96875 73.1875 353.171875 C 71.167969 354.3125 69.410156 355.125 67.847656 355.644531 L 67.847656 350.828125 C 70.710938 349.460938 73.1875 347.832031 75.269531 346.011719 C 77.351562 344.121094 78.851562 342.234375 79.828125 340.410156 L 83.082031 340.410156 Z M 83.082031 381.816406 "/>
<path style=" stroke:none;fill-rule:nonzero;fill:rgb(74.509804%,74.509804%,74.509804%);fill-opacity:1;" d="M 122.65625 377 L 122.65625 381.816406 L 95.3125 381.816406 C 95.3125 380.613281 95.507812 379.441406 95.960938 378.300781 C 96.644531 376.480469 97.71875 374.65625 99.21875 372.832031 C 100.78125 371.011719 102.992188 368.925781 105.859375 366.582031 C 110.351562 362.9375 113.410156 360.039062 114.972656 357.859375 C 116.535156 355.710938 117.316406 353.660156 117.316406 351.738281 C 117.316406 349.753906 116.566406 348.0625 115.101562 346.660156 C 113.703125 345.292969 111.878906 344.578125 109.632812 344.578125 C 107.191406 344.578125 105.238281 345.328125 103.773438 346.792969 C 102.277344 348.289062 101.5625 350.308594 101.5625 352.910156 L 96.351562 352.390625 C 96.679688 348.484375 97.980469 345.554688 100.257812 343.535156 C 102.601562 341.453125 105.726562 340.410156 109.632812 340.410156 C 113.605469 340.410156 116.730469 341.550781 119.007812 343.796875 C 121.351562 345.976562 122.523438 348.679688 122.523438 351.871094 C 122.523438 353.53125 122.167969 355.191406 121.484375 356.816406 C 120.863281 358.378906 119.726562 360.039062 118.097656 361.765625 C 116.535156 363.523438 113.964844 365.933594 110.414062 369.058594 C 107.355469 371.597656 105.402344 373.320312 104.554688 374.265625 C 103.675781 375.144531 102.929688 376.054688 102.34375 377 Z M 122.65625 377 "/>
<path style="fill:none;stroke-width:0.75;stroke-linecap:butt;stroke-linejoin:miter;stroke:rgb(74.509804%,74.509804%,74.509804%);stroke-opacity:1;stroke-miterlimit:10;" d="M 0.998535 74.641359 L 5.139647 74.641359 " transform="matrix(6.060608,0,0,6.060608,3.0303,3.0303)"/>
<path style=" stroke:none;fill-rule:nonzero;fill:rgb(74.509804%,74.509804%,74.509804%);fill-opacity:1;" d="M 44.246094 460.359375 L 44.246094 455.28125 L 59.742188 455.28125 L 59.742188 460.359375 Z M 44.246094 460.359375 "/>
<path style=" stroke:none;fill-rule:nonzero;fill:rgb(74.509804%,74.509804%,74.509804%);fill-opacity:1;" d="M 83.082031 472.726562 L 78.003906 472.726562 L 78.003906 440.4375 C 76.765625 441.671875 75.171875 442.878906 73.1875 444.082031 C 71.167969 445.222656 69.410156 446.035156 67.847656 446.554688 L 67.847656 441.738281 C 70.710938 440.371094 73.1875 438.742188 75.269531 436.921875 C 77.351562 435.03125 78.851562 433.144531 79.828125 431.320312 L 83.082031 431.320312 Z M 83.082031 472.726562 "/>
<path style=" stroke:none;fill-rule:nonzero;fill:rgb(74.509804%,74.509804%,74.509804%);fill-opacity:1;" d="M 103.773438 450.332031 C 101.691406 449.648438 100.128906 448.605469 99.085938 447.207031 C 98.109375 445.742188 97.65625 444.015625 97.65625 442 C 97.65625 438.972656 98.695312 436.464844 100.78125 434.445312 C 102.929688 432.363281 105.859375 431.320312 109.503906 431.320312 C 113.050781 431.320312 115.917969 432.363281 118.097656 434.445312 C 120.246094 436.53125 121.351562 439.101562 121.351562 442.128906 C 121.351562 444.050781 120.832031 445.742188 119.789062 447.207031 C 118.8125 448.605469 117.347656 449.648438 115.363281 450.332031 C 117.871094 451.210938 119.789062 452.546875 121.09375 454.367188 C 122.394531 456.191406 123.046875 458.40625 123.046875 461.007812 C 123.046875 464.492188 121.777344 467.453125 119.269531 469.863281 C 116.828125 472.207031 113.574219 473.378906 109.503906 473.378906 C 105.402344 473.378906 102.113281 472.207031 99.609375 469.863281 C 97.167969 467.453125 95.960938 464.394531 95.960938 460.75 C 95.960938 458.144531 96.613281 455.929688 97.914062 454.109375 C 99.28125 452.285156 101.234375 451.046875 103.773438 450.332031 Z M 102.734375 441.867188 C 102.734375 443.789062 103.320312 445.382812 104.554688 446.6875 C 105.859375 447.921875 107.484375 448.507812 109.503906 448.507812 C 111.488281 448.507812 113.085938 447.921875 114.320312 446.6875 C 115.625 445.382812 116.273438 443.886719 116.273438 442.128906 C 116.273438 440.242188 115.625 438.679688 114.320312 437.441406 C 113.019531 436.140625 111.390625 435.488281 109.503906 435.488281 C 107.582031 435.488281 105.988281 436.140625 104.6875 437.441406 C 103.382812 438.679688 102.734375 440.144531 102.734375 441.867188 Z M 101.171875 460.878906 C 101.171875 462.277344 101.496094 463.679688 102.210938 465.046875 C 102.894531 466.347656 103.90625 467.390625 105.207031 468.171875 C 106.574219 468.886719 108.070312 469.210938 109.632812 469.210938 C 111.976562 469.210938 113.929688 468.496094 115.492188 467 C 117.121094 465.4375 117.96875 463.449219 117.96875 461.007812 C 117.96875 458.601562 117.121094 456.582031 115.492188 455.019531 C 113.832031 453.390625 111.78125 452.546875 109.375 452.546875 C 107.03125 452.546875 105.078125 453.390625 103.515625 455.019531 C 101.953125 456.582031 101.171875 458.535156 101.171875 460.878906 Z M 101.171875 460.878906 "/>
<path style="fill:none;stroke-width:0.75;stroke-linecap:butt;stroke-linejoin:miter;stroke:rgb(74.509804%,74.509804%,74.509804%);stroke-opacity:1;stroke-miterlimit:10;" d="M 0.998535 89.900631 L 5.139647 89.900631 " transform="matrix(6.060608,0,0,6.060608,3.0303,3.0303)"/>
<path style=" stroke:none;fill-rule:nonzero;fill:rgb(74.509804%,74.509804%,74.509804%);fill-opacity:1;" d="M 44.246094 551.265625 L 44.246094 546.1875 L 59.742188 546.1875 L 59.742188 551.265625 Z M 44.246094 551.265625 "/>
<path style=" stroke:none;fill-rule:nonzero;fill:rgb(74.509804%,74.509804%,74.509804%);fill-opacity:1;" d="M 90.632812 558.820312 L 90.632812 563.636719 L 63.289062 563.636719 C 63.289062 562.433594 63.484375 561.261719 63.941406 560.121094 C 64.625 558.296875 65.699219 556.476562 67.195312 554.652344 C 68.757812 552.828125 70.972656 550.746094 73.835938 548.402344 C 78.328125 544.757812 81.390625 541.859375 82.953125 539.679688 C 84.515625 537.53125 85.296875 535.480469 85.296875 533.558594 C 85.296875 531.574219 84.546875 529.878906 83.082031 528.480469 C 81.683594 527.113281 79.859375 526.398438 77.613281 526.398438 C 75.171875 526.398438 73.21875 527.144531 71.753906 528.609375 C 70.257812 530.109375 69.539062 532.125 69.539062 534.730469 L 64.332031 534.210938 C 64.65625 530.304688 65.960938 527.375 68.238281 525.355469 C 70.582031 523.273438 73.707031 522.230469 77.613281 522.230469 C 81.585938 522.230469 84.710938 523.371094 86.988281 525.617188 C 89.332031 527.796875 90.503906 530.5 90.503906 533.6875 C 90.503906 535.347656 90.144531 537.007812 89.460938 538.636719 C 88.84375 540.199219 87.703125 541.859375 86.078125 543.585938 C 84.515625 545.34375 81.941406 547.75 78.394531 550.875 C 75.335938 553.414062 73.382812 555.140625 72.535156 556.085938 C 71.65625 556.964844 70.90625 557.875 70.320312 558.820312 Z M 90.632812 558.820312 "/>
<path style=" stroke:none;fill-rule:nonzero;fill:rgb(74.509804%,74.509804%,74.509804%);fill-opacity:1;" d="M 112.238281 563.636719 L 112.238281 553.742188 L 94.398438 553.742188 L 94.398438 549.183594 L 113.148438 522.492188 L 117.316406 522.492188 L 117.316406 549.183594 L 122.785156 549.183594 L 122.785156 553.742188 L 117.316406 553.742188 L 117.316406 563.636719 Z M 112.238281 549.183594 L 112.238281 530.5625 L 99.347656 549.183594 Z M 112.238281 549.183594 "/>
<path style="fill:none;stroke-width:0.75;stroke-linecap:butt;stroke-linejoin:miter;stroke:rgb(74.509804%,74.509804%,74.509804%);stroke-opacity:1;stroke-miterlimit:10;" d="M 0.998535 105.14959 L 5.139647 105.14959 " transform="matrix(6.060608,0,0,6.060608,3.0303,3.0303)"/>
<path style=" stroke:none;fill-rule:nonzero;fill:rgb(74.509804%,74.509804%,74.509804%);fill-opacity:1;" d="M 44.246094 642.175781 L 44.246094 637.097656 L 59.742188 637.097656 L 59.742188 642.175781 Z M 44.246094 642.175781 "/>
<path style=" stroke:none;fill-rule:nonzero;fill:rgb(74.509804%,74.509804%,74.509804%);fill-opacity:1;" d="M 64.070312 643.609375 L 69.019531 642.957031 C 69.605469 645.820312 70.613281 647.90625 72.015625 649.207031 C 73.382812 650.445312 75.074219 651.03125 77.09375 651.03125 C 79.5 651.03125 81.550781 650.214844 83.210938 648.554688 C 84.839844 646.929688 85.6875 644.878906 85.6875 642.4375 C 85.6875 640.191406 84.90625 638.335938 83.34375 636.835938 C 81.84375 635.273438 79.957031 634.492188 77.613281 634.492188 C 76.636719 634.492188 75.433594 634.6875 73.96875 635.015625 L 74.488281 630.585938 C 74.8125 630.683594 75.140625 630.71875 75.398438 630.71875 C 77.546875 630.71875 79.46875 630.164062 81.128906 629.023438 C 82.855469 627.917969 83.734375 626.160156 83.734375 623.816406 C 83.734375 621.929688 83.082031 620.367188 81.78125 619.128906 C 80.542969 617.925781 78.949219 617.304688 76.960938 617.304688 C 75.042969 617.304688 73.445312 617.957031 72.144531 619.257812 C 70.84375 620.496094 69.964844 622.320312 69.539062 624.726562 L 64.460938 623.816406 C 65.144531 620.429688 66.578125 617.828125 68.757812 616.003906 C 70.90625 614.117188 73.640625 613.140625 76.960938 613.140625 C 79.207031 613.140625 81.257812 613.660156 83.082031 614.703125 C 84.96875 615.679688 86.402344 616.980469 87.378906 618.609375 C 88.421875 620.269531 88.941406 622.058594 88.941406 623.945312 C 88.941406 625.703125 88.453125 627.300781 87.507812 628.765625 C 86.53125 630.261719 85.164062 631.433594 83.34375 632.28125 C 85.75 632.800781 87.640625 633.972656 88.941406 635.796875 C 90.308594 637.554688 91.023438 639.765625 91.023438 642.4375 C 91.023438 646.015625 89.65625 649.042969 86.988281 651.550781 C 84.382812 654.089844 81.0625 655.328125 77.09375 655.328125 C 73.445312 655.328125 70.386719 654.253906 67.976562 652.070312 C 65.632812 649.921875 64.332031 647.089844 64.070312 643.609375 Z M 64.070312 643.609375 "/>
<path style=" stroke:none;fill-rule:nonzero;fill:rgb(74.509804%,74.509804%,74.509804%);fill-opacity:1;" d="M 95.960938 634.234375 C 95.960938 629.382812 96.417969 625.476562 97.394531 622.515625 C 98.4375 619.488281 99.933594 617.175781 101.953125 615.613281 C 103.9375 613.984375 106.445312 613.140625 109.503906 613.140625 C 111.652344 613.140625 113.574219 613.628906 115.234375 614.570312 C 116.859375 615.449219 118.226562 616.71875 119.269531 618.347656 C 120.375 620.007812 121.253906 622.058594 121.875 624.46875 C 122.558594 626.910156 122.914062 630.164062 122.914062 634.234375 C 122.914062 639.117188 122.394531 643.023438 121.351562 645.953125 C 120.375 648.914062 118.910156 651.226562 116.925781 652.851562 C 114.90625 654.414062 112.433594 655.195312 109.503906 655.195312 C 105.5 655.195312 102.375 653.828125 100.128906 651.03125 C 97.328125 647.578125 95.960938 641.980469 95.960938 634.234375 Z M 101.171875 634.234375 C 101.171875 641.003906 101.953125 645.527344 103.515625 647.773438 C 105.140625 649.957031 107.160156 651.03125 109.503906 651.03125 C 111.75 651.03125 113.671875 649.957031 115.234375 647.773438 C 116.859375 645.527344 117.707031 641.003906 117.707031 634.234375 C 117.707031 627.460938 116.859375 622.96875 115.234375 620.691406 C 113.671875 618.445312 111.71875 617.304688 109.375 617.304688 C 107.03125 617.304688 105.140625 618.316406 103.773438 620.300781 C 102.015625 622.839844 101.171875 627.460938 101.171875 634.234375 Z M 101.171875 634.234375 "/>
<path style="fill:none;stroke-width:0.75;stroke-linecap:butt;stroke-linejoin:miter;stroke:rgb(74.509804%,74.509804%,74.509804%);stroke-opacity:1;stroke-miterlimit:10;" d="M 0.998535 120.408862 L 5.139647 120.408862 " transform="matrix(6.060608,0,0,6.060608,3.0303,3.0303)"/>
<path style=" stroke:none;fill-rule:nonzero;fill:rgb(74.509804%,74.509804%,74.509804%);fill-opacity:1;" d="M 44.246094 739.144531 L 44.246094 734.066406 L 59.742188 734.066406 L 59.742188 739.144531 Z M 44.246094 739.144531 "/>
<path style=" stroke:none;fill-rule:nonzero;fill:rgb(74.509804%,74.509804%,74.509804%);fill-opacity:1;" d="M 64.070312 740.578125 L 69.019531 739.925781 C 69.605469 742.792969 70.613281 744.875 72.015625 746.175781 C 73.382812 747.414062 75.074219 748 77.09375 748 C 79.5 748 81.550781 747.1875 83.210938 745.527344 C 84.839844 743.898438 85.6875 741.847656 85.6875 739.40625 C 85.6875 737.160156 84.90625 735.304688 83.34375 733.808594 C 81.84375 732.246094 79.957031 731.464844 77.613281 731.464844 C 76.636719 731.464844 75.433594 731.660156 73.96875 731.984375 L 74.488281 727.558594 C 74.8125 727.65625 75.140625 727.6875 75.398438 727.6875 C 77.546875 727.6875 79.46875 727.132812 81.128906 725.996094 C 82.855469 724.886719 83.734375 723.128906 83.734375 720.785156 C 83.734375 718.898438 83.082031 717.335938 81.78125 716.097656 C 80.542969 714.894531 78.949219 714.277344 76.960938 714.277344 C 75.042969 714.277344 73.445312 714.925781 72.144531 716.230469 C 70.84375 717.464844 69.964844 719.289062 69.539062 721.699219 L 64.460938 720.785156 C 65.144531 717.402344 66.578125 714.796875 68.757812 712.972656 C 70.90625 711.085938 73.640625 710.109375 76.960938 710.109375 C 79.207031 710.109375 81.257812 710.628906 83.082031 711.671875 C 84.96875 712.648438 86.402344 713.949219 87.378906 715.578125 C 88.421875 717.238281 88.941406 719.027344 88.941406 720.917969 C 88.941406 722.675781 88.453125 724.269531 87.507812 725.734375 C 86.53125 727.230469 85.164062 728.402344 83.34375 729.25 C 85.75 729.769531 87.640625 730.941406 88.941406 732.765625 C 90.308594 734.523438 91.023438 736.738281 91.023438 739.40625 C 91.023438 742.988281 89.65625 746.015625 86.988281 748.519531 C 84.382812 751.058594 81.0625 752.296875 77.09375 752.296875 C 73.445312 752.296875 70.386719 751.222656 67.976562 749.042969 C 65.632812 746.894531 64.332031 744.0625 64.070312 740.578125 Z M 64.070312 740.578125 "/>
<path style=" stroke:none;fill-rule:nonzero;fill:rgb(74.509804%,74.509804%,74.509804%);fill-opacity:1;" d="M 122.265625 720.394531 L 117.1875 720.785156 C 116.730469 718.800781 116.144531 717.367188 115.363281 716.488281 C 113.964844 715.023438 112.269531 714.277344 110.285156 714.277344 C 108.625 714.277344 107.191406 714.765625 105.988281 715.707031 C 104.425781 716.847656 103.15625 718.539062 102.210938 720.785156 C 101.332031 722.96875 100.84375 726.125 100.78125 730.292969 C 101.984375 728.402344 103.449219 727.003906 105.207031 726.125 C 107.03125 725.277344 108.886719 724.824219 110.804688 724.824219 C 114.191406 724.824219 117.054688 726.09375 119.398438 728.597656 C 121.808594 731.039062 123.046875 734.199219 123.046875 738.105469 C 123.046875 740.707031 122.460938 743.148438 121.351562 745.394531 C 120.214844 747.578125 118.652344 749.269531 116.664062 750.472656 C 114.746094 751.582031 112.53125 752.167969 110.023438 752.167969 C 105.859375 752.167969 102.40625 750.667969 99.738281 747.609375 C 97.132812 744.484375 95.832031 739.375 95.832031 732.246094 C 95.832031 724.269531 97.296875 718.507812 100.257812 714.925781 C 102.765625 711.738281 106.183594 710.109375 110.546875 710.109375 C 113.734375 710.109375 116.40625 711.019531 118.488281 712.84375 C 120.570312 714.667969 121.808594 717.207031 122.265625 720.394531 Z M 101.5625 738.105469 C 101.5625 739.925781 101.886719 741.621094 102.601562 743.183594 C 103.382812 744.746094 104.425781 745.980469 105.726562 746.828125 C 107.09375 747.609375 108.527344 748 110.023438 748 C 112.109375 748 113.929688 747.1875 115.492188 745.527344 C 117.054688 743.800781 117.835938 741.457031 117.835938 738.496094 C 117.835938 735.628906 117.054688 733.382812 115.492188 731.722656 C 113.996094 730.097656 112.109375 729.25 109.765625 729.25 C 107.484375 729.25 105.53125 730.097656 103.90625 731.722656 C 102.34375 733.382812 101.5625 735.5 101.5625 738.105469 Z M 101.5625 738.105469 "/>
<path style="fill:none;stroke-width:0.75;stroke-linecap:butt;stroke-linejoin:miter;stroke:rgb(74.509804%,74.509804%,74.509804%);stroke-opacity:1;stroke-miterlimit:10;" d="M 0.998535 135.662332 L 5.139647 135.662332 " transform="matrix(6.060608,0,0,6.060608,3.0303,3.0303)"/>
<path style=" stroke:none;fill-rule:nonzero;fill:rgb(74.509804%,74.509804%,74.509804%);fill-opacity:1;" d="M 44.246094 830.054688 L 44.246094 824.976562 L 59.742188 824.976562 L 59.742188 830.054688 Z M 44.246094 830.054688 "/>
<path style=" stroke:none;fill-rule:nonzero;fill:rgb(74.509804%,74.509804%,74.509804%);fill-opacity:1;" d="M 80.21875 842.425781 L 80.21875 832.527344 L 62.378906 832.527344 L 62.378906 827.972656 L 81.128906 801.277344 L 85.296875 801.277344 L 85.296875 827.972656 L 90.765625 827.972656 L 90.765625 832.527344 L 85.296875 832.527344 L 85.296875 842.425781 Z M 80.21875 827.972656 L 80.21875 809.351562 L 67.328125 827.972656 Z M 80.21875 827.972656 "/>
<path style=" stroke:none;fill-rule:nonzero;fill:rgb(74.509804%,74.509804%,74.509804%);fill-opacity:1;" d="M 122.65625 837.605469 L 122.65625 842.425781 L 95.3125 842.425781 C 95.3125 841.21875 95.507812 840.046875 95.960938 838.910156 C 96.644531 837.085938 97.71875 835.261719 99.21875 833.441406 C 100.78125 831.617188 102.992188 829.535156 105.859375 827.191406 C 110.351562 823.542969 113.410156 820.648438 114.972656 818.464844 C 116.535156 816.316406 117.316406 814.265625 117.316406 812.347656 C 117.316406 810.359375 116.566406 808.667969 115.101562 807.269531 C 113.703125 805.902344 111.878906 805.183594 109.632812 805.183594 C 107.191406 805.183594 105.238281 805.933594 103.773438 807.398438 C 102.277344 808.894531 101.5625 810.914062 101.5625 813.519531 L 96.351562 812.996094 C 96.679688 809.089844 97.980469 806.160156 100.257812 804.144531 C 102.601562 802.058594 105.726562 801.019531 109.632812 801.019531 C 113.605469 801.019531 116.730469 802.15625 119.007812 804.402344 C 121.351562 806.585938 122.523438 809.285156 122.523438 812.476562 C 122.523438 814.136719 122.167969 815.796875 121.484375 817.425781 C 120.863281 818.988281 119.726562 820.648438 118.097656 822.371094 C 116.535156 824.128906 113.964844 826.539062 110.414062 829.664062 C 107.355469 832.203125 105.402344 833.929688 104.554688 834.871094 C 103.675781 835.75 102.929688 836.664062 102.34375 837.605469 Z M 122.65625 837.605469 "/>
<path style="fill:none;stroke-width:0.75;stroke-linecap:butt;stroke-linejoin:miter;stroke:rgb(74.509804%,74.509804%,74.509804%);stroke-opacity:1;stroke-miterlimit:10;" d="M 0.998535 150.921604 L 5.139647 150.921604 " transform="matrix(6.060608,0,0,6.060608,3.0303,3.0303)"/>
<path style=" stroke:none;fill-rule:nonzero;fill:rgb(74.509804%,74.509804%,74.509804%);fill-opacity:1;" d="M 44.246094 920.964844 L 44.246094 915.886719 L 59.742188 915.886719 L 59.742188 920.964844 Z M 44.246094 920.964844 "/>
<path style=" stroke:none;fill-rule:nonzero;fill:rgb(74.509804%,74.509804%,74.509804%);fill-opacity:1;" d="M 80.21875 933.332031 L 80.21875 923.4375 L 62.378906 923.4375 L 62.378906 918.878906 L 81.128906 892.1875 L 85.296875 892.1875 L 85.296875 918.878906 L 90.765625 918.878906 L 90.765625 923.4375 L 85.296875 923.4375 L 85.296875 933.332031 Z M 80.21875 918.878906 L 80.21875 900.261719 L 67.328125 918.878906 Z M 80.21875 918.878906 "/>
<path style=" stroke:none;fill-rule:nonzero;fill:rgb(74.509804%,74.509804%,74.509804%);fill-opacity:1;" d="M 103.773438 910.9375 C 101.691406 910.253906 100.128906 909.210938 99.085938 907.8125 C 98.109375 906.347656 97.65625 904.621094 97.65625 902.605469 C 97.65625 899.578125 98.695312 897.070312 100.78125 895.050781 C 102.929688 892.96875 105.859375 891.925781 109.503906 891.925781 C 113.050781 891.925781 115.917969 892.96875 118.097656 895.050781 C 120.246094 897.136719 121.351562 899.707031 121.351562 902.734375 C 121.351562 904.65625 120.832031 906.347656 119.789062 907.8125 C 118.8125 909.210938 117.347656 910.253906 115.363281 910.9375 C 117.871094 911.816406 119.789062 913.152344 121.09375 914.972656 C 122.394531 916.796875 123.046875 919.011719 123.046875 921.613281 C 123.046875 925.097656 121.777344 928.058594 119.269531 930.46875 C 116.828125 932.8125 113.574219 933.984375 109.503906 933.984375 C 105.402344 933.984375 102.113281 932.8125 99.609375 930.46875 C 97.167969 928.058594 95.960938 925 95.960938 921.355469 C 95.960938 918.75 96.613281 916.535156 97.914062 914.714844 C 99.28125 912.890625 101.234375 911.652344 103.773438 910.9375 Z M 102.734375 902.472656 C 102.734375 904.394531 103.320312 905.988281 104.554688 907.292969 C 105.859375 908.527344 107.484375 909.113281 109.503906 909.113281 C 111.488281 909.113281 113.085938 908.527344 114.320312 907.292969 C 115.625 905.988281 116.273438 904.492188 116.273438 902.734375 C 116.273438 900.847656 115.625 899.285156 114.320312 898.046875 C 113.019531 896.746094 111.390625 896.09375 109.503906 896.09375 C 107.582031 896.09375 105.988281 896.746094 104.6875 898.046875 C 103.382812 899.285156 102.734375 900.75 102.734375 902.472656 Z M 101.171875 921.484375 C 101.171875 922.882812 101.496094 924.285156 102.210938 925.652344 C 102.894531 926.953125 103.90625 927.996094 105.207031 928.777344 C 106.574219 929.492188 108.070312 929.816406 109.632812 929.816406 C 111.976562 929.816406 113.929688 929.101562 115.492188 927.605469 C 117.121094 926.042969 117.96875 924.054688 117.96875 921.613281 C 117.96875 919.207031 117.121094 917.1875 115.492188 915.625 C 113.832031 913.996094 111.78125 913.152344 109.375 913.152344 C 107.03125 913.152344 105.078125 913.996094 103.515625 915.625 C 101.953125 917.1875 101.171875 919.140625 101.171875 921.484375 Z M 101.171875 921.484375 "/>
<path style="fill:none;stroke-width:0.75;stroke-linecap:butt;stroke-linejoin:miter;stroke:rgb(96.078431%,29.411765%,21.960784%);stroke-opacity:1;stroke-miterlimit:10;" d="M 0.998535 13.631343 L 5.139647 13.631343 " transform="matrix(6.060608,0,0,6.060608,3.0303,3.0303)"/>
<path style=" stroke:none;fill-rule:nonzero;fill:rgb(96.078431%,29.411765%,21.960784%);fill-opacity:1;" d="M 77.128906 71.910156 L 72.050781 72.300781 C 71.597656 70.316406 71.011719 68.882812 70.230469 68.003906 C 68.828125 66.539062 67.136719 65.789062 65.152344 65.789062 C 63.492188 65.789062 62.058594 66.277344 60.855469 67.222656 C 59.292969 68.363281 58.023438 70.054688 57.078125 72.300781 C 56.199219 74.480469 55.710938 77.640625 55.644531 81.804688 C 56.851562 79.917969 58.316406 78.519531 60.074219 77.640625 C 61.894531 76.792969 63.75 76.335938 65.671875 76.335938 C 69.058594 76.335938 71.921875 77.605469 74.265625 80.113281 C 76.675781 82.554688 77.910156 85.710938 77.910156 89.617188 C 77.910156 92.222656 77.324219 94.664062 76.21875 96.910156 C 75.078125 99.089844 73.515625 100.785156 71.53125 101.988281 C 69.609375 103.09375 67.398438 103.679688 64.890625 103.679688 C 60.722656 103.679688 57.273438 102.183594 54.605469 99.125 C 52 96 50.699219 90.886719 50.699219 83.757812 C 50.699219 75.785156 52.164062 70.023438 55.125 66.441406 C 57.632812 63.25 61.050781 61.625 65.410156 61.625 C 68.601562 61.625 71.269531 62.535156 73.355469 64.359375 C 75.4375 66.179688 76.675781 68.71875 77.128906 71.910156 Z M 56.425781 89.617188 C 56.425781 91.441406 56.753906 93.132812 57.46875 94.695312 C 58.25 96.257812 59.292969 97.496094 60.59375 98.34375 C 61.960938 99.125 63.394531 99.515625 64.890625 99.515625 C 66.972656 99.515625 68.796875 98.699219 70.359375 97.039062 C 71.921875 95.316406 72.703125 92.972656 72.703125 90.007812 C 72.703125 87.144531 71.921875 84.898438 70.359375 83.238281 C 68.863281 81.609375 66.972656 80.765625 64.628906 80.765625 C 62.351562 80.765625 60.398438 81.609375 58.769531 83.238281 C 57.207031 84.898438 56.425781 87.015625 56.425781 89.617188 Z M 56.425781 89.617188 "/>
<path style="fill:none;stroke-width:0.75;stroke-linecap:butt;stroke-linejoin:miter;stroke:rgb(96.078431%,29.411765%,21.960784%);stroke-opacity:1;stroke-miterlimit:10;" d="M 0.998535 28.879658 L 0.998535 3.45871 " transform="matrix(6.060608,0,0,6.060608,3.0303,3.0303)"/>
<path style="fill:none;stroke-width:0.75;stroke-linecap:butt;stroke-linejoin:miter;stroke:rgb(74.509804%,74.509804%,74.509804%);stroke-opacity:1;stroke-miterlimit:10;" d="M 0.998535 155.997286 L 0.998535 28.879658 L 5.139647 28.879658 " transform="matrix(6.060608,0,0,6.060608,3.0303,3.0303)"/>
</g>
</svg>
