<?xml version="1.0" encoding="UTF-8" standalone="no"?>
<svg 
   width="427.91998pt"
   height="144.959991pt"
   viewBox="0 0 427.91998 144.959991"
   version="1.2"
   id="svg39"
   xmlns="http://www.w3.org/2000/svg"
   xmlns:svg="http://www.w3.org/2000/svg" content="%3Cmxfile%20host%3D%22app.diagrams.net%22%20modified%3D%222022-05-24T12%3A55%3A21.952Z%22%20agent%3D%225.0%20(Windows%20NT%2010.0%3B%20Win64%3B%20x64)%20AppleWebKit%2F537.36%20(KHTML%2C%20like%20Gecko)%20Chrome%2F101.0.0.0%20Safari%2F537.36%22%20version%3D%2218.1.1%22%20etag%3D%22Oh1p49czPnbuUSvIcgs0%22%20type%3D%22google%22%3E%3Cdiagram%20id%3D%22oKrARaWS4zLeMPy4i2x1%22%3E3VhNb%2BIwEP01uVb5JhzLR3cvK1XqYdujmwzEqomRYyDsr1%2Bb2EmcQAoR7NKKA%2FHzeGzPe%2BNMbHnTVfGDoXX6iyZALNdOCsubWa7rOEEk%2FiSyV8jYLYElw4mCauAF%2FwEF2grd4ARyw5BTSjhem2BMswxibmCIMbozzRaUmLOu0RI6wEuMSBf9jROelmjkjmr8J%2BBlqmd2wnHZs0LaWO0kT1FCdw3Im1velFHKy6dVMQUig6fjUo57OtFbLYxBxs8ZoOK%2BRWSj9qbWxfd6s%2FGGbUGaO5Y3gSx5lAEUzYxmwmKS8hVRnYxusuRgapemT5gQ1co5ox8wpYSyg1svsmfz%2BaPoKSeEpBPyeg9OFRkhKaAr4GwvTHZ17AMVz7QRdo0xIIjjrekeKQksK3fVDM8Ui4ldW8s1ULRWYrVNFzndsBjUqGasW47cwDUdRb7piCO2BN5xJAKO9g2ztTTIexY8slvz2L3r0v2V%2FWjUvw%2Fbafl3%2B%2B0937QPvX57f9znXzyUEdGthiZq6KDz45r3Ptd8V%2BYJytMqCxqal%2Fgz4hxYdkBkcLTa9dlwLDfEal9l48EX0VHA2wEIHN2eFU3z2b7ZegaGxZ6BncqvyVz%2BTudXKTZ1ct1byoVtBUcDU85uSzs8K%2BUGqMofoqqTh2dXQB2C30H%2BvsIB2mKzIuVSNj%2BVxfXYDG7A5gXJeTfcuf6VuGs7ckberbgLz%2BCOEFErSs52Kebwskax7NmJctXkEeXrsoBc4ELSOVmIkkYTmcACbQg%2Fg%2BAtMA7FpRTrAeOo%2FX5%2BUPpsiMDvasA%2FzbYR3p5Yjv7%2Fu%2FILJ0%2Fgtc6rqyVPay3XS57omyWP%2BNAwQ6c%2FxW6eOuNvFsnqq71Sc%2FiPIqk%2F%2B29SW4mCW9bUBeavRutNjZXPdSEuG3tr4MFUprvxkrqfs6pdKUet9%2FPQkrtTMVzvrHKcq%2BrCvLAQLXXx5PZyfaxSR4zrSd8JjT80qNxXRo0J7v9dFvXTenYRHwSD9HHxLUgQHp1n4C2CaNa3cqV5fbfpzf8C%3C%2Fdiagram%3E%3C%2Fmxfile%3E">
  <defs
     id="defs8">
    <clipPath
       id="clip1">
      <path
         d="M 0 0 L 427.921875 0 L 427.921875 143.914062 L 0 143.914062 Z M 0 0 "
         id="path2" />
    </clipPath>
    <clipPath
       id="clip2">
      <path
         d="M 341 67 L 427.921875 67 L 427.921875 143.914062 L 341 143.914062 Z M 341 67 "
         id="path5" />
    </clipPath>
  </defs>
  <g
     id="surface1">
    <g
       clip-path="url(#clip1)"
       clip-rule="nonzero"
       id="g12">
      <path
         style="fill:none;stroke:#7fdee8;stroke-width:5.13;stroke-linecap:butt;stroke-linejoin:miter;stroke-miterlimit:10;stroke-opacity:1"
         d="M 30.757835,117.90247 C 75.184818,83.726264 105.94236,64.074164 123.03046,58.951381 c 17.08811,-5.127994 43.56711,-3.418663 79.44744,5.127994 35.89074,8.541446 82.02706,-3.423874 138.41415,-35.890748 56.38709,-32.456452 97.3902,-32.456452 123.01975,0 25.62955,32.466874 43.57232,52.118974 53.82831,58.951089"
         transform="matrix(0.749562,0,0,0.749562,0.374781,0.374781)"
         id="path10" />
    </g>
    <path
       style="fill:#bdbdbd;fill-opacity:1;fill-rule:nonzero;stroke:none"
       d="m 34.558594,79.183594 3.757812,-0.796875 0.800782,3.757812 -3.757813,0.800781 m 6.714844,-5.359374 3.761719,-0.800782 0.796874,3.761719 -3.757812,0.800781 m 6.71875,-5.359375 3.757812,-0.800781 0.800782,3.761719 -3.757813,0.796875 m 6.714844,-5.359375 3.757813,-0.796875 0.800781,3.761718 -3.757813,0.796876 M 64.625,72.789062 68.382812,71.988281 69.183594,75.75 65.425781,76.550781 m 6.714844,-5.359375 3.761719,-0.800781 0.796875,3.761719 -3.757813,0.800781 m 6.71875,-5.363281 3.757813,-0.796875 0.800781,3.761719 -3.761719,0.796874 m 6.71875,-5.359374 3.757813,-0.796876 0.800781,3.757813 -3.757813,0.800781 M 94.691406,66.394531 98.449219,65.59375 99.25,69.355469 95.492188,70.15625 m 6.714842,-5.359375 3.75781,-0.800781 0.80079,3.761718 -3.75782,0.796876 m 6.71875,-5.359376 3.75782,-0.796874 0.80078,3.757812 -3.76172,0.800781 m 6.71875,-5.359375 3.75781,-0.800781 0.80078,3.761719 -3.75781,0.800781 M 124.75781,60 l 3.75781,-0.800781 0.80079,3.761719 -3.75782,0.800781 m 6.71485,-5.363281 3.75781,-0.796876 0.80078,3.761719 -3.75781,0.796875 M 139.79297,56.800781 143.55078,56 l 0.79688,3.761719 -3.75782,0.800781 m 6.71875,-5.359375 3.75782,-0.800781 0.80078,3.761718 -3.75782,0.800782 m 6.71485,-5.363282 3.75781,-0.796874 0.80078,3.761718 -3.75781,0.796875 m 6.71484,-5.359375 3.75782,-0.796875 0.80078,3.757813 -3.75782,0.800781 m 6.71485,-5.359375 3.76172,-0.800781 0.79687,3.761719 -3.75781,0.800781 m 6.71875,-5.359375 3.75781,-0.800782 0.80078,3.761719 -3.75781,0.796875 m 6.71484,-5.359375 3.75782,-0.796875 0.80078,3.757813 -3.75781,0.800781 m 6.71484,-5.359375 3.75781,-0.800781 0.80078,3.761718 -3.75781,0.800782 m 6.71484,-5.359375 3.76172,-0.800781 0.79688,3.761718 -3.75781,0.800782 m 6.71875,-5.363282 3.75781,-0.796875 L 212,45.375 l -3.76172,0.796875 m 6.71875,-5.359375 3.75781,-0.800781 0.80078,3.761719 -3.75781,0.800781 m 6.71485,-5.359375 3.75781,-0.800782 0.80078,3.761719 -3.75781,0.800781 m 6.71484,-5.363281 3.75781,-0.796875 0.80078,3.761719 -3.75781,0.796875 m 6.71875,-5.359375 3.75781,-0.796875 0.79688,3.757812 -3.75781,0.800782 m 6.71875,-5.359375 3.75781,-0.800781 0.80078,3.761718 -3.75781,0.800782 m 6.71484,-5.359376 3.75781,-0.800781 0.80079,3.761719 -3.75782,0.796875 m 6.71485,-5.359375 3.75781,-0.796875 0.80078,3.757813 -3.75781,0.800781 m 6.71875,-5.359375 3.75781,-0.800782 0.79688,3.761719 -3.75782,0.800781 m 6.71875,-5.359374 3.75782,-0.800782 0.80078,3.761719 -3.75782,0.800781 m 6.71485,-5.363281 3.75781,-0.796875 0.80078,3.761719 -3.75781,0.796875 m 6.71484,-5.359375 3.75782,-0.800781 0.80078,3.761718 -3.75782,0.800782 m 6.71485,-5.359376 3.76172,-0.800781 0.79687,3.761719 -3.75781,0.800781 m 6.71875,-5.363281 3.75781,-0.796875 0.80078,3.761719 -3.76172,0.796875 m 6.71875,-5.359375 3.75782,-0.796875 0.80078,3.757812 -3.75781,0.800781 m 6.71484,-5.359374 3.75781,-0.800782 0.80078,3.761719 -3.75781,0.800781 m 6.71484,-5.359375 3.75782,-0.800781 0.80078,3.761719 -3.75781,0.796875 m 6.71875,-5.359375 3.75781,-0.796875 0.80078,3.757812 -3.76172,0.800782"
       id="path14" />
    <path
       style="fill:none;stroke:#bdbdbd;stroke-width:5.13;stroke-linecap:butt;stroke-linejoin:miter;stroke-miterlimit:10;stroke-opacity:1"
       d="M 46.141818,169.16157 V 107.65169"
       transform="matrix(0.749562,0,0,0.749562,0.374781,0.374781)"
       id="path16" />
    <path
       style="fill:none;stroke:#bdbdbd;stroke-width:5.13;stroke-linecap:butt;stroke-linejoin:miter;stroke-miterlimit:10;stroke-opacity:1"
       d="M 456.23023,169.16157 V 30.757835"
       transform="matrix(0.749562,0,0,0.749562,0.374781,0.374781)"
       id="path18" />
    <path
       style="fill:#ffffff;fill-opacity:1;fill-rule:nonzero;stroke:#bdbdbd;stroke-width:5.13;stroke-linecap:butt;stroke-linejoin:miter;stroke-miterlimit:4;stroke-opacity:1"
       d="m 261.4342,64.079375 c 0,0.672268 -0.0677,1.339324 -0.19803,2.001169 -0.13029,0.661845 -0.32832,1.302844 -0.58368,1.922998 -0.26057,0.620154 -0.57325,1.214251 -0.94847,1.771868 -0.37522,0.557617 -0.79734,1.078755 -1.27679,1.55299 -0.47423,0.479447 -0.99016,0.901568 -1.55299,1.276787 -0.55762,0.375219 -1.1465,0.687902 -1.77187,0.948471 -0.62015,0.255357 -1.26115,0.448178 -1.92299,0.583674 -0.66185,0.130284 -1.32369,0.192821 -2.00117,0.192821 -0.67227,0 -1.33933,-0.06254 -1.99596,-0.192821 -0.66184,-0.135496 -1.30284,-0.328317 -1.92821,-0.583674 -0.62015,-0.260569 -1.20904,-0.573252 -1.77187,-0.948471 -0.55761,-0.375219 -1.07354,-0.79734 -1.55299,-1.276787 -0.47423,-0.474235 -0.90156,-0.995373 -1.27157,-1.55299 -0.37522,-0.557617 -0.69312,-1.151714 -0.94847,-1.771868 -0.26057,-0.620154 -0.45339,-1.261153 -0.58368,-1.922998 -0.13028,-0.661845 -0.19803,-1.328901 -0.19803,-2.001169 0,-0.672267 0.0678,-1.339323 0.19803,-2.001168 0.13029,-0.656633 0.32311,-1.297633 0.58368,-1.922998 0.25535,-0.620154 0.57325,-1.209039 0.94847,-1.771868 0.37001,-0.557617 0.79734,-1.078755 1.27157,-1.55299 0.47945,-0.474235 0.99538,-0.901568 1.55299,-1.276787 0.56283,-0.370008 1.15172,-0.687902 1.77187,-0.943259 0.62537,-0.260569 1.26637,-0.45339 1.92821,-0.583674 0.65663,-0.135496 1.32369,-0.198033 1.99596,-0.198033 0.67748,0 1.33932,0.06254 2.00117,0.198033 0.66184,0.130284 1.30284,0.323105 1.92299,0.583674 0.62537,0.255357 1.21425,0.573251 1.77187,0.943259 0.56283,0.375219 1.07876,0.802552 1.55299,1.276787 0.47945,0.474235 0.90157,0.995373 1.27679,1.55299 0.37522,0.562829 0.6879,1.151714 0.94847,1.771868 0.25536,0.625365 0.45339,1.266365 0.58368,1.922998 0.13028,0.661845 0.19803,1.328901 0.19803,2.001168 z m 0,0"
       transform="matrix(0.749562,0,0,0.749562,0.374781,0.374781)"
       id="path20" />
    <path
       style="fill:#bdbdbd;fill-opacity:1;fill-rule:nonzero;stroke:none"
       d="m 391.19531,51.90625 -3.15625,-2.1875 2.1875,-3.160156 3.16016,2.1875 m -8.50781,-1.214844 -3.16016,-2.1875 2.19141,-3.160156 3.15625,2.1875 m -8.50391,-1.214844 -3.16016,-2.1875 2.1875,-3.160156 3.16016,2.1875 m -8.50781,-1.214844 -3.16016,-2.1875 2.19141,-3.160156 3.16015,2.1875 m -8.50781,-1.214844 -3.16016,-2.1875 2.19141,-3.160156 3.15625,2.1875 m -8.50781,-1.214844 -3.15625,-2.1875 2.1875,-3.160156 3.16015,2.1875 m -8.50781,-1.214844 -3.16015,-2.1875 2.1914,-3.160156 3.16016,2.1875 m -8.50781,-1.214844 -3.16016,-2.1875 2.1875,-3.160156 3.16016,2.1875"
       id="path22" />
    <path
       style="fill:#ffffff;fill-opacity:1;fill-rule:nonzero;stroke:#bdbdbd;stroke-width:5.13;stroke-linecap:butt;stroke-linejoin:miter;stroke-miterlimit:4;stroke-opacity:1"
       d="m 466.48101,20.501847 c 0,0.672267 -0.0625,1.339323 -0.19803,1.995957 -0.13029,0.661845 -0.32311,1.302844 -0.58368,1.922998 -0.25535,0.625365 -0.57325,1.21425 -0.94326,1.777079 -0.37521,0.557617 -0.80255,1.073543 -1.27678,1.55299 -0.47424,0.474235 -0.99538,0.901568 -1.55299,1.271576 -0.55762,0.375219 -1.15172,0.693113 -1.77187,0.94847 -0.62537,0.260569 -1.26637,0.45339 -1.923,0.583675 -0.66184,0.130284 -1.3289,0.198032 -2.00117,0.198032 -0.67226,0 -1.33932,-0.06775 -2.00117,-0.198032 -0.66184,-0.130285 -1.30284,-0.323106 -1.92299,-0.583675 -0.62016,-0.255357 -1.21425,-0.573251 -1.77187,-0.94847 -0.55762,-0.370008 -1.07876,-0.797341 -1.55299,-1.271576 -0.47424,-0.479447 -0.90157,-0.995373 -1.27679,-1.55299 -0.37522,-0.562829 -0.6879,-1.151714 -0.94847,-1.777079 -0.25536,-0.620154 -0.44818,-1.261153 -0.58367,-1.922998 -0.13029,-0.656634 -0.19283,-1.32369 -0.19283,-1.995957 0,-0.677479 0.0625,-1.339324 0.19283,-2.001169 0.13549,-0.661845 0.32831,-1.302844 0.58367,-1.922998 0.26057,-0.625365 0.57325,-1.21425 0.94847,-1.771868 0.37522,-0.562828 0.80255,-1.078755 1.27679,-1.55299 0.47423,-0.479446 0.99537,-0.901568 1.55299,-1.276787 0.55762,-0.375219 1.15171,-0.687902 1.77187,-0.948471 0.62015,-0.255357 1.26115,-0.453389 1.92299,-0.583674 0.66185,-0.130284 1.32891,-0.198032 2.00117,-0.198032 0.67227,0 1.33933,0.06775 2.00117,0.198032 0.65663,0.130285 1.29763,0.328317 1.923,0.583674 0.62015,0.260569 1.21425,0.573252 1.77187,0.948471 0.55761,0.375219 1.07875,0.797341 1.55299,1.276787 0.47423,0.474235 0.90157,0.990162 1.27678,1.55299 0.37001,0.557618 0.68791,1.146503 0.94326,1.771868 0.26057,0.620154 0.45339,1.261153 0.58368,1.922998 0.13549,0.661845 0.19803,1.32369 0.19803,2.001169 z m 0,0"
       transform="matrix(0.749562,0,0,0.749562,0.374781,0.374781)"
       id="path24" />
    <path
       style="fill:#ffffff;fill-opacity:1;fill-rule:nonzero;stroke:#bdbdbd;stroke-width:5.13;stroke-linecap:butt;stroke-linejoin:miter;stroke-miterlimit:4;stroke-opacity:1"
       d="m 56.392595,107.65169 c 0,0.67227 -0.06775,1.33933 -0.198032,1.99596 -0.130284,0.66184 -0.323105,1.30284 -0.583674,1.92821 -0.255358,0.62015 -0.573251,1.20904 -0.948471,1.77187 -0.370007,0.55761 -0.79734,1.07354 -1.271575,1.55299 -0.479447,0.47423 -0.995373,0.90156 -1.552991,1.27157 -0.562828,0.37522 -1.151714,0.69312 -1.777079,0.94847 -0.620154,0.26057 -1.261153,0.45339 -1.922998,0.58368 -0.656633,0.13028 -1.323689,0.19803 -1.995957,0.19803 -0.677479,0 -1.339324,-0.0677 -2.001168,-0.19803 -0.661845,-0.13029 -1.302844,-0.32311 -1.922998,-0.58368 -0.625365,-0.25535 -1.214251,-0.57325 -1.771868,-0.94847 -0.562829,-0.37001 -1.078755,-0.79734 -1.55299,-1.27157 -0.479447,-0.47945 -0.901568,-0.99538 -1.276788,-1.55299 -0.375219,-0.56283 -0.687901,-1.15172 -0.94847,-1.77187 -0.255357,-0.62537 -0.45339,-1.26637 -0.583674,-1.92821 -0.130285,-0.65663 -0.198032,-1.32369 -0.198032,-1.99596 0,-0.67226 0.06775,-1.33932 0.198032,-2.00117 0.130284,-0.66184 0.328317,-1.30284 0.583674,-1.92299 0.260569,-0.62537 0.573251,-1.21425 0.94847,-1.77187 0.37522,-0.56283 0.797341,-1.07876 1.276788,-1.55299 0.474235,-0.479448 0.990161,-0.90157 1.55299,-1.276789 0.557617,-0.375219 1.146503,-0.687901 1.771868,-0.94847 0.620154,-0.255358 1.261153,-0.45339 1.922998,-0.583674 0.661844,-0.130285 1.323689,-0.198033 2.001168,-0.198033 0.672268,0 1.339324,0.06775 1.995957,0.198033 0.661845,0.130284 1.302844,0.328316 1.922998,0.583674 0.625365,0.260569 1.214251,0.573251 1.777079,0.94847 0.557618,0.375219 1.073544,0.797341 1.552991,1.276789 0.474235,0.47423 0.901568,0.99016 1.271575,1.55299 0.37522,0.55762 0.693113,1.1465 0.948471,1.77187 0.260569,0.62015 0.45339,1.26115 0.583674,1.92299 0.130284,0.66185 0.198032,1.32891 0.198032,2.00117 z m 0,0"
       transform="matrix(0.749562,0,0,0.749562,0.374781,0.374781)"
       id="path26" />
    <path
       style="fill:none;stroke:#bdbdbd;stroke-width:2.56;stroke-linecap:butt;stroke-linejoin:miter;stroke-miterlimit:10;stroke-opacity:1"
       d="M 251.17821,74.330153 V 169.16157"
       transform="matrix(0.749562,0,0,0.749562,0.374781,0.374781)"
       id="path28" />
    <path
       style="fill:none;stroke:#bdbdbd;stroke-width:5.13;stroke-linecap:butt;stroke-linejoin:miter;stroke-miterlimit:10;stroke-opacity:1"
       d="M 527.39158,169.16157 H 25.629841"
       transform="matrix(0.749562,0,0,0.749562,0.374781,0.374781)"
       id="path30" />
    <path
       style="fill:#bdbdbd;fill-opacity:1;fill-rule:nonzero;stroke:none"
       d="m 407.20703,127.17188 -11.51953,5.76171 v -11.52734 z m 0,0"
       id="path32" />
    <g
       clip-path="url(#clip2)"
       clip-rule="nonzero"
       id="g36">
      <path
         style="fill:none;stroke:#bdbdbd;stroke-width:5.13;stroke-linecap:butt;stroke-linejoin:miter;stroke-miterlimit:10;stroke-opacity:1"
         d="m 542.75992,169.16157 -15.36834,7.68678 v -15.37877 z m 0,0"
         transform="matrix(0.749562,0,0,0.749562,0.374781,0.374781)"
         id="path34" />
    </g>
  </g>
</svg>
