<?xml version="1.0" encoding="UTF-8"?>
<svg xmlns="http://www.w3.org/2000/svg" xmlns:xlink="http://www.w3.org/1999/xlink" width="250px" height="87px" viewBox="0 0 250 87" version="1.1">
<g id="surface1">
<path style="fill:none;stroke-width:1;stroke-linecap:butt;stroke-linejoin:miter;stroke:rgb(50.196078%,87.058824%,91.764706%);stroke-opacity:1;stroke-miterlimit:10;" d="M 0.00071875 22.000269 C 8.666063 15.333693 14.667031 11.500449 18.000563 10.500539 C 21.334094 9.500629 26.500531 9.833423 33.499875 11.500449 C 40.50075 13.165948 49.499906 10.833333 60.500406 4.499551 C 71.499375 -1.832705 79.500156 -1.832705 84.499688 4.499551 C 89.50075 10.833333 92.999656 14.666577 94.999469 15.999282 " transform="matrix(2.55102,0,0,2.558824,1.27551,1.279412)"/>
<path style="fill:none;stroke-width:1;stroke-linecap:butt;stroke-linejoin:miter;stroke:rgb(74.509804%,74.509804%,74.509804%);stroke-opacity:1;stroke-dasharray:1,1;stroke-miterlimit:10;" d="M 3.000438 20.000449 L 82.740281 3.04014 " transform="matrix(2.55102,0,0,2.558824,1.27551,1.279412)"/>
<path style="fill:none;stroke-width:1;stroke-linecap:butt;stroke-linejoin:miter;stroke:rgb(74.509804%,74.509804%,74.509804%);stroke-opacity:1;stroke-miterlimit:10;" d="M 3.000438 31.999371 L 3.000438 20.000449 " transform="matrix(2.55102,0,0,2.558824,1.27551,1.279412)"/>
<path style="fill:none;stroke-width:1;stroke-linecap:butt;stroke-linejoin:miter;stroke:rgb(74.509804%,74.509804%,74.509804%);stroke-opacity:1;stroke-miterlimit:10;" d="M 83.000594 31.999371 L 83.000594 5.000269 " transform="matrix(2.55102,0,0,2.558824,1.27551,1.279412)"/>
<path style="fill-rule:nonzero;fill:rgb(100%,100%,100%);fill-opacity:1;stroke-width:1;stroke-linecap:butt;stroke-linejoin:miter;stroke:rgb(74.509804%,74.509804%,74.509804%);stroke-opacity:1;stroke-miterlimit:4;" d="M 44.999563 11.500449 C 44.999563 10.395205 44.105313 9.500629 42.99975 9.500629 C 41.895719 9.500629 40.999938 10.395205 40.999938 11.500449 C 40.999938 12.604167 41.895719 13.500269 42.99975 13.500269 C 44.105313 13.500269 44.999563 12.604167 44.999563 11.500449 Z M 44.999563 11.500449 " transform="matrix(2.55102,0,0,2.558824,1.27551,1.279412)"/>
<path style="fill:none;stroke-width:1;stroke-linecap:butt;stroke-linejoin:miter;stroke:rgb(74.509804%,74.509804%,74.509804%);stroke-opacity:1;stroke-dasharray:1,1;stroke-miterlimit:10;" d="M 95.999375 11.999641 L 83.000594 3.000449 " transform="matrix(2.55102,0,0,2.558824,1.27551,1.279412)"/>
<path style="fill-rule:nonzero;fill:rgb(100%,100%,100%);fill-opacity:1;stroke-width:1;stroke-linecap:butt;stroke-linejoin:miter;stroke:rgb(74.509804%,74.509804%,74.509804%);stroke-opacity:1;stroke-miterlimit:4;" d="M 85.000406 3.000449 C 85.000406 1.895205 84.104625 1.000629 83.000594 1.000629 C 81.895031 1.000629 80.99925 1.895205 80.99925 3.000449 C 80.99925 4.104167 81.895031 5.000269 83.000594 5.000269 C 84.104625 5.000269 85.000406 4.104167 85.000406 3.000449 Z M 85.000406 3.000449 " transform="matrix(2.55102,0,0,2.558824,1.27551,1.279412)"/>
<path style="fill-rule:nonzero;fill:rgb(100%,100%,100%);fill-opacity:1;stroke-width:1;stroke-linecap:butt;stroke-linejoin:miter;stroke:rgb(74.509804%,74.509804%,74.509804%);stroke-opacity:1;stroke-miterlimit:4;" d="M 5.00025 20.000449 C 5.00025 18.895205 4.104469 18.000629 3.000438 18.000629 C 1.894875 18.000629 1.000625 18.895205 1.000625 20.000449 C 1.000625 21.104167 1.894875 22.000269 3.000438 22.000269 C 4.104469 22.000269 5.00025 21.104167 5.00025 20.000449 Z M 5.00025 20.000449 " transform="matrix(2.55102,0,0,2.558824,1.27551,1.279412)"/>
<path style="fill:none;stroke-width:0.5;stroke-linecap:butt;stroke-linejoin:miter;stroke:rgb(74.509804%,74.509804%,74.509804%);stroke-opacity:1;stroke-miterlimit:10;" d="M 42.99975 13.500269 L 42.99975 31.999371 " transform="matrix(2.55102,0,0,2.558824,1.27551,1.279412)"/>
</g>
</svg>
