<?xml version="1.0" encoding="UTF-8"?>
<!DOCTYPE svg PUBLIC "-//W3C//DTD SVG 1.1//EN" "http://www.w3.org/Graphics/SVG/1.1/DTD/svg11.dtd">
<svg xmlns="http://www.w3.org/2000/svg" xmlns:xlink="http://www.w3.org/1999/xlink" version="1.1" width="225px" height="77px" viewBox="-0.5 -0.5 225 77"><defs/><g><path d="M 12 46 Q 38 26 48 23 Q 58 20 79 25 Q 100 30 133 11 Q 166 -8 181 11 Q 196 30 202 34" fill="none" stroke="#80deea" stroke-width="2" stroke-miterlimit="10" pointer-events="stroke"/><path d="M 18 42 L 177.47 8.08" fill="none" stroke="#bebebe" stroke-width="2" stroke-miterlimit="10" stroke-dasharray="2 2" pointer-events="stroke"/><path d="M 18 66 L 18 42" fill="none" stroke="#bebebe" stroke-width="2" stroke-miterlimit="10" pointer-events="stroke"/><path d="M 178 66 L 178 12" fill="none" stroke="#bebebe" stroke-width="2" stroke-miterlimit="10" pointer-events="stroke"/><ellipse cx="98" cy="25" rx="4" ry="4" fill="rgb(255, 255, 255)" stroke="#bebebe" stroke-width="2" pointer-events="all"/><path d="M 204 26 L 178 8" fill="none" stroke="#bebebe" stroke-width="2" stroke-miterlimit="10" stroke-dasharray="2 2" pointer-events="stroke"/><ellipse cx="178" cy="8" rx="4" ry="4" fill="rgb(255, 255, 255)" stroke="#bebebe" stroke-width="2" pointer-events="all"/><ellipse cx="18" cy="42" rx="4" ry="4" fill="rgb(255, 255, 255)" stroke="#bebebe" stroke-width="2" pointer-events="all"/><path d="M 58 32 L 58 66" fill="none" stroke="#bebebe" stroke-miterlimit="10" pointer-events="stroke"/><ellipse cx="58" cy="34" rx="4" ry="4" fill="#ffffff" stroke="#bebebe" stroke-width="2" pointer-events="all"/><path d="M 138 16 L 137.9 66" fill="none" stroke="#bebebe" stroke-miterlimit="10" pointer-events="stroke"/><ellipse cx="138" cy="16" rx="4" ry="4" fill="rgb(255, 255, 255)" stroke="#bebebe" stroke-width="2" pointer-events="all"/><path d="M 98 29 L 98 66" fill="none" stroke="#bebebe" stroke-miterlimit="10" pointer-events="stroke"/><ellipse cx="38" cy="38" rx="4" ry="4" fill="#ffffff" stroke="#bebebe" stroke-width="2" pointer-events="all"/><ellipse cx="78" cy="29" rx="4" ry="4" fill="#ffffff" stroke="#bebebe" stroke-width="2" pointer-events="all"/><ellipse cx="118" cy="21" rx="4" ry="4" fill="#ffffff" stroke="#bebebe" stroke-width="2" pointer-events="all"/><ellipse cx="158" cy="12" rx="4" ry="4" fill="#ffffff" stroke="#bebebe" stroke-width="2" pointer-events="all"/><ellipse cx="198" cy="22" rx="4" ry="4" fill="#ffffff" stroke="#bebebe" stroke-width="2" pointer-events="all"/><path d="M 38 42 L 38 66" fill="none" stroke="#bebebe" stroke-miterlimit="10" pointer-events="stroke"/><path d="M 78 66 L 78 33" fill="none" stroke="#bebebe" stroke-miterlimit="10" pointer-events="stroke"/><path d="M 118 66 L 118 25" fill="none" stroke="#bebebe" stroke-miterlimit="10" pointer-events="stroke"/><path d="M 158 66 L 158 16" fill="none" stroke="#bebebe" stroke-miterlimit="10" pointer-events="stroke"/><path d="M 198 66 L 198 26" fill="none" stroke="#bebebe" stroke-miterlimit="10" pointer-events="stroke"/><path d="M 205.76 66 L 10 66 L 8 66" fill="none" stroke="#bebebe" stroke-width="2" stroke-miterlimit="10" pointer-events="stroke"/><path d="M 211.76 66 L 205.76 69 L 205.76 63 Z" fill="#bebebe" stroke="#bebebe" stroke-width="2" stroke-miterlimit="10" pointer-events="all"/></g></svg>