<?xml version="1.0" encoding="utf-8"?>
<!-- Generator: Adobe Illustrator 24.0.0, SVG Export Plug-In . SVG Version: 6.00 Build 0)  -->
<svg version="1.1" id="Ebene_1" xmlns="http://www.w3.org/2000/svg" xmlns:xlink="http://www.w3.org/1999/xlink" x="0px" y="0px"
	 viewBox="0 0 225 77" style="enable-background:new 0 0 225 77;" xml:space="preserve">
<style type="text/css">
	.st0{fill:none;stroke:#D72864;stroke-width:2;stroke-miterlimit:10;}
	.st1{fill:none;stroke:#BEBEBE;stroke-width:2;stroke-miterlimit:10;stroke-dasharray:2,2;}
	.st2{fill:none;stroke:#BEBEBE;stroke-width:2;stroke-miterlimit:10;}
	.st3{fill:#FFFFFF;stroke:#BEBEBE;stroke-width:2;}
	.st4{fill:none;stroke:#BEBEBE;stroke-miterlimit:10;}
	.st5{fill:#BEBEBE;stroke:#BEBEBE;stroke-width:2;stroke-miterlimit:10;}
</style>
<g>
	<path pointer-events="stroke" class="st0" d="M12.5,46.5c17.3-13.3,29.3-21,36-23s17-1.3,31,2s32-1.3,54-14s38-12.7,48,0
		s17,20.3,21,23"/>
	<path pointer-events="stroke" class="st1" d="M18.5,42.5L178,8.6"/>
	<path pointer-events="stroke" class="st2" d="M18.5,66.5v-24"/>
	<path pointer-events="stroke" class="st2" d="M178.5,66.5v-54"/>
	<ellipse pointer-events="all" class="st3" cx="98.5" cy="25.5" rx="4" ry="4"/>
	<path pointer-events="stroke" class="st1" d="M204.5,26.5l-26-18"/>
	<ellipse pointer-events="all" class="st3" cx="178.5" cy="8.5" rx="4" ry="4"/>
	<ellipse pointer-events="all" class="st3" cx="18.5" cy="42.5" rx="4" ry="4"/>
	<path pointer-events="stroke" class="st4" d="M58.5,32.5v34"/>
	<ellipse pointer-events="all" class="st3" cx="58.5" cy="34.5" rx="4" ry="4"/>
	<path pointer-events="stroke" class="st4" d="M138.5,16.5l-0.1,50"/>
	<ellipse pointer-events="all" class="st3" cx="138.5" cy="16.5" rx="4" ry="4"/>
	<path pointer-events="stroke" class="st4" d="M98.5,29.5v37"/>
	<ellipse pointer-events="all" class="st3" cx="38.5" cy="38.5" rx="4" ry="4"/>
	<ellipse pointer-events="all" class="st3" cx="78.5" cy="29.5" rx="4" ry="4"/>
	<ellipse pointer-events="all" class="st3" cx="118.5" cy="21.5" rx="4" ry="4"/>
	<ellipse pointer-events="all" class="st3" cx="158.5" cy="12.5" rx="4" ry="4"/>
	<ellipse pointer-events="all" class="st3" cx="198.5" cy="22.5" rx="4" ry="4"/>
	<path pointer-events="stroke" class="st4" d="M38.5,42.5v24"/>
	<path pointer-events="stroke" class="st4" d="M78.5,66.5v-33"/>
	<path pointer-events="stroke" class="st4" d="M118.5,66.5v-41"/>
	<path pointer-events="stroke" class="st4" d="M158.5,66.5v-50"/>
	<path pointer-events="stroke" class="st4" d="M198.5,66.5v-40"/>
	<path pointer-events="stroke" class="st2" d="M206.3,66.5H10.5h-2"/>
	<path pointer-events="all" class="st5" d="M212.3,66.5l-6,3v-6L212.3,66.5z"/>
</g>
</svg>
