<?xml version="1.0" encoding="UTF-8" standalone="no"?>
<svg 
   width="427.91998pt"
   height="144.959991pt"
   viewBox="0 0 427.91998 144.959991"
   version="1.2"
   id="svg108"
   xmlns="http://www.w3.org/2000/svg"
   xmlns:svg="http://www.w3.org/2000/svg" content="%3Cmxfile%20host%3D%22app.diagrams.net%22%20modified%3D%222022-05-24T12%3A57%3A56.199Z%22%20agent%3D%225.0%20(Windows%20NT%2010.0%3B%20Win64%3B%20x64)%20AppleWebKit%2F537.36%20(KHTML%2C%20like%20Gecko)%20Chrome%2F101.0.0.0%20Safari%2F537.36%22%20version%3D%2218.1.1%22%20etag%3D%22GRWeYRdnHzp_NFA6GNQ7%22%20type%3D%22google%22%3E%3Cdiagram%20id%3D%22zDIn_aQEYsEDENZZfO5G%22%3E7VxLc6M4EP41XF3owes4SZzdy1alKoedOTJGsanBxoXl2N5fv8JIGJoYExYp4B3nEKuRW%2Bbrr6VutYxFHtfHP7Jwu%2ForjVhiYTs6WuTJwhghxxf%2FcslJSgJcCJZZHEnRRfAa%2F8Ok0JbSfRyxXa0jT9OEx9u6cJFuNmzBa7Iwy9JDvdtbmtRH3YZL1hC8LsKkKf07jviqkPrYu8j%2FZPFypUZGblBcWYeqs7yT3SqM0kNFROYWeczSlBfv1sdHluTgKVyKzz1fuVp%2BsYxteJcPSNzfw2Qv701%2BL35SN7vYZ%2B8s744s8sA20bccQNHcpBvR42HF14m8mKX7TXTuahddn%2BMkka0dz9Jf7DFN0uyslvj203z%2BTVwpBmRRA%2FLLPaASGUEplq4Zz06iy%2BGCvSPxXFVgV7KMJSGP3%2BvqQ0mBZamuHOEljcXA2FZ0daRZJVkJsmd25QUU7tJ9tmBSRxV5oBY7uK7WJrOg%2BqJ1vTzMlow39AprhKdKt23eYddyN54NhrVbvyby6%2F1x4LXflsKj1I%2Fb%2BxNa1%2B%2BT9v40aNMv3hSIqFaFMBfR2Qk%2Bdghy2yGaPhCFu1XpIhWHyOUvIecs25wlOTjKFdTE8ZHjiG%2F7PW%2FMqEBHCn6cBQ5S7adjtfvTqdp6YVks7pll15zvYZ7%2FXXe%2BgmxyWhubP7qQwX5PD7Qhtd1OLteDVbQPq67OrE0CNQz8k%2BV%2FU5hdoTXVyvhZa96kxXDWdDRY8xPOORrbYTqQ7aAiHBBdtnM72C5JRCCZ2%2Bywijl73YaL%2FMpBxLJ1O4a7bRFdvsXH3JwPbyLeUYaM2Fu4T3gHA7%2BzjLPjZ02sPhD4cH2eSX5WSECbHKDXrV2DtwVL7%2BvXygk7j0PAfDVMWNlwJVRTa2tb4%2Fw78yyRotSR9ANDfhXcGZJlvl9S3TWEpNow0BJ4iWh80jMQTO1EBtpvzmkognHAcJMMQqZ8Q1jy%2BfzS7h0e9A5syjvwb%2B%2B4vj5juJDS%2Bv5Mz%2FUZBbPAqazHjjHX6bK1MaVlRcw7wELElOPozOcLx2HHmH%2BvtX7Iz%2BbvL5s%2FeeNk9QyGC9Ja1cRoPP5nD7Q6NRRpdLEuOwMTW51cuDpRU05mLFU3B6YPZ6zAWLKOumTr04IT2xBOxxycxtJdc3BiCCcyBaaxjNccmBSCaSrnxV%2BZ8%2FYJW6zbwYlaWEcTnaAABBWob%2B4M67H6ohPcJXfWRoxLUdOpljRv1TOvkKNaoERjC10b5OhdF4GhK9VHjq%2FcC9BJDm9k5Cj3JP8zOaAiRx85ep2KmAA5xna2QaRXA5ED7F4RVx859G%2BGTHgX0RnKoFBRe7lwQPMa29MwVY1yYeHVVM54f4cPPAilqR3YTmcPJgWlD6E0lXzfXeEeBXUoceAb2xa6u9o9tiGYrjEwSZedjEmBiSCYdIaNoWmsdG4KTQzRxKag7JIsTwpKAqG0TUF5d1Vp2mCluQnzdypWGaFxQPzGUYvuJ82BItvv88udPj9O0XHy%2FG7s6w1lX6jI9rQZtEtG%2BL81qD%2BUQaEilfFrMGivM%2FHj3ykd36%2FAgoHI0aixOIY21kiXvHuKVAlGRhV864xld6rAeUQfObrsI0yQHCqlHw850FDkgBUXz9A8QrvskkzsvAcZWyzSKMy5XmvM3501xs5%2F0688%2FnHF5iOy71DTAFCEAzLzfJf4PnGR4zrackOK73TFIGOjCh2KKqCkS02VdOmwxznqD3oRLfnAHtxKmY8eYhBmXA36M0kXv5RQqi87VQYY%2FcQCf%2FvYO4l1%2Bq0Un35AjON%2BOE7PB6yI5uVpRkX3yzOhyPxf%3C%2Fdiagram%3E%3C%2Fmxfile%3E">
  <defs
     id="defs11">
    <clipPath
       id="clip1">
      <path
         d="M 0 0 L 427.921875 0 L 427.921875 143.914062 L 0 143.914062 Z M 0 0 "
         id="path2" />
    </clipPath>
    <clipPath
       id="clip2">
      <path
         d="M 238 3 L 293 3 L 293 143.914062 L 238 143.914062 Z M 238 3 "
         id="path5" />
    </clipPath>
    <clipPath
       id="clip3">
      <path
         d="M 341 67 L 427.921875 67 L 427.921875 143.914062 L 341 143.914062 Z M 341 67 "
         id="path8" />
    </clipPath>
  </defs>
  <g
     id="surface1">
    <g
       clip-path="url(#clip1)"
       clip-rule="nonzero"
       id="g15">
      <path
         style="fill:none;stroke:#D72864;stroke-width:5.13;stroke-linecap:butt;stroke-linejoin:miter;stroke-miterlimit:10;stroke-opacity:1"
         d="M 30.757835,117.90247 C 75.184818,83.726264 105.94236,64.074164 123.03046,58.951381 c 17.08811,-5.127994 43.56711,-3.418663 79.44744,5.127994 35.89074,8.541446 82.02706,-3.423874 138.41415,-35.890748 56.38709,-32.456452 97.3902,-32.456452 123.01975,0 25.62955,32.466874 43.57232,52.118974 53.82831,58.951089"
         transform="matrix(0.749562,0,0,0.749562,0.374781,0.374781)"
         id="path13" />
    </g>
    <path
       style="fill:#bdbdbd;fill-opacity:1;fill-rule:nonzero;stroke:none"
       d="m 34.558594,79.183594 3.757812,-0.796875 0.800782,3.757812 -3.757813,0.800781 m 6.714844,-5.359374 3.761719,-0.800782 0.796874,3.761719 -3.757812,0.800781 m 6.71875,-5.359375 3.757812,-0.800781 0.800782,3.761719 -3.757813,0.796875 m 6.714844,-5.359375 3.757813,-0.796875 0.800781,3.761718 -3.757813,0.796876 M 64.625,72.789062 68.382812,71.988281 69.183594,75.75 65.425781,76.550781 m 6.714844,-5.359375 3.761719,-0.800781 0.796875,3.761719 -3.757813,0.800781 m 6.71875,-5.363281 3.757813,-0.796875 0.800781,3.761719 -3.761719,0.796874 m 6.71875,-5.359374 3.757813,-0.796876 0.800781,3.757813 -3.757813,0.800781 M 94.691406,66.394531 98.449219,65.59375 99.25,69.355469 95.492188,70.15625 m 6.714842,-5.359375 3.75781,-0.800781 0.80079,3.761718 -3.75782,0.796876 m 6.71875,-5.359376 3.75782,-0.796874 0.80078,3.757812 -3.76172,0.800781 m 6.71875,-5.359375 3.75781,-0.800781 0.80078,3.761719 -3.75781,0.800781 M 124.75781,60 l 3.75781,-0.800781 0.80079,3.761719 -3.75782,0.800781 m 6.71485,-5.363281 3.75781,-0.796876 0.80078,3.761719 -3.75781,0.796875 M 139.79297,56.800781 143.55078,56 l 0.79688,3.761719 -3.75782,0.800781 m 6.71875,-5.359375 3.75782,-0.800781 0.80078,3.761718 -3.75782,0.800782 m 6.71485,-5.363282 3.75781,-0.796874 0.80078,3.761718 -3.75781,0.796875 m 6.71484,-5.359375 3.75782,-0.796875 0.80078,3.757813 -3.75782,0.800781 m 6.71485,-5.359375 3.76172,-0.800781 0.79687,3.761719 -3.75781,0.800781 m 6.71875,-5.359375 3.75781,-0.800782 0.80078,3.761719 -3.75781,0.796875 m 6.71484,-5.359375 3.75782,-0.796875 0.80078,3.757813 -3.75781,0.800781 m 6.71484,-5.359375 3.75781,-0.800781 0.80078,3.761718 -3.75781,0.800782 m 6.71484,-5.359375 3.76172,-0.800781 0.79688,3.761718 -3.75781,0.800782 m 6.71875,-5.363282 3.75781,-0.796875 L 212,45.375 l -3.76172,0.796875 m 6.71875,-5.359375 3.75781,-0.800781 0.80078,3.761719 -3.75781,0.800781 m 6.71485,-5.359375 3.75781,-0.800782 0.80078,3.761719 -3.75781,0.800781 m 6.71484,-5.363281 3.75781,-0.796875 0.80078,3.761719 -3.75781,0.796875 m 6.71875,-5.359375 3.75781,-0.796875 0.79688,3.757812 -3.75781,0.800782 m 6.71875,-5.359375 3.75781,-0.800781 0.80078,3.761718 -3.75781,0.800782 m 6.71484,-5.359376 3.75781,-0.800781 0.80079,3.761719 -3.75782,0.796875 m 6.71485,-5.359375 3.75781,-0.796875 0.80078,3.757813 -3.75781,0.800781 m 6.71875,-5.359375 3.75781,-0.800782 0.79688,3.761719 -3.75782,0.800781 m 6.71875,-5.359374 3.75782,-0.800782 0.80078,3.761719 -3.75782,0.800781 m 6.71485,-5.363281 3.75781,-0.796875 0.80078,3.761719 -3.75781,0.796875 m 6.71484,-5.359375 3.75782,-0.800781 0.80078,3.761718 -3.75782,0.800782 m 6.71485,-5.359376 3.76172,-0.800781 0.79687,3.761719 -3.75781,0.800781 m 6.71875,-5.363281 3.75781,-0.796875 0.80078,3.761719 -3.76172,0.796875 m 6.71875,-5.359375 3.75782,-0.796875 0.80078,3.757812 -3.75781,0.800781 m 6.71484,-5.359374 3.75781,-0.800782 0.80078,3.761719 -3.75781,0.800781 m 6.71484,-5.359375 3.75782,-0.800781 0.80078,3.761719 -3.75781,0.796875 m 6.71875,-5.359375 3.75781,-0.796875 0.80078,3.757812 -3.76172,0.800782"
       id="path17" />
    <path
       style="fill:none;stroke:#bdbdbd;stroke-width:5.13;stroke-linecap:butt;stroke-linejoin:miter;stroke-miterlimit:10;stroke-opacity:1"
       d="M 46.141818,169.16157 V 107.65169"
       transform="matrix(0.749562,0,0,0.749562,0.374781,0.374781)"
       id="path19" />
    <path
       style="fill:none;stroke:#bdbdbd;stroke-width:5.13;stroke-linecap:butt;stroke-linejoin:miter;stroke-miterlimit:10;stroke-opacity:1"
       d="M 456.23023,169.16157 V 30.757835"
       transform="matrix(0.749562,0,0,0.749562,0.374781,0.374781)"
       id="path21" />
    <path
       style="fill:#ffffff;fill-opacity:1;fill-rule:nonzero;stroke:#bdbdbd;stroke-width:5.13;stroke-linecap:butt;stroke-linejoin:miter;stroke-miterlimit:4;stroke-opacity:1"
       d="m 261.4342,64.079375 c 0,0.672268 -0.0677,1.339324 -0.19803,2.001169 -0.13029,0.661845 -0.32832,1.302844 -0.58368,1.922998 -0.26057,0.620154 -0.57325,1.214251 -0.94847,1.771868 -0.37522,0.557617 -0.79734,1.078755 -1.27679,1.55299 -0.47423,0.479447 -0.99016,0.901568 -1.55299,1.276787 -0.55762,0.375219 -1.1465,0.687902 -1.77187,0.948471 -0.62015,0.255357 -1.26115,0.448178 -1.92299,0.583674 -0.66185,0.130284 -1.32369,0.192821 -2.00117,0.192821 -0.67227,0 -1.33933,-0.06254 -1.99596,-0.192821 -0.66184,-0.135496 -1.30284,-0.328317 -1.92821,-0.583674 -0.62015,-0.260569 -1.20904,-0.573252 -1.77187,-0.948471 -0.55761,-0.375219 -1.07354,-0.79734 -1.55299,-1.276787 -0.47423,-0.474235 -0.90156,-0.995373 -1.27157,-1.55299 -0.37522,-0.557617 -0.69312,-1.151714 -0.94847,-1.771868 -0.26057,-0.620154 -0.45339,-1.261153 -0.58368,-1.922998 -0.13028,-0.661845 -0.19803,-1.328901 -0.19803,-2.001169 0,-0.672267 0.0678,-1.339323 0.19803,-2.001168 0.13029,-0.656633 0.32311,-1.297633 0.58368,-1.922998 0.25535,-0.620154 0.57325,-1.209039 0.94847,-1.771868 0.37001,-0.557617 0.79734,-1.078755 1.27157,-1.55299 0.47945,-0.474235 0.99538,-0.901568 1.55299,-1.276787 0.56283,-0.370008 1.15172,-0.687902 1.77187,-0.943259 0.62537,-0.260569 1.26637,-0.45339 1.92821,-0.583674 0.65663,-0.135496 1.32369,-0.198033 1.99596,-0.198033 0.67748,0 1.33932,0.06254 2.00117,0.198033 0.66184,0.130284 1.30284,0.323105 1.92299,0.583674 0.62537,0.255357 1.21425,0.573251 1.77187,0.943259 0.56283,0.375219 1.07876,0.802552 1.55299,1.276787 0.47945,0.474235 0.90157,0.995373 1.27679,1.55299 0.37522,0.562829 0.6879,1.151714 0.94847,1.771868 0.25536,0.625365 0.45339,1.266365 0.58368,1.922998 0.13028,0.661845 0.19803,1.328901 0.19803,2.001168 z m 0,0"
       transform="matrix(0.749562,0,0,0.749562,0.374781,0.374781)"
       id="path23" />
    <path
       style="fill:#bdbdbd;fill-opacity:1;fill-rule:nonzero;stroke:none"
       d="m 391.19531,51.90625 -3.15625,-2.1875 2.1875,-3.160156 3.16016,2.1875 m -8.50781,-1.214844 -3.16016,-2.1875 2.19141,-3.160156 3.15625,2.1875 m -8.50391,-1.214844 -3.16016,-2.1875 2.1875,-3.160156 3.16016,2.1875 m -8.50781,-1.214844 -3.16016,-2.1875 2.19141,-3.160156 3.16015,2.1875 m -8.50781,-1.214844 -3.16016,-2.1875 2.19141,-3.160156 3.15625,2.1875 m -8.50781,-1.214844 -3.15625,-2.1875 2.1875,-3.160156 3.16015,2.1875 m -8.50781,-1.214844 -3.16015,-2.1875 2.1914,-3.160156 3.16016,2.1875 m -8.50781,-1.214844 -3.16016,-2.1875 2.1875,-3.160156 3.16016,2.1875"
       id="path25" />
    <path
       style="fill:#ffffff;fill-opacity:1;fill-rule:nonzero;stroke:#bdbdbd;stroke-width:5.13;stroke-linecap:butt;stroke-linejoin:miter;stroke-miterlimit:4;stroke-opacity:1"
       d="m 466.48101,20.501847 c 0,0.672267 -0.0625,1.339323 -0.19803,1.995957 -0.13029,0.661845 -0.32311,1.302844 -0.58368,1.922998 -0.25535,0.625365 -0.57325,1.21425 -0.94326,1.777079 -0.37521,0.557617 -0.80255,1.073543 -1.27678,1.55299 -0.47424,0.474235 -0.99538,0.901568 -1.55299,1.271576 -0.55762,0.375219 -1.15172,0.693113 -1.77187,0.94847 -0.62537,0.260569 -1.26637,0.45339 -1.923,0.583675 -0.66184,0.130284 -1.3289,0.198032 -2.00117,0.198032 -0.67226,0 -1.33932,-0.06775 -2.00117,-0.198032 -0.66184,-0.130285 -1.30284,-0.323106 -1.92299,-0.583675 -0.62016,-0.255357 -1.21425,-0.573251 -1.77187,-0.94847 -0.55762,-0.370008 -1.07876,-0.797341 -1.55299,-1.271576 -0.47424,-0.479447 -0.90157,-0.995373 -1.27679,-1.55299 -0.37522,-0.562829 -0.6879,-1.151714 -0.94847,-1.777079 -0.25536,-0.620154 -0.44818,-1.261153 -0.58367,-1.922998 -0.13029,-0.656634 -0.19283,-1.32369 -0.19283,-1.995957 0,-0.677479 0.0625,-1.339324 0.19283,-2.001169 0.13549,-0.661845 0.32831,-1.302844 0.58367,-1.922998 0.26057,-0.625365 0.57325,-1.21425 0.94847,-1.771868 0.37522,-0.562828 0.80255,-1.078755 1.27679,-1.55299 0.47423,-0.479446 0.99537,-0.901568 1.55299,-1.276787 0.55762,-0.375219 1.15171,-0.687902 1.77187,-0.948471 0.62015,-0.255357 1.26115,-0.453389 1.92299,-0.583674 0.66185,-0.130284 1.32891,-0.198032 2.00117,-0.198032 0.67227,0 1.33933,0.06775 2.00117,0.198032 0.65663,0.130285 1.29763,0.328317 1.923,0.583674 0.62015,0.260569 1.21425,0.573252 1.77187,0.948471 0.55761,0.375219 1.07875,0.797341 1.55299,1.276787 0.47423,0.474235 0.90157,0.990162 1.27678,1.55299 0.37001,0.557618 0.68791,1.146503 0.94326,1.771868 0.26057,0.620154 0.45339,1.261153 0.58368,1.922998 0.13549,0.661845 0.19803,1.32369 0.19803,2.001169 z m 0,0"
       transform="matrix(0.749562,0,0,0.749562,0.374781,0.374781)"
       id="path27" />
    <path
       style="fill:#ffffff;fill-opacity:1;fill-rule:nonzero;stroke:#bdbdbd;stroke-width:5.13;stroke-linecap:butt;stroke-linejoin:miter;stroke-miterlimit:4;stroke-opacity:1"
       d="m 56.392595,107.65169 c 0,0.67227 -0.06775,1.33933 -0.198032,1.99596 -0.130284,0.66184 -0.323105,1.30284 -0.583674,1.92821 -0.255358,0.62015 -0.573251,1.20904 -0.948471,1.77187 -0.370007,0.55761 -0.79734,1.07354 -1.271575,1.55299 -0.479447,0.47423 -0.995373,0.90156 -1.552991,1.27157 -0.562828,0.37522 -1.151714,0.69312 -1.777079,0.94847 -0.620154,0.26057 -1.261153,0.45339 -1.922998,0.58368 -0.656633,0.13028 -1.323689,0.19803 -1.995957,0.19803 -0.677479,0 -1.339324,-0.0677 -2.001168,-0.19803 -0.661845,-0.13029 -1.302844,-0.32311 -1.922998,-0.58368 -0.625365,-0.25535 -1.214251,-0.57325 -1.771868,-0.94847 -0.562829,-0.37001 -1.078755,-0.79734 -1.55299,-1.27157 -0.479447,-0.47945 -0.901568,-0.99538 -1.276788,-1.55299 -0.375219,-0.56283 -0.687901,-1.15172 -0.94847,-1.77187 -0.255357,-0.62537 -0.45339,-1.26637 -0.583674,-1.92821 -0.130285,-0.65663 -0.198032,-1.32369 -0.198032,-1.99596 0,-0.67226 0.06775,-1.33932 0.198032,-2.00117 0.130284,-0.66184 0.328317,-1.30284 0.583674,-1.92299 0.260569,-0.62537 0.573251,-1.21425 0.94847,-1.77187 0.37522,-0.56283 0.797341,-1.07876 1.276788,-1.55299 0.474235,-0.479448 0.990161,-0.90157 1.55299,-1.276789 0.557617,-0.375219 1.146503,-0.687901 1.771868,-0.94847 0.620154,-0.255358 1.261153,-0.45339 1.922998,-0.583674 0.661844,-0.130285 1.323689,-0.198033 2.001168,-0.198033 0.672268,0 1.339324,0.06775 1.995957,0.198033 0.661845,0.130284 1.302844,0.328316 1.922998,0.583674 0.625365,0.260569 1.214251,0.573251 1.777079,0.94847 0.557618,0.375219 1.073544,0.797341 1.552991,1.276789 0.474235,0.47423 0.901568,0.99016 1.271575,1.55299 0.37522,0.55762 0.693113,1.1465 0.948471,1.77187 0.260569,0.62015 0.45339,1.26115 0.583674,1.92299 0.130284,0.66185 0.198032,1.32891 0.198032,2.00117 z m 0,0"
       transform="matrix(0.749562,0,0,0.749562,0.374781,0.374781)"
       id="path29" />
    <path
       style="fill:none;stroke:#bdbdbd;stroke-width:2.56;stroke-linecap:butt;stroke-linejoin:miter;stroke-miterlimit:10;stroke-opacity:1"
       d="M 148.66001,82.022144 V 169.16157"
       transform="matrix(0.749562,0,0,0.749562,0.374781,0.374781)"
       id="path31" />
    <path
       style="fill:#ffffff;fill-opacity:1;fill-rule:nonzero;stroke:#bdbdbd;stroke-width:5.13;stroke-linecap:butt;stroke-linejoin:miter;stroke-miterlimit:4;stroke-opacity:1"
       d="m 158.91079,87.139716 c 0,0.672267 -0.0625,1.339323 -0.19803,2.001168 -0.13029,0.661845 -0.32311,1.302844 -0.57847,1.922998 -0.26056,0.620154 -0.57846,1.214251 -0.94847,1.771868 -0.37521,0.557617 -0.80255,1.078755 -1.27678,1.55299 -0.47424,0.474235 -0.99538,0.901568 -1.55299,1.276787 -0.55762,0.375219 -1.15172,0.687902 -1.77187,0.948471 -0.62537,0.255357 -1.26637,0.448178 -1.923,0.583674 -0.66184,0.130284 -1.3289,0.192821 -2.00117,0.192821 -0.67226,0 -1.33932,-0.06254 -2.00116,-0.192821 -0.65664,-0.135496 -1.30285,-0.328317 -1.923,-0.583674 -0.62016,-0.260569 -1.21425,-0.573252 -1.77187,-0.948471 -0.55762,-0.375219 -1.07876,-0.802552 -1.55299,-1.276787 -0.47424,-0.474235 -0.90157,-0.995373 -1.27679,-1.55299 -0.37522,-0.557617 -0.6879,-1.151714 -0.94847,-1.771868 -0.25536,-0.620154 -0.44818,-1.261153 -0.57846,-1.922998 -0.1355,-0.661845 -0.19803,-1.328901 -0.19803,-2.001168 0,-0.672268 0.0625,-1.339324 0.19803,-2.001169 0.13028,-0.656633 0.3231,-1.297633 0.57846,-1.922998 0.26057,-0.620153 0.57325,-1.21425 0.94847,-1.771868 0.37522,-0.557617 0.80255,-1.078755 1.27679,-1.55299 0.47423,-0.474235 0.99537,-0.901568 1.55299,-1.276787 0.55762,-0.370008 1.15171,-0.687902 1.77187,-0.943259 0.62015,-0.260569 1.26636,-0.45339 1.923,-0.583674 0.66184,-0.135496 1.3289,-0.198033 2.00116,-0.198033 0.67227,0 1.33933,0.06254 2.00117,0.198033 0.65663,0.130284 1.29763,0.323105 1.923,0.583674 0.62015,0.255357 1.21425,0.573251 1.77187,0.943259 0.55761,0.375219 1.07875,0.802552 1.55299,1.276787 0.47423,0.474235 0.90157,0.995373 1.27678,1.55299 0.37001,0.557618 0.68791,1.151715 0.94847,1.771868 0.25536,0.625365 0.44818,1.266365 0.57847,1.922998 0.13549,0.661845 0.19803,1.328901 0.19803,2.001169 z m 0,0"
       transform="matrix(0.749562,0,0,0.749562,0.374781,0.374781)"
       id="path33" />
    <g
       clip-path="url(#clip2)"
       clip-rule="nonzero"
       id="g37">
      <path
         style="fill:none;stroke:#bdbdbd;stroke-width:2.56;stroke-linecap:butt;stroke-linejoin:miter;stroke-miterlimit:10;stroke-opacity:1"
         d="M 353.70161,41.008612 353.45147,169.16157"
         transform="matrix(0.749562,0,0,0.749562,0.374781,0.374781)"
         id="path35" />
    </g>
    <path
       style="fill:#ffffff;fill-opacity:1;fill-rule:nonzero;stroke:#bdbdbd;stroke-width:5.13;stroke-linecap:butt;stroke-linejoin:miter;stroke-miterlimit:4;stroke-opacity:1"
       d="m 363.95239,41.008612 c 0,0.672268 -0.0677,1.339324 -0.19803,2.001169 -0.13029,0.661845 -0.32311,1.302844 -0.58367,1.922998 -0.25536,0.620154 -0.57326,1.214251 -0.94848,1.771868 -0.37,0.562828 -0.79734,1.078755 -1.27157,1.55299 -0.47945,0.479447 -0.99537,0.901568 -1.55299,1.276787 -0.56283,0.375219 -1.15172,0.687902 -1.77187,0.948471 -0.62536,0.255357 -1.26636,0.453389 -1.92821,0.583674 -0.65663,0.130284 -1.32369,0.198032 -1.99596,0.198032 -0.67226,0 -1.33932,-0.06775 -2.00116,-0.198032 -0.66185,-0.130285 -1.30285,-0.328317 -1.923,-0.583674 -0.62016,-0.260569 -1.21425,-0.573252 -1.77187,-0.948471 -0.56283,-0.375219 -1.07875,-0.79734 -1.55299,-1.276787 -0.47945,-0.474235 -0.90157,-0.990162 -1.27679,-1.55299 -0.37522,-0.557617 -0.6879,-1.151714 -0.94847,-1.771868 -0.25536,-0.620154 -0.45339,-1.261153 -0.58367,-1.922998 -0.13029,-0.661845 -0.19803,-1.328901 -0.19803,-2.001169 0,-0.672267 0.0677,-1.339323 0.19803,-2.001168 0.13028,-0.656633 0.32831,-1.297633 0.58367,-1.922998 0.26057,-0.620154 0.57325,-1.209039 0.94847,-1.771868 0.37522,-0.557617 0.79734,-1.073543 1.27679,-1.55299 0.47424,-0.474235 0.99016,-0.901568 1.55299,-1.271576 0.55762,-0.375219 1.15171,-0.693113 1.77187,-0.94847 0.62015,-0.260569 1.26115,-0.45339 1.923,-0.583674 0.66184,-0.130285 1.3289,-0.198033 2.00116,-0.198033 0.67227,0 1.33933,0.06775 1.99596,0.198033 0.66185,0.130284 1.30285,0.323105 1.92821,0.583674 0.62015,0.255357 1.20904,0.573251 1.77187,0.94847 0.55762,0.370008 1.07354,0.797341 1.55299,1.271576 0.47423,0.479447 0.90157,0.995373 1.27157,1.55299 0.37522,0.562829 0.69312,1.151714 0.94848,1.771868 0.26056,0.625365 0.45338,1.266365 0.58367,1.922998 0.13028,0.661845 0.19803,1.328901 0.19803,2.001168 z m 0,0"
       transform="matrix(0.749562,0,0,0.749562,0.374781,0.374781)"
       id="path39" />
    <path
       style="fill:none;stroke:#bdbdbd;stroke-width:2.56;stroke-linecap:butt;stroke-linejoin:miter;stroke-miterlimit:10;stroke-opacity:1"
       d="M 251.17821,74.330153 V 169.16157"
       transform="matrix(0.749562,0,0,0.749562,0.374781,0.374781)"
       id="path41" />
    <path
       style="fill:#ffffff;fill-opacity:1;fill-rule:nonzero;stroke:#bdbdbd;stroke-width:5.13;stroke-linecap:butt;stroke-linejoin:miter;stroke-miterlimit:4;stroke-opacity:1"
       d="m 107.65169,97.400916 c 0,0.672267 -0.0625,1.339323 -0.19803,2.001168 -0.13028,0.656636 -0.3231,1.297636 -0.58367,1.922996 -0.25536,0.62016 -0.57326,1.20904 -0.94326,1.77187 -0.37522,0.55762 -0.80256,1.07875 -1.27679,1.55299 -0.47424,0.47423 -0.99537,0.90157 -1.55299,1.27679 -0.56283,0.37 -1.15171,0.6879 -1.77187,0.94326 -0.62536,0.26057 -1.26636,0.45339 -1.922996,0.58367 -0.661845,0.1355 -1.328901,0.19803 -2.001168,0.19803 -0.672268,0 -1.339324,-0.0625 -2.001169,-0.19803 -0.661845,-0.13028 -1.302844,-0.3231 -1.922998,-0.58367 -0.620153,-0.25536 -1.21425,-0.57326 -1.771868,-0.94326 -0.562828,-0.37522 -1.078755,-0.80256 -1.55299,-1.27679 -0.479446,-0.47424 -0.901568,-0.99537 -1.276787,-1.55299 -0.375219,-0.56283 -0.687902,-1.15171 -0.94847,-1.77187 -0.255358,-0.62536 -0.448179,-1.26636 -0.583675,-1.922996 -0.130284,-0.661845 -0.192821,-1.328901 -0.192821,-2.001168 0,-0.672268 0.06254,-1.339324 0.192821,-2.001169 0.135496,-0.661845 0.328317,-1.302844 0.583675,-1.922998 0.260568,-0.620153 0.573251,-1.21425 0.94847,-1.771868 0.375219,-0.562828 0.797341,-1.078755 1.276787,-1.55299 0.474235,-0.479446 0.990162,-0.901568 1.55299,-1.276787 0.557618,-0.375219 1.151715,-0.687902 1.771868,-0.94847 0.620154,-0.255358 1.261153,-0.448179 1.922998,-0.583675 0.661845,-0.130284 1.328901,-0.192821 2.001169,-0.192821 0.672267,0 1.339323,0.06254 2.001168,0.192821 0.656636,0.135496 1.297636,0.328317 1.922996,0.583675 0.62016,0.260568 1.20904,0.573251 1.77187,0.94847 0.55762,0.375219 1.07875,0.797341 1.55299,1.276787 0.47423,0.474235 0.90157,0.990162 1.27679,1.55299 0.37,0.557618 0.6879,1.151715 0.94326,1.771868 0.26057,0.620154 0.45339,1.261153 0.58367,1.922998 0.1355,0.661845 0.19803,1.328901 0.19803,2.001169 z m 0,0"
       transform="matrix(0.749562,0,0,0.749562,0.374781,0.374781)"
       id="path43" />
    <path
       style="fill:#ffffff;fill-opacity:1;fill-rule:nonzero;stroke:#bdbdbd;stroke-width:5.13;stroke-linecap:butt;stroke-linejoin:miter;stroke-miterlimit:4;stroke-opacity:1"
       d="m 210.16989,74.330153 c 0,0.672267 -0.0625,1.339323 -0.19282,2.001168 -0.1355,0.656634 -0.32832,1.297633 -0.58368,1.922998 -0.26057,0.620154 -0.57325,1.214251 -0.94847,1.771868 -0.37522,0.557617 -0.79734,1.078755 -1.27679,1.55299 -0.47423,0.474235 -0.99016,0.901568 -1.55299,1.276787 -0.55761,0.370008 -1.15171,0.687902 -1.77186,0.948471 -0.62016,0.255357 -1.26116,0.448178 -1.923,0.578463 -0.66185,0.135495 -1.3289,0.198032 -2.00117,0.198032 -0.67227,0 -1.33932,-0.06254 -2.00117,-0.198032 -0.65663,-0.130285 -1.29763,-0.323106 -1.923,-0.578463 -0.62015,-0.260569 -1.20903,-0.578463 -1.77186,-0.948471 -0.55762,-0.375219 -1.07876,-0.802552 -1.55299,-1.276787 -0.47424,-0.474235 -0.90157,-0.995373 -1.27679,-1.55299 -0.37001,-0.557617 -0.6879,-1.151714 -0.94326,-1.771868 -0.26057,-0.625365 -0.45339,-1.266364 -0.58367,-1.922998 -0.1355,-0.661845 -0.19804,-1.328901 -0.19804,-2.001168 0,-0.672268 0.0625,-1.339324 0.19804,-2.001169 0.13028,-0.661845 0.3231,-1.302844 0.58367,-1.922998 0.25536,-0.620153 0.57325,-1.21425 0.94326,-1.771868 0.37522,-0.557617 0.80255,-1.078755 1.27679,-1.55299 0.47423,-0.474235 0.99537,-0.901568 1.55299,-1.276787 0.56283,-0.375219 1.15171,-0.687902 1.77186,-0.94847 0.62537,-0.255358 1.26637,-0.448179 1.923,-0.583675 0.66185,-0.130284 1.3289,-0.192821 2.00117,-0.192821 0.67227,0 1.33932,0.06254 2.00117,0.192821 0.66184,0.135496 1.30284,0.328317 1.923,0.583675 0.62015,0.260568 1.21425,0.573251 1.77186,0.94847 0.56283,0.375219 1.07876,0.802552 1.55299,1.276787 0.47945,0.474235 0.90157,0.995373 1.27679,1.55299 0.37522,0.557618 0.6879,1.151715 0.94847,1.771868 0.25536,0.620154 0.44818,1.261153 0.58368,1.922998 0.13028,0.661845 0.19282,1.328901 0.19282,2.001169 z m 0,0"
       transform="matrix(0.749562,0,0,0.749562,0.374781,0.374781)"
       id="path45" />
    <path
       style="fill:#ffffff;fill-opacity:1;fill-rule:nonzero;stroke:#bdbdbd;stroke-width:5.13;stroke-linecap:butt;stroke-linejoin:miter;stroke-miterlimit:4;stroke-opacity:1"
       d="m 312.69329,53.818175 c 0,0.677479 -0.0677,1.339324 -0.19803,2.001169 -0.13028,0.661845 -0.32832,1.302844 -0.58367,1.922998 -0.25536,0.625365 -0.57325,1.214251 -0.94847,1.771868 -0.37522,0.562828 -0.79734,1.078755 -1.27158,1.55299 -0.47945,0.479447 -0.99537,0.901568 -1.5582,1.276787 -0.55762,0.375219 -1.1465,0.687902 -1.77187,0.948471 -0.62015,0.255357 -1.26115,0.453389 -1.923,0.583674 -0.65663,0.130284 -1.32369,0.198032 -1.99595,0.198032 -0.67748,0 -1.34454,-0.06775 -2.00117,-0.198032 -0.66185,-0.130285 -1.30285,-0.328317 -1.923,-0.583674 -0.62536,-0.260569 -1.21425,-0.573252 -1.77187,-0.948471 -0.56283,-0.375219 -1.07875,-0.79734 -1.5582,-1.276787 -0.47423,-0.474235 -0.89636,-0.990162 -1.27157,-1.55299 -0.37522,-0.557617 -0.69312,-1.146503 -0.94848,-1.771868 -0.25535,-0.620154 -0.45339,-1.261153 -0.58367,-1.922998 -0.13028,-0.661845 -0.19803,-1.32369 -0.19803,-2.001169 0,-0.672267 0.0677,-1.339323 0.19803,-1.995957 0.13028,-0.661844 0.32832,-1.302844 0.58367,-1.922998 0.25536,-0.625365 0.57326,-1.21425 0.94848,-1.777079 0.37521,-0.557617 0.79734,-1.073543 1.27157,-1.55299 0.47945,-0.474235 0.99537,-0.901568 1.5582,-1.271576 0.55762,-0.375219 1.14651,-0.693113 1.77187,-0.94847 0.62015,-0.260569 1.26115,-0.45339 1.923,-0.583674 0.65663,-0.130285 1.32369,-0.198033 2.00117,-0.198033 0.67226,0 1.33932,0.06775 1.99595,0.198033 0.66185,0.130284 1.30285,0.323105 1.923,0.583674 0.62537,0.255357 1.21425,0.573251 1.77187,0.94847 0.56283,0.370008 1.07875,0.797341 1.5582,1.271576 0.47424,0.479447 0.89636,0.995373 1.27158,1.55299 0.37522,0.562829 0.69311,1.151714 0.94847,1.777079 0.25535,0.620154 0.45339,1.261154 0.58367,1.922998 0.13029,0.656634 0.19803,1.32369 0.19803,1.995957 z m 0,0"
       transform="matrix(0.749562,0,0,0.749562,0.374781,0.374781)"
       id="path47" />
    <path
       style="fill:#ffffff;fill-opacity:1;fill-rule:nonzero;stroke:#bdbdbd;stroke-width:5.13;stroke-linecap:butt;stroke-linejoin:miter;stroke-miterlimit:4;stroke-opacity:1"
       d="m 415.21149,30.757835 c 0,0.677479 -0.0625,1.344535 -0.19803,2.001169 -0.13029,0.661845 -0.32311,1.302844 -0.58368,1.922998 -0.25535,0.625365 -0.57325,1.21425 -0.94326,1.771868 -0.37521,0.562828 -0.80255,1.078754 -1.27678,1.55299 -0.47424,0.479446 -0.99538,0.901568 -1.55299,1.276787 -0.56283,0.375219 -1.15172,0.693113 -1.77187,0.94847 -0.62537,0.255358 -1.26637,0.45339 -1.923,0.583675 -0.66184,0.130284 -1.3289,0.198032 -2.00117,0.198032 -0.67226,0 -1.33932,-0.06775 -2.00117,-0.198032 -0.66184,-0.130285 -1.30284,-0.328317 -1.92299,-0.583675 -0.62016,-0.255357 -1.21426,-0.573251 -1.77187,-0.94847 -0.56283,-0.375219 -1.07876,-0.797341 -1.55299,-1.276787 -0.47945,-0.474236 -0.90157,-0.990162 -1.27679,-1.55299 -0.37522,-0.557618 -0.6879,-1.146503 -0.94847,-1.771868 -0.25536,-0.620154 -0.44818,-1.261153 -0.58367,-1.922998 -0.13029,-0.656634 -0.19283,-1.32369 -0.19283,-2.001169 0,-0.672267 0.0625,-1.339324 0.19283,-1.995957 0.13549,-0.661845 0.32831,-1.302844 0.58367,-1.922998 0.26057,-0.625365 0.57325,-1.21425 0.94847,-1.777079 0.37522,-0.557617 0.79734,-1.073544 1.27679,-1.55299 0.47423,-0.474236 0.99016,-0.901568 1.55299,-1.271576 0.55761,-0.375219 1.15171,-0.693113 1.77187,-0.948471 0.62015,-0.260568 1.26115,-0.453389 1.92299,-0.583674 0.66185,-0.130284 1.32891,-0.198032 2.00117,-0.198032 0.67227,0 1.33933,0.06775 2.00117,0.198032 0.65663,0.130285 1.29763,0.323106 1.923,0.583674 0.62015,0.255358 1.20904,0.573252 1.77187,0.948471 0.55761,0.370008 1.07875,0.79734 1.55299,1.271576 0.47423,0.479446 0.90157,0.995373 1.27678,1.55299 0.37001,0.562829 0.68791,1.151714 0.94326,1.777079 0.26057,0.620154 0.45339,1.261153 0.58368,1.922998 0.13549,0.656633 0.19803,1.32369 0.19803,1.995957 z m 0,0"
       transform="matrix(0.749562,0,0,0.749562,0.374781,0.374781)"
       id="path49" />
    <path
       style="fill:#ffffff;fill-opacity:1;fill-rule:nonzero;stroke:#bdbdbd;stroke-width:5.13;stroke-linecap:butt;stroke-linejoin:miter;stroke-miterlimit:4;stroke-opacity:1"
       d="m 517.74011,56.392595 c 0,0.672268 -0.0625,1.339324 -0.19282,1.995957 -0.1355,0.661845 -0.32832,1.302845 -0.58368,1.922998 -0.26057,0.625366 -0.57325,1.214251 -0.94847,1.771868 -0.37522,0.562829 -0.79734,1.078755 -1.27679,1.558202 -0.47423,0.474235 -0.99537,0.896357 -1.55298,1.271576 -0.55762,0.375219 -1.15172,0.693113 -1.77187,0.94847 -0.62016,0.255358 -1.26116,0.45339 -1.923,0.583674 -0.66185,0.130285 -1.3289,0.198033 -2.00117,0.198033 -0.67227,0 -1.33932,-0.06775 -2.00117,-0.198033 -0.65663,-0.130284 -1.29763,-0.328316 -1.923,-0.583674 -0.62015,-0.255357 -1.20903,-0.573251 -1.77186,-0.94847 -0.55762,-0.375219 -1.07876,-0.797341 -1.55299,-1.271576 -0.47424,-0.479447 -0.90157,-0.995373 -1.27679,-1.558202 -0.37001,-0.557617 -0.6879,-1.146502 -0.94326,-1.771868 -0.26057,-0.620153 -0.45339,-1.261153 -0.58368,-1.922998 -0.13549,-0.656633 -0.19803,-1.323689 -0.19803,-1.995957 0,-0.677479 0.0625,-1.344535 0.19803,-2.001168 0.13029,-0.661845 0.32311,-1.302844 0.58368,-1.922998 0.25536,-0.625365 0.57325,-1.214251 0.94326,-1.771868 0.37522,-0.562829 0.80255,-1.078755 1.27679,-1.558201 0.47423,-0.474236 0.99537,-0.896357 1.55299,-1.271576 0.56283,-0.375219 1.15171,-0.693113 1.77186,-0.948471 0.62537,-0.255357 1.26637,-0.45339 1.923,-0.583674 0.66185,-0.130284 1.3289,-0.198032 2.00117,-0.198032 0.67227,0 1.33932,0.06775 2.00117,0.198032 0.66184,0.130284 1.30284,0.328317 1.923,0.583674 0.62015,0.255358 1.21425,0.573252 1.77187,0.948471 0.55761,0.375219 1.07875,0.79734 1.55298,1.271576 0.47945,0.479446 0.90157,0.995372 1.27679,1.558201 0.37522,0.557617 0.6879,1.146503 0.94847,1.771868 0.25536,0.620154 0.44818,1.261153 0.58368,1.922998 0.13028,0.656633 0.19282,1.323689 0.19282,2.001168 z m 0,0"
       transform="matrix(0.749562,0,0,0.749562,0.374781,0.374781)"
       id="path51" />
    <path
       style="fill:none;stroke:#bdbdbd;stroke-width:2.56;stroke-linecap:butt;stroke-linejoin:miter;stroke-miterlimit:10;stroke-opacity:1"
       d="m 97.400916,107.65169 v 61.50988"
       transform="matrix(0.749562,0,0,0.749562,0.374781,0.374781)"
       id="path53" />
    <path
       style="fill:none;stroke:#bdbdbd;stroke-width:2.56;stroke-linecap:butt;stroke-linejoin:miter;stroke-miterlimit:10;stroke-opacity:1"
       d="M 199.91911,169.16157 V 84.58093"
       transform="matrix(0.749562,0,0,0.749562,0.374781,0.374781)"
       id="path55" />
    <path
       style="fill:none;stroke:#bdbdbd;stroke-width:2.56;stroke-linecap:butt;stroke-linejoin:miter;stroke-miterlimit:10;stroke-opacity:1"
       d="M 302.44252,169.16157 V 64.079375"
       transform="matrix(0.749562,0,0,0.749562,0.374781,0.374781)"
       id="path57" />
    <path
       style="fill:none;stroke:#bdbdbd;stroke-width:2.56;stroke-linecap:butt;stroke-linejoin:miter;stroke-miterlimit:10;stroke-opacity:1"
       d="M 404.96071,169.16157 V 41.008612"
       transform="matrix(0.749562,0,0,0.749562,0.374781,0.374781)"
       id="path59" />
    <path
       style="fill:none;stroke:#bdbdbd;stroke-width:2.56;stroke-linecap:butt;stroke-linejoin:miter;stroke-miterlimit:10;stroke-opacity:1"
       d="M 507.48933,169.16157 V 66.638161"
       transform="matrix(0.749562,0,0,0.749562,0.374781,0.374781)"
       id="path61" />
    <path
       style="fill:#ffffff;fill-opacity:1;fill-rule:nonzero;stroke:#bdbdbd;stroke-width:5.13;stroke-linecap:butt;stroke-linejoin:miter;stroke-miterlimit:4;stroke-opacity:1"
       d="m 82.022144,102.51849 c 0,0.67226 -0.06775,1.33932 -0.198032,2.00117 -0.130285,0.66184 -0.323105,1.30284 -0.583674,1.92299 -0.255358,0.62016 -0.573252,1.21425 -0.948471,1.77187 -0.370008,0.56283 -0.79734,1.07876 -1.271576,1.55299 -0.479446,0.47945 -0.995373,0.90157 -1.55299,1.27679 -0.562828,0.37522 -1.151714,0.6879 -1.771868,0.94847 -0.625365,0.25536 -1.266364,0.45339 -1.922998,0.58367 -0.661844,0.13029 -1.328901,0.19804 -2.001168,0.19804 -0.672268,0 -1.339324,-0.0678 -2.001169,-0.19804 -0.661844,-0.13028 -1.302844,-0.32831 -1.922997,-0.58367 -0.620154,-0.26057 -1.214251,-0.57325 -1.771868,-0.94847 -0.562829,-0.37522 -1.078755,-0.79734 -1.552991,-1.27679 -0.479446,-0.47423 -0.901568,-0.99016 -1.276787,-1.55299 -0.375219,-0.55762 -0.687901,-1.15171 -0.94847,-1.77187 -0.255358,-0.62015 -0.45339,-1.26115 -0.583674,-1.92299 -0.130285,-0.66185 -0.198033,-1.32891 -0.198033,-2.00117 0,-0.67227 0.06775,-1.33933 0.198033,-2.00117 0.130284,-0.656635 0.328316,-1.297634 0.583674,-1.922999 0.260569,-0.620154 0.573251,-1.209039 0.94847,-1.771868 0.375219,-0.557617 0.797341,-1.073544 1.276787,-1.55299 0.474236,-0.474235 0.990162,-0.901568 1.552991,-1.271576 0.557617,-0.375219 1.151714,-0.693113 1.771868,-0.948471 0.620153,-0.260568 1.261153,-0.453389 1.922997,-0.583674 0.661845,-0.130284 1.328901,-0.198032 2.001169,-0.198032 0.672267,0 1.339324,0.06775 2.001168,0.198032 0.656634,0.130285 1.297633,0.323106 1.922998,0.583674 0.620154,0.255358 1.20904,0.573252 1.771868,0.948471 0.557617,0.370008 1.073544,0.797341 1.55299,1.271576 0.474236,0.479446 0.901568,0.995373 1.271576,1.55299 0.375219,0.562829 0.693113,1.151714 0.948471,1.771868 0.260569,0.625365 0.453389,1.266364 0.583674,1.922999 0.130284,0.66184 0.198032,1.3289 0.198032,2.00117 z m 0,0"
       transform="matrix(0.749562,0,0,0.749562,0.374781,0.374781)"
       id="path63" />
    <path
       style="fill:#ffffff;fill-opacity:1;fill-rule:nonzero;stroke:#bdbdbd;stroke-width:5.13;stroke-linecap:butt;stroke-linejoin:miter;stroke-miterlimit:4;stroke-opacity:1"
       d="m 133.28124,92.26771 c 0,0.677479 -0.0625,1.344535 -0.19803,2.001169 -0.13029,0.661844 -0.32311,1.302844 -0.58368,1.922997 -0.25535,0.625366 -0.57325,1.214251 -0.94325,1.771868 -0.37522,0.562829 -0.80256,1.078755 -1.27679,1.558202 -0.47424,0.474235 -0.99537,0.896354 -1.55299,1.271574 -0.56283,0.37522 -1.15171,0.69312 -1.77187,0.94847 -0.62536,0.25536 -1.26636,0.45339 -1.923,0.58368 -0.66184,0.13028 -1.3289,0.19803 -2.00117,0.19803 -0.67226,0 -1.33932,-0.0678 -2.00116,-0.19803 -0.66185,-0.13029 -1.30285,-0.32832 -1.923,-0.58368 -0.62016,-0.25535 -1.21425,-0.57325 -1.77187,-0.94847 -0.55762,-0.37522 -1.07876,-0.797339 -1.55299,-1.271574 -0.47945,-0.479447 -0.90157,-0.995373 -1.27679,-1.558202 -0.37522,-0.557617 -0.6879,-1.146502 -0.94847,-1.771868 -0.25535,-0.620153 -0.44818,-1.261153 -0.58367,-1.922997 -0.13029,-0.656634 -0.19282,-1.32369 -0.19282,-2.001169 0,-0.672268 0.0625,-1.339324 0.19282,-1.995957 0.13549,-0.661845 0.32832,-1.302844 0.58367,-1.922998 0.26057,-0.625365 0.57325,-1.214251 0.94847,-1.777079 0.37522,-0.557618 0.79734,-1.073544 1.27679,-1.55299 0.47423,-0.474236 0.99537,-0.901569 1.55299,-1.271576 0.55762,-0.375219 1.15171,-0.693113 1.77187,-0.948471 0.62015,-0.260569 1.26115,-0.45339 1.923,-0.583674 0.66184,-0.130284 1.3289,-0.198032 2.00116,-0.198032 0.67227,0 1.33933,0.06775 2.00117,0.198032 0.65664,0.130284 1.29764,0.323105 1.923,0.583674 0.62016,0.255358 1.20904,0.573252 1.77187,0.948471 0.55762,0.370007 1.07875,0.79734 1.55299,1.271576 0.47423,0.479446 0.90157,0.995372 1.27679,1.55299 0.37,0.562828 0.6879,1.151714 0.94325,1.777079 0.26057,0.620154 0.45339,1.261153 0.58368,1.922998 0.13549,0.656633 0.19803,1.323689 0.19803,1.995957 z m 0,0"
       transform="matrix(0.749562,0,0,0.749562,0.374781,0.374781)"
       id="path65" />
    <path
       style="fill:#ffffff;fill-opacity:1;fill-rule:nonzero;stroke:#bdbdbd;stroke-width:5.13;stroke-linecap:butt;stroke-linejoin:miter;stroke-miterlimit:4;stroke-opacity:1"
       d="m 184.54034,82.022144 c 0,0.672268 -0.0625,1.339324 -0.19282,1.995957 -0.1355,0.661845 -0.32832,1.302844 -0.58368,1.922998 -0.26057,0.625365 -0.57325,1.214251 -0.94847,1.777079 -0.37522,0.557618 -0.80255,1.073544 -1.27678,1.552991 -0.47424,0.474235 -0.99538,0.901568 -1.55299,1.271575 -0.55762,0.37522 -1.15172,0.693113 -1.77187,0.948471 -0.62016,0.260569 -1.26116,0.45339 -1.923,0.583674 -0.66184,0.130284 -1.3289,0.198032 -2.00117,0.198032 -0.67227,0 -1.33932,-0.06775 -2.00117,-0.198032 -0.65663,-0.130284 -1.29763,-0.323105 -1.92299,-0.583674 -0.62016,-0.255358 -1.20904,-0.573251 -1.77187,-0.948471 -0.55762,-0.370007 -1.07876,-0.79734 -1.55299,-1.271575 -0.47424,-0.479447 -0.90157,-0.995373 -1.27679,-1.552991 -0.37001,-0.562828 -0.6879,-1.151714 -0.94326,-1.777079 -0.26057,-0.620154 -0.45339,-1.261153 -0.58367,-1.922998 -0.1355,-0.656633 -0.19804,-1.323689 -0.19804,-1.995957 0,-0.677479 0.0625,-1.344535 0.19804,-2.001168 0.13028,-0.661845 0.3231,-1.302844 0.58367,-1.922998 0.25536,-0.625365 0.57325,-1.214251 0.94326,-1.771868 0.37522,-0.562829 0.80255,-1.078755 1.27679,-1.55299 0.47423,-0.479447 0.99537,-0.901568 1.55299,-1.276788 0.56283,-0.375219 1.15171,-0.693113 1.77187,-0.94847 0.62536,-0.255357 1.26636,-0.45339 1.92299,-0.583674 0.66185,-0.130285 1.3289,-0.198032 2.00117,-0.198032 0.67227,0 1.33933,0.06775 2.00117,0.198032 0.66184,0.130284 1.30284,0.328317 1.923,0.583674 0.62015,0.255357 1.21425,0.573251 1.77187,0.94847 0.55761,0.37522 1.07875,0.797341 1.55299,1.276788 0.47423,0.474235 0.90156,0.990161 1.27678,1.55299 0.37522,0.557617 0.6879,1.146503 0.94847,1.771868 0.25536,0.620154 0.44818,1.261153 0.58368,1.922998 0.13028,0.656633 0.19282,1.323689 0.19282,2.001168 z m 0,0"
       transform="matrix(0.749562,0,0,0.749562,0.374781,0.374781)"
       id="path67" />
    <path
       style="fill:#ffffff;fill-opacity:1;fill-rule:nonzero;stroke:#bdbdbd;stroke-width:5.13;stroke-linecap:butt;stroke-linejoin:miter;stroke-miterlimit:4;stroke-opacity:1"
       d="m 235.80465,69.202158 c 0,0.672268 -0.0678,1.339324 -0.19803,1.995958 -0.13029,0.661844 -0.32832,1.302844 -0.58368,1.922997 -0.26057,0.625366 -0.57325,1.214251 -0.94847,1.77708 -0.37522,0.557617 -0.79734,1.073543 -1.27679,1.55299 -0.47423,0.474235 -0.99016,0.901568 -1.55299,1.271576 -0.55761,0.375219 -1.15171,0.693113 -1.77186,0.94847 -0.62016,0.260569 -1.26116,0.45339 -1.923,0.583674 -0.66185,0.130285 -1.3289,0.198033 -2.00117,0.198033 -0.67227,0 -1.33932,-0.06775 -2.00117,-0.198033 -0.65663,-0.130284 -1.29763,-0.323105 -1.923,-0.583674 -0.62015,-0.255357 -1.20904,-0.573251 -1.77187,-0.94847 -0.55761,-0.370008 -1.07354,-0.797341 -1.55299,-1.271576 -0.47423,-0.479447 -0.90156,-0.995373 -1.27157,-1.55299 -0.37522,-0.562829 -0.69311,-1.151714 -0.94847,-1.77708 -0.26057,-0.620153 -0.45339,-1.261153 -0.58368,-1.922997 -0.13028,-0.656634 -0.19803,-1.32369 -0.19803,-1.995958 0,-0.677479 0.0678,-1.344535 0.19803,-2.001168 0.13029,-0.661845 0.32311,-1.302844 0.58368,-1.922998 0.25536,-0.625365 0.57325,-1.214251 0.94847,-1.771868 0.37001,-0.562829 0.79734,-1.078755 1.27157,-1.55299 0.47945,-0.479447 0.99538,-0.901568 1.55299,-1.276787 0.56283,-0.375219 1.15172,-0.693113 1.77187,-0.948471 0.62537,-0.255357 1.26637,-0.45339 1.923,-0.583674 0.66185,-0.130284 1.3289,-0.198032 2.00117,-0.198032 0.67227,0 1.33932,0.06775 2.00117,0.198032 0.66184,0.130284 1.30284,0.328317 1.923,0.583674 0.62015,0.255358 1.21425,0.573252 1.77186,0.948471 0.56283,0.375219 1.07876,0.79734 1.55299,1.276787 0.47945,0.474235 0.90157,0.990161 1.27679,1.55299 0.37522,0.557617 0.6879,1.146503 0.94847,1.771868 0.25536,0.620154 0.45339,1.261153 0.58368,1.922998 0.13028,0.656633 0.19803,1.323689 0.19803,2.001168 z m 0,0"
       transform="matrix(0.749562,0,0,0.749562,0.374781,0.374781)"
       id="path69" />
    <path
       style="fill:#ffffff;fill-opacity:1;fill-rule:nonzero;stroke:#bdbdbd;stroke-width:5.13;stroke-linecap:butt;stroke-linejoin:miter;stroke-miterlimit:4;stroke-opacity:1"
       d="m 287.06375,58.951381 c 0,0.672268 -0.0678,1.339324 -0.19804,2.001169 -0.13028,0.656633 -0.32831,1.297632 -0.58367,1.922998 -0.25536,0.620153 -0.57325,1.209039 -0.94847,1.771867 -0.37522,0.557618 -0.79734,1.073544 -1.27158,1.552991 -0.47944,0.474235 -0.99537,0.901568 -1.5582,1.271575 -0.55762,0.37522 -1.1465,0.693113 -1.77187,0.948471 -0.62015,0.260569 -1.26115,0.45339 -1.92299,0.583674 -0.65664,0.130284 -1.32369,0.198032 -2.00117,0.198032 -0.67227,0 -1.33933,-0.06775 -1.99596,-0.198032 -0.66185,-0.130284 -1.30284,-0.323105 -1.923,-0.583674 -0.62536,-0.255358 -1.21425,-0.573251 -1.77708,-0.948471 -0.55761,-0.370007 -1.07354,-0.79734 -1.55299,-1.271575 -0.47423,-0.479447 -0.90156,-0.995373 -1.27157,-1.552991 -0.37522,-0.562828 -0.69312,-1.151714 -0.94847,-1.771867 -0.26057,-0.625366 -0.45339,-1.266365 -0.58368,-1.922998 -0.13028,-0.661845 -0.19803,-1.328901 -0.19803,-2.001169 0,-0.672267 0.0677,-1.339324 0.19803,-2.001168 0.13029,-0.661845 0.32311,-1.302844 0.58368,-1.922998 0.25535,-0.620154 0.57325,-1.214251 0.94847,-1.771868 0.37001,-0.562829 0.79734,-1.078755 1.27157,-1.55299 0.47945,-0.479447 0.99538,-0.901568 1.55299,-1.276788 0.56283,-0.375219 1.15172,-0.687901 1.77708,-0.94847 0.62016,-0.255357 1.26115,-0.45339 1.923,-0.583674 0.65663,-0.130285 1.32369,-0.198032 1.99596,-0.198032 0.67748,0 1.34453,0.06775 2.00117,0.198032 0.66184,0.130284 1.30284,0.328317 1.92299,0.583674 0.62537,0.260569 1.21425,0.573251 1.77187,0.94847 0.56283,0.37522 1.07876,0.797341 1.5582,1.276788 0.47424,0.474235 0.89636,0.990161 1.27158,1.55299 0.37522,0.557617 0.69311,1.151714 0.94847,1.771868 0.25536,0.620154 0.45339,1.261153 0.58367,1.922998 0.13029,0.661844 0.19804,1.328901 0.19804,2.001168 z m 0,0"
       transform="matrix(0.749562,0,0,0.749562,0.374781,0.374781)"
       id="path71" />
    <path
       style="fill:#ffffff;fill-opacity:1;fill-rule:nonzero;stroke:#bdbdbd;stroke-width:5.13;stroke-linecap:butt;stroke-linejoin:miter;stroke-miterlimit:4;stroke-opacity:1"
       d="m 338.32284,47.418605 c 0,0.672268 -0.0677,1.339324 -0.19803,2.001169 -0.13028,0.661845 -0.3231,1.302844 -0.58367,1.922998 -0.25536,0.620153 -0.57325,1.21425 -0.94847,1.771868 -0.37001,0.562828 -0.79734,1.078755 -1.27158,1.55299 -0.47945,0.479446 -0.99537,0.901568 -1.55299,1.276787 -0.56283,0.375219 -1.15171,0.687902 -1.77708,0.94847 -0.62015,0.255358 -1.26115,0.45339 -1.923,0.583675 -0.65663,0.130284 -1.32369,0.198032 -1.99595,0.198032 -0.67748,0 -1.34454,-0.06775 -2.00117,-0.198032 -0.66185,-0.130285 -1.30285,-0.328317 -1.923,-0.583675 -0.62537,-0.260568 -1.21425,-0.573251 -1.77187,-0.94847 -0.56283,-0.375219 -1.07875,-0.797341 -1.55299,-1.276787 -0.47945,-0.474235 -0.90157,-0.990162 -1.27679,-1.55299 -0.37521,-0.557618 -0.69311,-1.151715 -0.94847,-1.771868 -0.25535,-0.620154 -0.45339,-1.261153 -0.58367,-1.922998 -0.13029,-0.661845 -0.19803,-1.328901 -0.19803,-2.001169 0,-0.672267 0.0677,-1.339323 0.19803,-2.001168 0.13028,-0.656634 0.32832,-1.297633 0.58367,-1.922998 0.25536,-0.620154 0.57326,-1.209039 0.94847,-1.771868 0.37522,-0.557617 0.79734,-1.073544 1.27679,-1.55299 0.47424,-0.474235 0.99016,-0.901568 1.55299,-1.271576 0.55762,-0.375219 1.1465,-0.693113 1.77187,-0.94847 0.62015,-0.260569 1.26115,-0.45339 1.923,-0.583675 0.65663,-0.130284 1.32369,-0.198032 2.00117,-0.198032 0.67226,0 1.33932,0.06775 1.99595,0.198032 0.66185,0.130285 1.30285,0.323106 1.923,0.583675 0.62537,0.255357 1.21425,0.573251 1.77708,0.94847 0.55762,0.370008 1.07354,0.797341 1.55299,1.271576 0.47424,0.479446 0.90157,0.995373 1.27158,1.55299 0.37522,0.562829 0.69311,1.151714 0.94847,1.771868 0.26057,0.625365 0.45339,1.266364 0.58367,1.922998 0.13028,0.661845 0.19803,1.328901 0.19803,2.001168 z m 0,0"
       transform="matrix(0.749562,0,0,0.749562,0.374781,0.374781)"
       id="path73" />
    <path
       style="fill:#ffffff;fill-opacity:1;fill-rule:nonzero;stroke:#bdbdbd;stroke-width:5.13;stroke-linecap:butt;stroke-linejoin:miter;stroke-miterlimit:4;stroke-opacity:1"
       d="m 389.58194,35.880618 c 0,0.672268 -0.0677,1.339324 -0.19803,2.001169 -0.13029,0.656633 -0.32311,1.297632 -0.58368,1.922998 -0.25535,0.620153 -0.57325,1.209039 -0.94326,1.771867 -0.37521,0.557618 -0.80255,1.078755 -1.27678,1.552991 -0.47424,0.474235 -0.99538,0.901568 -1.55299,1.276787 -0.56283,0.370008 -1.15172,0.687901 -1.77187,0.943259 -0.62536,0.260569 -1.26636,0.45339 -1.923,0.583674 -0.66184,0.135496 -1.3289,0.198032 -2.00117,0.198032 -0.67226,0 -1.33932,-0.06254 -2.00117,-0.198032 -0.66184,-0.130284 -1.30284,-0.323105 -1.92299,-0.583674 -0.62016,-0.255358 -1.21425,-0.573251 -1.77187,-0.943259 -0.56283,-0.375219 -1.07876,-0.802552 -1.55299,-1.276787 -0.47945,-0.474236 -0.90157,-0.995373 -1.27679,-1.552991 -0.37522,-0.562828 -0.6879,-1.151714 -0.94847,-1.771867 -0.25536,-0.625366 -0.45339,-1.266365 -0.58367,-1.922998 -0.13029,-0.661845 -0.19804,-1.328901 -0.19804,-2.001169 0,-0.672267 0.0677,-1.339324 0.19804,-2.001168 0.13028,-0.661845 0.32831,-1.302844 0.58367,-1.922998 0.26057,-0.620154 0.57325,-1.214251 0.94847,-1.771868 0.37522,-0.557617 0.79734,-1.078755 1.27679,-1.55299 0.47423,-0.479447 0.99016,-0.901568 1.55299,-1.276788 0.55762,-0.375219 1.15171,-0.687901 1.77187,-0.94847 0.62015,-0.255357 1.26115,-0.448178 1.92299,-0.583674 0.66185,-0.130285 1.32891,-0.192821 2.00117,-0.192821 0.67227,0 1.33933,0.06254 2.00117,0.192821 0.65664,0.135496 1.29764,0.328317 1.923,0.583674 0.62015,0.260569 1.20904,0.573251 1.77187,0.94847 0.55761,0.37522 1.07875,0.797341 1.55299,1.276788 0.47423,0.474235 0.90157,0.995373 1.27678,1.55299 0.37001,0.557617 0.68791,1.151714 0.94326,1.771868 0.26057,0.620154 0.45339,1.261153 0.58368,1.922998 0.13028,0.661844 0.19803,1.328901 0.19803,2.001168 z m 0,0"
       transform="matrix(0.749562,0,0,0.749562,0.374781,0.374781)"
       id="path75" />
    <path
       style="fill:#ffffff;fill-opacity:1;fill-rule:nonzero;stroke:#bdbdbd;stroke-width:5.13;stroke-linecap:butt;stroke-linejoin:miter;stroke-miterlimit:4;stroke-opacity:1"
       d="m 440.84104,25.629841 c 0,0.672267 -0.0625,1.339324 -0.19803,2.001168 -0.13029,0.661845 -0.32311,1.302844 -0.58368,1.922998 -0.25536,0.620154 -0.57325,1.214251 -0.94326,1.771868 -0.37522,0.557617 -0.80255,1.078755 -1.27678,1.55299 -0.47424,0.474236 -0.99538,0.901568 -1.553,1.276788 -0.56282,0.375219 -1.15171,0.687901 -1.77186,0.94847 -0.62537,0.255358 -1.26637,0.448178 -1.923,0.583674 -0.66185,0.130285 -1.3289,0.192821 -2.00117,0.192821 -0.67227,0 -1.33932,-0.06254 -2.00117,-0.192821 -0.66184,-0.135496 -1.30284,-0.328316 -1.923,-0.583674 -0.62015,-0.260569 -1.21425,-0.573251 -1.77186,-0.94847 -0.55762,-0.37522 -1.07876,-0.802552 -1.55299,-1.276788 -0.47424,-0.474235 -0.90157,-0.995373 -1.27679,-1.55299 -0.37522,-0.557617 -0.6879,-1.151714 -0.94847,-1.771868 -0.25536,-0.620154 -0.44818,-1.261153 -0.58368,-1.922998 -0.13028,-0.661844 -0.19282,-1.328901 -0.19282,-2.001168 0,-0.672268 0.0625,-1.339324 0.19282,-2.001169 0.1355,-0.656633 0.32832,-1.297632 0.58368,-1.922997 0.26057,-0.620154 0.57325,-1.214251 0.94847,-1.771868 0.37522,-0.557618 0.80255,-1.078755 1.27679,-1.552991 0.47423,-0.474235 0.99537,-0.901568 1.55299,-1.276787 0.55761,-0.370007 1.15171,-0.687901 1.77186,-0.94847 0.62016,-0.255358 1.26116,-0.448179 1.923,-0.578463 0.66185,-0.135496 1.3289,-0.198032 2.00117,-0.198032 0.67227,0 1.33932,0.06254 2.00117,0.198032 0.65663,0.130284 1.29763,0.323105 1.923,0.578463 0.62015,0.260569 1.20904,0.578463 1.77186,0.94847 0.55762,0.375219 1.07876,0.802552 1.553,1.276787 0.47423,0.474236 0.90156,0.995373 1.27678,1.552991 0.37001,0.557617 0.6879,1.151714 0.94326,1.771868 0.26057,0.625365 0.45339,1.266364 0.58368,1.922997 0.13549,0.661845 0.19803,1.328901 0.19803,2.001169 z m 0,0"
       transform="matrix(0.749562,0,0,0.749562,0.374781,0.374781)"
       id="path77" />
    <path
       style="fill:#ffffff;fill-opacity:1;fill-rule:nonzero;stroke:#bdbdbd;stroke-width:5.13;stroke-linecap:butt;stroke-linejoin:miter;stroke-miterlimit:4;stroke-opacity:1"
       d="m 492.11056,38.449827 c 0,0.672267 -0.0625,1.339323 -0.19282,2.001168 -0.1355,0.661845 -0.32832,1.302844 -0.58368,1.922998 -0.26057,0.620154 -0.57325,1.214251 -0.94847,1.771868 -0.37522,0.557617 -0.80255,1.078755 -1.27678,1.55299 -0.47424,0.474235 -0.99538,0.901568 -1.55299,1.276787 -0.55762,0.375219 -1.15172,0.687902 -1.77187,0.948471 -0.62016,0.255357 -1.26116,0.448178 -1.923,0.583674 -0.66185,0.130284 -1.3289,0.192821 -2.00117,0.192821 -0.67227,0 -1.33932,-0.06254 -2.00117,-0.192821 -0.65663,-0.135496 -1.29763,-0.328317 -1.923,-0.583674 -0.62015,-0.260569 -1.21425,-0.573252 -1.77186,-0.948471 -0.55762,-0.375219 -1.07876,-0.802552 -1.55299,-1.276787 -0.47424,-0.474235 -0.90157,-0.995373 -1.27679,-1.55299 -0.37001,-0.557617 -0.6879,-1.151714 -0.94847,-1.771868 -0.25536,-0.620154 -0.44818,-1.261153 -0.57846,-1.922998 -0.1355,-0.661845 -0.19804,-1.328901 -0.19804,-2.001168 0,-0.672268 0.0625,-1.339324 0.19804,-2.001169 0.13028,-0.656633 0.3231,-1.297633 0.57846,-1.922998 0.26057,-0.620153 0.57846,-1.21425 0.94847,-1.771868 0.37522,-0.557617 0.80255,-1.078755 1.27679,-1.55299 0.47423,-0.474235 0.99537,-0.901568 1.55299,-1.276787 0.55761,-0.370008 1.15171,-0.687902 1.77186,-0.943259 0.62537,-0.260569 1.26637,-0.45339 1.923,-0.583674 0.66185,-0.135496 1.3289,-0.198033 2.00117,-0.198033 0.67227,0 1.33932,0.06254 2.00117,0.198033 0.66184,0.130284 1.30284,0.323105 1.923,0.583674 0.62015,0.255357 1.21425,0.573251 1.77187,0.943259 0.55761,0.375219 1.07875,0.802552 1.55299,1.276787 0.47423,0.474235 0.90156,0.995373 1.27678,1.55299 0.37522,0.557618 0.6879,1.151715 0.94847,1.771868 0.25536,0.625365 0.44818,1.266365 0.58368,1.922998 0.13028,0.661845 0.19282,1.328901 0.19282,2.001169 z m 0,0"
       transform="matrix(0.749562,0,0,0.749562,0.374781,0.374781)"
       id="path79" />
    <path
       style="fill:none;stroke:#bdbdbd;stroke-width:2.56;stroke-linecap:butt;stroke-linejoin:miter;stroke-miterlimit:10;stroke-opacity:1"
       d="M 71.771367,169.16157 V 112.76926"
       transform="matrix(0.749562,0,0,0.749562,0.374781,0.374781)"
       id="path81" />
    <path
       style="fill:none;stroke:#bdbdbd;stroke-width:2.56;stroke-linecap:butt;stroke-linejoin:miter;stroke-miterlimit:10;stroke-opacity:1"
       d="M 123.03046,169.16157 V 102.51849"
       transform="matrix(0.749562,0,0,0.749562,0.374781,0.374781)"
       id="path83" />
    <path
       style="fill:none;stroke:#bdbdbd;stroke-width:2.56;stroke-linecap:butt;stroke-linejoin:miter;stroke-miterlimit:10;stroke-opacity:1"
       d="M 174.28956,169.16157 V 92.26771"
       transform="matrix(0.749562,0,0,0.749562,0.374781,0.374781)"
       id="path85" />
    <path
       style="fill:none;stroke:#bdbdbd;stroke-width:2.56;stroke-linecap:butt;stroke-linejoin:miter;stroke-miterlimit:10;stroke-opacity:1"
       d="M 225.54866,169.16157 V 79.447724"
       transform="matrix(0.749562,0,0,0.749562,0.374781,0.374781)"
       id="path87" />
    <path
       style="fill:none;stroke:#bdbdbd;stroke-width:2.56;stroke-linecap:butt;stroke-linejoin:miter;stroke-miterlimit:10;stroke-opacity:1"
       d="M 276.80776,169.16157 V 69.202158"
       transform="matrix(0.749562,0,0,0.749562,0.374781,0.374781)"
       id="path89" />
    <path
       style="fill:none;stroke:#bdbdbd;stroke-width:2.56;stroke-linecap:butt;stroke-linejoin:miter;stroke-miterlimit:10;stroke-opacity:1"
       d="M 328.07207,169.16157 V 57.669383"
       transform="matrix(0.749562,0,0,0.749562,0.374781,0.374781)"
       id="path91" />
    <path
       style="fill:none;stroke:#bdbdbd;stroke-width:2.56;stroke-linecap:butt;stroke-linejoin:miter;stroke-miterlimit:10;stroke-opacity:1"
       d="M 379.33116,46.141818 V 169.16157"
       transform="matrix(0.749562,0,0,0.749562,0.374781,0.374781)"
       id="path93" />
    <path
       style="fill:none;stroke:#bdbdbd;stroke-width:2.56;stroke-linecap:butt;stroke-linejoin:miter;stroke-miterlimit:10;stroke-opacity:1"
       d="M 430.59026,169.16157 V 34.79144"
       transform="matrix(0.749562,0,0,0.749562,0.374781,0.374781)"
       id="path95" />
    <path
       style="fill:none;stroke:#bdbdbd;stroke-width:2.56;stroke-linecap:butt;stroke-linejoin:miter;stroke-miterlimit:10;stroke-opacity:1"
       d="M 481.85978,169.16157 V 48.700604"
       transform="matrix(0.749562,0,0,0.749562,0.374781,0.374781)"
       id="path97" />
    <path
       style="fill:none;stroke:#bdbdbd;stroke-width:5.13;stroke-linecap:butt;stroke-linejoin:miter;stroke-miterlimit:10;stroke-opacity:1"
       d="M 527.39158,169.16157 H 25.629841"
       transform="matrix(0.749562,0,0,0.749562,0.374781,0.374781)"
       id="path99" />
    <path
       style="fill:#bdbdbd;fill-opacity:1;fill-rule:nonzero;stroke:none"
       d="m 407.20703,127.17188 -11.51953,5.76171 v -11.52734 z m 0,0"
       id="path101" />
    <g
       clip-path="url(#clip3)"
       clip-rule="nonzero"
       id="g105">
      <path
         style="fill:none;stroke:#bdbdbd;stroke-width:5.13;stroke-linecap:butt;stroke-linejoin:miter;stroke-miterlimit:10;stroke-opacity:1"
         d="m 542.75992,169.16157 -15.36834,7.68678 v -15.37877 z m 0,0"
         transform="matrix(0.749562,0,0,0.749562,0.374781,0.374781)"
         id="path103" />
    </g>
  </g>
</svg>
