<?xml version="1.0" encoding="utf-8"?>
<!-- Generator: Adobe Illustrator 24.0.0, SVG Export Plug-In . SVG Version: 6.00 Build 0)  -->
<svg version="1.1" id="Capa_1" xmlns="http://www.w3.org/2000/svg" xmlns:xlink="http://www.w3.org/1999/xlink" x="0px" y="0px"
	 viewBox="0 0 512 512" style="enable-background:new 0 0 512 512;" xml:space="preserve">
<style type="text/css">
	.st0{fill:#BDBDBD;}
</style>
<g>
	<g>
		<path class="st0" d="M256,0C114.8,0,0,114.8,0,256s114.8,256,256,256s256-114.8,256-256S397.2,0,256,0z M256,465.5
			c-115.5,0-209.5-94-209.5-209.5S140.5,46.5,256,46.5s209.5,94,209.5,209.5S371.5,465.5,256,465.5z"/>
	</g>
</g>
<g>
	<g>
		<path class="st0" d="M318.1,139.6c-12.9,0-23.3,10.4-23.3,23.3v186.2c0,12.9,10.4,23.3,23.3,23.3s23.3-10.4,23.3-23.3V162.9
			C341.3,150.1,330.9,139.6,318.1,139.6z"/>
	</g>
</g>
<g>
	<g>
		<path class="st0" d="M193.9,139.6c-12.9,0-23.3,10.4-23.3,23.3v186.2c0,12.9,10.4,23.3,23.3,23.3s23.3-10.4,23.3-23.3V162.9
			C217.2,150.1,206.8,139.6,193.9,139.6z"/>
	</g>
</g>
</svg>
