<?xml version="1.0" encoding="utf-8"?>
<!-- Generator: Adobe Illustrator 24.0.0, SVG Export Plug-In . SVG Version: 6.00 Build 0)  -->
<svg version="1.1" id="Ebene_1" xmlns="http://www.w3.org/2000/svg" xmlns:xlink="http://www.w3.org/1999/xlink" x="0px" y="0px"
	 viewBox="0 0 163.3 71.2" style="enable-background:new 0 0 163.3 71.2;" xml:space="preserve">
<style type="text/css">
	.st0{fill:#FFFFFF;}
	.st1{fill:none;stroke:#000000;stroke-width:0.2833;stroke-miterlimit:10;}
	.st2{display:none;}
</style>
<g id="New_Layer">
	<g id="XMLID_1_">
		<g>
			<path class="st0" d="M13.5,13c4,0,18,0,42,0s38,0,42,0s6,2.7,6,8v8l40-16l-40,32v8c0,5.3-2,8-6,8s-18,0-42,0s-38,0-42,0
				s-6-2.7-6-8c0,0,0-10.7,0-32C7.5,15.7,9.5,13,13.5,13z"/>
		</g>
		<g>
			<polyline class="st1" points="103.5,21 103.5,29 143.5,13 103.5,45 103.5,53 			"/>
			<path class="st1" d="M103.5,21c0-5.3-2-8-6-8s-18,0-42,0"/>
			<path class="st1" d="M55.5,61c24,0,38,0,42,0s6-2.7,6-8"/>
			<path class="st1" d="M55.5,13c-24,0-38,0-42,0s-6,2.7-6,8"/>
			<path class="st1" d="M7.5,53c0,5.3,2,8,6,8s18,0,42,0"/>
			<path class="st1" d="M7.5,21c0,21.3,0,32,0,32"/>
		</g>
	</g>
</g>
<g id="MasterLayer_1" class="st2">
</g>
</svg>
