<?xml version="1.0" encoding="utf-8"?>
<!-- Generator: Adobe Illustrator 24.0.0, SVG Export Plug-In . SVG Version: 6.00 Build 0)  -->
<svg version="1.1" xmlns="http://www.w3.org/2000/svg" xmlns:xlink="http://www.w3.org/1999/xlink" x="0px" y="0px"
	 viewBox="0 0 163.3 71.2" style="enable-background:new 0 0 163.3 71.2;" xml:space="preserve">
<style type="text/css">
	.st0{fill:#FFFFFF;}
	.st1{fill:none;stroke:#000000;stroke-width:0.2833;stroke-miterlimit:10;}
	.st2{display:none;}
</style>
<g id="New_Layer">
	<g id="XMLID_1_">
		<g>
			<path class="st0" d="M143.5,21c0,21.3,0,32,0,32c0,5.3-2,8-6,8s-18,0-42,0s-38,0-42,0s-6-2.7-6-8v-8l-40-32l40,16v-8
				c0-5.3,2-8,6-8s18,0,42,0s38,0,42,0S143.5,15.7,143.5,21z"/>
		</g>
		<g>
			<polyline class="st1" points="47.5,53 47.5,45 7.5,13 47.5,29 47.5,21 			"/>
			<path class="st1" d="M95.5,13c-24,0-38,0-42,0s-6,2.7-6,8"/>
			<path class="st1" d="M47.5,53c0,5.3,2,8,6,8s18,0,42,0"/>
			<path class="st1" d="M143.5,21c0-5.3-2-8-6-8s-18,0-42,0"/>
			<path class="st1" d="M95.5,61c24,0,38,0,42,0s6-2.7,6-8"/>
			<path class="st1" d="M143.5,53c0,0,0-10.7,0-32"/>
		</g>
	</g>
</g>
<g id="MasterLayer_1" class="st2">
</g>
</svg>
