<?xml version="1.0" encoding="utf-8"?>
<!-- Generator: Adobe Illustrator 24.0.0, SVG Export Plug-In . SVG Version: 6.00 Build 0)  -->
<svg version="1.1" id="Ebene_1" xmlns="http://www.w3.org/2000/svg" xmlns:xlink="http://www.w3.org/1999/xlink" x="0px" y="0px"
	 viewBox="0 0 27.9 37.2" style="enable-background:new 0 0 27.9 37.2;" xml:space="preserve">
<style type="text/css">
	.st0{display:none;}
	.st1{fill:#FFFFFF;}
	.st2{fill:none;stroke:#000000;stroke-width:0.2833;stroke-miterlimit:10;}
</style>
<g id="MasterLayer_1" class="st0">
</g>
<g id="XMLID_1_">
	<g>
		<path class="st1" d="M26.9,30.9v2.5c0,1.6-0.5,2.5-1.6,2.5c-1.1,0-4.8,0-11.3,0s-10.2,0-11.3,0S1.2,35,1.2,33.3c0,0,0-3.3,0-9.9
			c0-1.6,0.5-2.5,1.6-2.5c1,0,0.5,0,6.3,0h0.6h1.5L7,0.7L17.6,21h2.6c6.4,0,4,0,5.1,0c1.1,0,1.6,0.8,1.6,2.5v2.5V30.9z"/>
	</g>
	<g>
		<polyline class="st2" points="26.9,25.9 26.9,30.9 26.9,33.3 		"/>
		<line class="st2" x1="26.9" y1="23.5" x2="26.9" y2="25.9"/>
		<path class="st2" d="M26.9,23.5c0-1.6-0.5-2.5-1.6-2.5c-1.1,0,1.3,0-5.1,0"/>
		<path class="st2" d="M14.1,35.8c6.4,0,10.2,0,11.3,0c1.1,0,1.6-0.8,1.6-2.5"/>
		<path class="st2" d="M9.1,21c-5.8,0-5.3,0-6.3,0c-1.1,0-1.6,0.8-1.6,2.5"/>
		<path class="st2" d="M1.2,33.3c0,1.6,0.5,2.5,1.6,2.5s4.8,0,11.3,0"/>
		<path class="st2" d="M1.2,23.5c0,6.6,0,9.9,0,9.9"/>
		<polyline class="st2" points="7,0.7 17.6,21 20.2,21 		"/>
		<polyline class="st2" points="9.1,21 9.7,21 11.2,21 7,0.7 		"/>
	</g>
</g>
</svg>
