<svg class="main-svg" xmlns="http://www.w3.org/2000/svg" xmlns:xlink="http://www.w3.org/1999/xlink" width="285" height="147" style="" viewBox="0 0 285 147"><rect x="0" y="0" width="285" height="147" style="fill: rgb(0, 0, 0); fill-opacity: 0;"/><defs id="defs-a31e22"><g class="clips"><clipPath id="clipa31e22xyplot" class="plotclip"><rect width="260" height="147"/></clipPath><clipPath class="axesclip" id="clipa31e22x"><rect x="25" y="0" width="260" height="147"/></clipPath><clipPath class="axesclip" id="clipa31e22y"><rect x="0" y="0" width="285" height="147"/></clipPath><clipPath class="axesclip" id="clipa31e22xy"><rect x="25" y="0" width="260" height="147"/></clipPath></g><g class="gradients"/><g class="patterns"/></defs><g class="bglayer"><rect class="bg" x="25" y="0" width="260" height="147" style="fill: rgb(0, 0, 0); fill-opacity: 0; stroke-width: 0;"/></g><g class="layer-below"><g class="imagelayer"/><g class="shapelayer"/></g><g class="cartesianlayer"><g class="subplot xy"><g class="layer-subplot"><g class="shapelayer"/><g class="imagelayer"/></g><g class="gridlayer"><g class="x"><path class="xgrid crisp" transform="translate(29.19,0)" d="M0,0v147" style="stroke: rgb(235, 240, 248); stroke-opacity: 1; stroke-width: 1px;"/><path class="xgrid crisp" transform="translate(43.17,0)" d="M0,0v147" style="stroke: rgb(235, 240, 248); stroke-opacity: 1; stroke-width: 1px;"/><path class="xgrid crisp" transform="translate(57.15,0)" d="M0,0v147" style="stroke: rgb(235, 240, 248); stroke-opacity: 1; stroke-width: 1px;"/><path class="xgrid crisp" transform="translate(71.13,0)" d="M0,0v147" style="stroke: rgb(235, 240, 248); stroke-opacity: 1; stroke-width: 1px;"/><path class="xgrid crisp" transform="translate(85.11,0)" d="M0,0v147" style="stroke: rgb(235, 240, 248); stroke-opacity: 1; stroke-width: 1px;"/><path class="xgrid crisp" transform="translate(99.09,0)" d="M0,0v147" style="stroke: rgb(235, 240, 248); stroke-opacity: 1; stroke-width: 1px;"/><path class="xgrid crisp" transform="translate(113.06,0)" d="M0,0v147" style="stroke: rgb(235, 240, 248); stroke-opacity: 1; stroke-width: 1px;"/><path class="xgrid crisp" transform="translate(127.04,0)" d="M0,0v147" style="stroke: rgb(235, 240, 248); stroke-opacity: 1; stroke-width: 1px;"/><path class="xgrid crisp" transform="translate(141.01999999999998,0)" d="M0,0v147" style="stroke: rgb(235, 240, 248); stroke-opacity: 1; stroke-width: 1px;"/><path class="xgrid crisp" transform="translate(155,0)" d="M0,0v147" style="stroke: rgb(235, 240, 248); stroke-opacity: 1; stroke-width: 1px;"/><path class="xgrid crisp" transform="translate(168.98,0)" d="M0,0v147" style="stroke: rgb(235, 240, 248); stroke-opacity: 1; stroke-width: 1px;"/><path class="xgrid crisp" transform="translate(182.96,0)" d="M0,0v147" style="stroke: rgb(235, 240, 248); stroke-opacity: 1; stroke-width: 1px;"/><path class="xgrid crisp" transform="translate(196.94,0)" d="M0,0v147" style="stroke: rgb(235, 240, 248); stroke-opacity: 1; stroke-width: 1px;"/><path class="xgrid crisp" transform="translate(210.91,0)" d="M0,0v147" style="stroke: rgb(235, 240, 248); stroke-opacity: 1; stroke-width: 1px;"/><path class="xgrid crisp" transform="translate(224.89,0)" d="M0,0v147" style="stroke: rgb(235, 240, 248); stroke-opacity: 1; stroke-width: 1px;"/><path class="xgrid crisp" transform="translate(238.87,0)" d="M0,0v147" style="stroke: rgb(235, 240, 248); stroke-opacity: 1; stroke-width: 1px;"/><path class="xgrid crisp" transform="translate(252.85,0)" d="M0,0v147" style="stroke: rgb(235, 240, 248); stroke-opacity: 1; stroke-width: 1px;"/><path class="xgrid crisp" transform="translate(266.83000000000004,0)" d="M0,0v147" style="stroke: rgb(235, 240, 248); stroke-opacity: 1; stroke-width: 1px;"/><path class="xgrid crisp" transform="translate(280.81,0)" d="M0,0v147" style="stroke: rgb(235, 240, 248); stroke-opacity: 1; stroke-width: 1px;"/></g><g class="y"><path class="ygrid crisp" transform="translate(0,109.44)" d="M25,0h260" style="stroke: rgb(190, 190, 190); stroke-opacity: 1; stroke-width: 1px;"/><path class="ygrid crisp" transform="translate(0,85.48)" d="M25,0h260" style="stroke: rgb(190, 190, 190); stroke-opacity: 1; stroke-width: 1px;"/><path class="ygrid crisp" transform="translate(0,61.52)" d="M25,0h260" style="stroke: rgb(190, 190, 190); stroke-opacity: 1; stroke-width: 1px;"/><path class="ygrid crisp" transform="translate(0,37.56)" d="M25,0h260" style="stroke: rgb(190, 190, 190); stroke-opacity: 1; stroke-width: 1px;"/><path class="ygrid crisp" transform="translate(0,13.6)" d="M25,0h260" style="stroke: rgb(190, 190, 190); stroke-opacity: 1; stroke-width: 1px;"/></g></g><g class="zerolinelayer"><path class="yzl zl crisp" transform="translate(0,133.4)" d="M25,0h260" style="stroke: rgb(235, 240, 248); stroke-opacity: 1; stroke-width: 2px;"/></g><path class="xlines-below"/><path class="ylines-below"/><g class="overlines-below"/><g class="xaxislayer-below"/><g class="yaxislayer-below"/><g class="overaxes-below"/><g class="plot" transform="translate(25,0)" clip-path="url(#clipa31e22xyplot)"><g class="scatterlayer mlayer"><g class="trace scatter tracef46eed" style="stroke-miterlimit: 2; opacity: 1;"><g class="fills"/><g class="errorbars"/><g class="lines"/><g class="points"><path class="point" transform="translate(4.19,133.4)" d="M5,0A5,5 0 1,1 0,-5A5,5 0 0,1 5,0Z" style="opacity: 1; stroke-width: 0px; fill: rgb(128, 222, 234); fill-opacity: 1;"/><path class="point" transform="translate(18.17,129.79)" d="M5,0A5,5 0 1,1 0,-5A5,5 0 0,1 5,0Z" style="opacity: 1; stroke-width: 0px; fill: rgb(128, 222, 234); fill-opacity: 1;"/><path class="point" transform="translate(32.15,119.39)" d="M5,0A5,5 0 1,1 0,-5A5,5 0 0,1 5,0Z" style="opacity: 1; stroke-width: 0px; fill: rgb(128, 222, 234); fill-opacity: 1;"/><path class="point" transform="translate(46.13,103.45)" d="M5,0A5,5 0 1,1 0,-5A5,5 0 0,1 5,0Z" style="opacity: 1; stroke-width: 0px; fill: rgb(128, 222, 234); fill-opacity: 1;"/><path class="point" transform="translate(60.11,83.9)" d="M5,0A5,5 0 1,1 0,-5A5,5 0 0,1 5,0Z" style="opacity: 1; stroke-width: 0px; fill: rgb(128, 222, 234); fill-opacity: 1;"/><path class="point" transform="translate(74.09,63.1)" d="M5,0A5,5 0 1,1 0,-5A5,5 0 0,1 5,0Z" style="opacity: 1; stroke-width: 0px; fill: rgb(128, 222, 234); fill-opacity: 1;"/><path class="point" transform="translate(88.06,43.55)" d="M5,0A5,5 0 1,1 0,-5A5,5 0 0,1 5,0Z" style="opacity: 1; stroke-width: 0px; fill: rgb(128, 222, 234); fill-opacity: 1;"/><path class="point" transform="translate(102.04,27.61)" d="M5,0A5,5 0 1,1 0,-5A5,5 0 0,1 5,0Z" style="opacity: 1; stroke-width: 0px; fill: rgb(128, 222, 234); fill-opacity: 1;"/><path class="point" transform="translate(116.02,17.21)" d="M5,0A5,5 0 1,1 0,-5A5,5 0 0,1 5,0Z" style="opacity: 1; stroke-width: 0px; fill: rgb(128, 222, 234); fill-opacity: 1;"/><path class="point" transform="translate(130,13.6)" d="M5,0A5,5 0 1,1 0,-5A5,5 0 0,1 5,0Z" style="opacity: 1; stroke-width: 0px; fill: rgb(128, 222, 234); fill-opacity: 1;"/><path class="point" transform="translate(143.98,17.21)" d="M5,0A5,5 0 1,1 0,-5A5,5 0 0,1 5,0Z" style="opacity: 1; stroke-width: 0px; fill: rgb(128, 222, 234); fill-opacity: 1;"/><path class="point" transform="translate(157.96,27.61)" d="M5,0A5,5 0 1,1 0,-5A5,5 0 0,1 5,0Z" style="opacity: 1; stroke-width: 0px; fill: rgb(128, 222, 234); fill-opacity: 1;"/><path class="point" transform="translate(171.94,43.55)" d="M5,0A5,5 0 1,1 0,-5A5,5 0 0,1 5,0Z" style="opacity: 1; stroke-width: 0px; fill: rgb(128, 222, 234); fill-opacity: 1;"/><path class="point" transform="translate(185.91,63.1)" d="M5,0A5,5 0 1,1 0,-5A5,5 0 0,1 5,0Z" style="opacity: 1; stroke-width: 0px; fill: rgb(128, 222, 234); fill-opacity: 1;"/><path class="point" transform="translate(199.89,83.9)" d="M5,0A5,5 0 1,1 0,-5A5,5 0 0,1 5,0Z" style="opacity: 1; stroke-width: 0px; fill: rgb(128, 222, 234); fill-opacity: 1;"/><path class="point" transform="translate(213.87,103.45)" d="M5,0A5,5 0 1,1 0,-5A5,5 0 0,1 5,0Z" style="opacity: 1; stroke-width: 0px; fill: rgb(128, 222, 234); fill-opacity: 1;"/><path class="point" transform="translate(227.85,119.39)" d="M5,0A5,5 0 1,1 0,-5A5,5 0 0,1 5,0Z" style="opacity: 1; stroke-width: 0px; fill: rgb(128, 222, 234); fill-opacity: 1;"/><path class="point" transform="translate(241.83,129.79)" d="M5,0A5,5 0 1,1 0,-5A5,5 0 0,1 5,0Z" style="opacity: 1; stroke-width: 0px; fill: rgb(128, 222, 234); fill-opacity: 1;"/><path class="point" transform="translate(255.81,133.4)" d="M5,0A5,5 0 1,1 0,-5A5,5 0 0,1 5,0Z" style="opacity: 1; stroke-width: 0px; fill: rgb(128, 222, 234); fill-opacity: 1;"/></g><g class="text"/></g><g class="trace scatter traceaa574b" style="stroke-miterlimit: 2; opacity: 1;"><g class="fills"/><g class="errorbars"/><g class="lines"/><g class="points"/><g class="text"/></g><g class="trace scatter tracedacc6c" style="stroke-miterlimit: 2; opacity: 1;"><g class="fills"/><g class="errorbars"/><g class="lines"><path class="js-line" d="M18.17,133.4L18.17,129.79" style="vector-effect: non-scaling-stroke; fill: none; stroke: rgb(128, 222, 234); stroke-opacity: 1; stroke-width: 4px; opacity: 1;"/></g><g class="points"/><g class="text"/></g><g class="trace scatter trace65dbe6" style="stroke-miterlimit: 2; opacity: 1;"><g class="fills"/><g class="errorbars"/><g class="lines"><path class="js-line" d="M32.15,133.4L32.15,119.39" style="vector-effect: non-scaling-stroke; fill: none; stroke: rgb(128, 222, 234); stroke-opacity: 1; stroke-width: 4px; opacity: 1;"/></g><g class="points"/><g class="text"/></g><g class="trace scatter traceb9214e" style="stroke-miterlimit: 2; opacity: 1;"><g class="fills"/><g class="errorbars"/><g class="lines"><path class="js-line" d="M46.13,133.4L46.13,103.45" style="vector-effect: non-scaling-stroke; fill: none; stroke: rgb(128, 222, 234); stroke-opacity: 1; stroke-width: 4px; opacity: 1;"/></g><g class="points"/><g class="text"/></g><g class="trace scatter trace7435a6" style="stroke-miterlimit: 2; opacity: 1;"><g class="fills"/><g class="errorbars"/><g class="lines"><path class="js-line" d="M60.11,133.4L60.11,83.9" style="vector-effect: non-scaling-stroke; fill: none; stroke: rgb(128, 222, 234); stroke-opacity: 1; stroke-width: 4px; opacity: 1;"/></g><g class="points"/><g class="text"/></g><g class="trace scatter trace715725" style="stroke-miterlimit: 2; opacity: 1;"><g class="fills"/><g class="errorbars"/><g class="lines"><path class="js-line" d="M74.09,133.4L74.09,63.1" style="vector-effect: non-scaling-stroke; fill: none; stroke: rgb(128, 222, 234); stroke-opacity: 1; stroke-width: 4px; opacity: 1;"/></g><g class="points"/><g class="text"/></g><g class="trace scatter trace642a57" style="stroke-miterlimit: 2; opacity: 1;"><g class="fills"/><g class="errorbars"/><g class="lines"><path class="js-line" d="M88.06,133.4L88.06,43.55" style="vector-effect: non-scaling-stroke; fill: none; stroke: rgb(128, 222, 234); stroke-opacity: 1; stroke-width: 4px; opacity: 1;"/></g><g class="points"/><g class="text"/></g><g class="trace scatter tracea2774b" style="stroke-miterlimit: 2; opacity: 1;"><g class="fills"/><g class="errorbars"/><g class="lines"><path class="js-line" d="M102.04,133.4L102.04,27.61" style="vector-effect: non-scaling-stroke; fill: none; stroke: rgb(128, 222, 234); stroke-opacity: 1; stroke-width: 4px; opacity: 1;"/></g><g class="points"/><g class="text"/></g><g class="trace scatter trace59320b" style="stroke-miterlimit: 2; opacity: 1;"><g class="fills"/><g class="errorbars"/><g class="lines"><path class="js-line" d="M116.02,133.4L116.02,17.21" style="vector-effect: non-scaling-stroke; fill: none; stroke: rgb(128, 222, 234); stroke-opacity: 1; stroke-width: 4px; opacity: 1;"/></g><g class="points"/><g class="text"/></g><g class="trace scatter trace7c7cf7" style="stroke-miterlimit: 2; opacity: 1;"><g class="fills"/><g class="errorbars"/><g class="lines"><path class="js-line" d="M130,133.4L130,13.6" style="vector-effect: non-scaling-stroke; fill: none; stroke: rgb(128, 222, 234); stroke-opacity: 1; stroke-width: 4px; opacity: 1;"/></g><g class="points"/><g class="text"/></g><g class="trace scatter trace251236" style="stroke-miterlimit: 2; opacity: 1;"><g class="fills"/><g class="errorbars"/><g class="lines"><path class="js-line" d="M143.98,133.4L143.98,17.21" style="vector-effect: non-scaling-stroke; fill: none; stroke: rgb(128, 222, 234); stroke-opacity: 1; stroke-width: 4px; opacity: 1;"/></g><g class="points"/><g class="text"/></g><g class="trace scatter trace53cc1a" style="stroke-miterlimit: 2; opacity: 1;"><g class="fills"/><g class="errorbars"/><g class="lines"><path class="js-line" d="M157.96,133.4L157.96,27.61" style="vector-effect: non-scaling-stroke; fill: none; stroke: rgb(128, 222, 234); stroke-opacity: 1; stroke-width: 4px; opacity: 1;"/></g><g class="points"/><g class="text"/></g><g class="trace scatter trace958db8" style="stroke-miterlimit: 2; opacity: 1;"><g class="fills"/><g class="errorbars"/><g class="lines"><path class="js-line" d="M171.94,133.4L171.94,43.55" style="vector-effect: non-scaling-stroke; fill: none; stroke: rgb(128, 222, 234); stroke-opacity: 1; stroke-width: 4px; opacity: 1;"/></g><g class="points"/><g class="text"/></g><g class="trace scatter trace2c6c9c" style="stroke-miterlimit: 2; opacity: 1;"><g class="fills"/><g class="errorbars"/><g class="lines"><path class="js-line" d="M185.91,133.4L185.91,63.1" style="vector-effect: non-scaling-stroke; fill: none; stroke: rgb(128, 222, 234); stroke-opacity: 1; stroke-width: 4px; opacity: 1;"/></g><g class="points"/><g class="text"/></g><g class="trace scatter traceb95fb1" style="stroke-miterlimit: 2; opacity: 1;"><g class="fills"/><g class="errorbars"/><g class="lines"><path class="js-line" d="M199.89,133.4L199.89,83.9" style="vector-effect: non-scaling-stroke; fill: none; stroke: rgb(128, 222, 234); stroke-opacity: 1; stroke-width: 4px; opacity: 1;"/></g><g class="points"/><g class="text"/></g><g class="trace scatter tracea051fe" style="stroke-miterlimit: 2; opacity: 1;"><g class="fills"/><g class="errorbars"/><g class="lines"><path class="js-line" d="M213.87,133.4L213.87,103.45" style="vector-effect: non-scaling-stroke; fill: none; stroke: rgb(128, 222, 234); stroke-opacity: 1; stroke-width: 4px; opacity: 1;"/></g><g class="points"/><g class="text"/></g><g class="trace scatter trace00f0bb" style="stroke-miterlimit: 2; opacity: 1;"><g class="fills"/><g class="errorbars"/><g class="lines"><path class="js-line" d="M227.85,133.4L227.85,119.39" style="vector-effect: non-scaling-stroke; fill: none; stroke: rgb(128, 222, 234); stroke-opacity: 1; stroke-width: 4px; opacity: 1;"/></g><g class="points"/><g class="text"/></g><g class="trace scatter trace1b6b1f" style="stroke-miterlimit: 2; opacity: 1;"><g class="fills"/><g class="errorbars"/><g class="lines"><path class="js-line" d="M241.83,133.4L241.83,129.79" style="vector-effect: non-scaling-stroke; fill: none; stroke: rgb(128, 222, 234); stroke-opacity: 1; stroke-width: 4px; opacity: 1;"/></g><g class="points"/><g class="text"/></g><g class="trace scatter tracea1d8a6" style="stroke-miterlimit: 2; opacity: 1;"><g class="fills"/><g class="errorbars"/><g class="lines"/><g class="points"/><g class="text"/></g></g></g><g class="overplot"/><path class="xlines-above crisp" d="M0,0" style="fill: none;"/><path class="ylines-above crisp" d="" style="fill: none; stroke-width: 1px; stroke: rgb(0, 0, 0); stroke-opacity: 0;"/><g class="overlines-above"/><g class="xaxislayer-above"/><g class="yaxislayer-above"><path class="ytick ticks crisp" d="M24,0h0" transform="translate(0,133.4)" style="stroke: rgb(190, 190, 190); stroke-opacity: 1; stroke-width: 1px;"/><path class="ytick ticks crisp" d="M24,0h0" transform="translate(0,109.44)" style="stroke: rgb(190, 190, 190); stroke-opacity: 1; stroke-width: 1px;"/><path class="ytick ticks crisp" d="M24,0h0" transform="translate(0,85.48)" style="stroke: rgb(190, 190, 190); stroke-opacity: 1; stroke-width: 1px;"/><path class="ytick ticks crisp" d="M24,0h0" transform="translate(0,61.52)" style="stroke: rgb(190, 190, 190); stroke-opacity: 1; stroke-width: 1px;"/><path class="ytick ticks crisp" d="M24,0h0" transform="translate(0,37.56)" style="stroke: rgb(190, 190, 190); stroke-opacity: 1; stroke-width: 1px;"/><path class="ytick ticks crisp" d="M24,0h0" transform="translate(0,13.6)" style="stroke: rgb(190, 190, 190); stroke-opacity: 1; stroke-width: 1px;"/><g class="ytick"><text text-anchor="end" x="21" y="5.25" transform="translate(0,133.4)" style="font-family: 'Open Sans', verdana, arial, sans-serif; font-size: 15px; fill: rgb(255, 255, 255); fill-opacity: 1; white-space: pre; opacity: 1;">0</text></g><g class="ytick"><text text-anchor="end" x="21" y="5.25" style="font-family: 'Open Sans', verdana, arial, sans-serif; font-size: 15px; fill: rgb(255, 255, 255); fill-opacity: 1; white-space: pre; opacity: 1;" transform="translate(0,109.44)">0.2</text></g><g class="ytick"><text text-anchor="end" x="21" y="5.25" style="font-family: 'Open Sans', verdana, arial, sans-serif; font-size: 15px; fill: rgb(255, 255, 255); fill-opacity: 1; white-space: pre; opacity: 1;" transform="translate(0,85.48)">0.4</text></g><g class="ytick"><text text-anchor="end" x="21" y="5.25" style="font-family: 'Open Sans', verdana, arial, sans-serif; font-size: 15px; fill: rgb(255, 255, 255); fill-opacity: 1; white-space: pre; opacity: 1;" transform="translate(0,61.52)">0.6</text></g><g class="ytick"><text text-anchor="end" x="21" y="5.25" style="font-family: 'Open Sans', verdana, arial, sans-serif; font-size: 15px; fill: rgb(255, 255, 255); fill-opacity: 1; white-space: pre; opacity: 1;" transform="translate(0,37.56)">0.8</text></g><g class="ytick"><text text-anchor="end" x="21" y="5.25" style="font-family: 'Open Sans', verdana, arial, sans-serif; font-size: 15px; fill: rgb(255, 255, 255); fill-opacity: 1; white-space: pre; opacity: 1;" transform="translate(0,13.6)">1</text></g></g><g class="overaxes-above"/></g></g><g class="polarlayer"/><g class="smithlayer"/><g class="ternarylayer"/><g class="geolayer"/><g class="funnelarealayer"/><g class="pielayer"/><g class="iciclelayer"/><g class="treemaplayer"/><g class="sunburstlayer"/><g class="glimages"/><defs id="topdefs-a31e22"><g class="clips"/></defs><g class="layer-above"><g class="imagelayer"/><g class="shapelayer"/></g><g class="infolayer"><g class="g-gtitle"/><g class="g-xtitle"/><g class="g-ytitle"/></g></svg>