<svg class="main-svg" xmlns="http://www.w3.org/2000/svg" xmlns:xlink="http://www.w3.org/1999/xlink" width="285" height="147" style="" viewBox="0 0 285 147"><rect x="0" y="0" width="285" height="147" style="fill: rgb(0, 0, 0); fill-opacity: 0;"/><defs id="defs-7419d3"><g class="clips"><clipPath id="clip7419d3xyplot" class="plotclip"><rect width="260" height="147"/></clipPath><clipPath class="axesclip" id="clip7419d3x"><rect x="25" y="0" width="260" height="147"/></clipPath><clipPath class="axesclip" id="clip7419d3y"><rect x="0" y="0" width="285" height="147"/></clipPath><clipPath class="axesclip" id="clip7419d3xy"><rect x="25" y="0" width="260" height="147"/></clipPath></g><g class="gradients"/><g class="patterns"/></defs><g class="bglayer"><rect class="bg" x="25" y="0" width="260" height="147" style="fill: rgb(0, 0, 0); fill-opacity: 0; stroke-width: 0;"/></g><g class="layer-below"><g class="imagelayer"/><g class="shapelayer"/></g><g class="cartesianlayer"><g class="subplot xy"><g class="layer-subplot"><g class="shapelayer"/><g class="imagelayer"/></g><g class="gridlayer"><g class="x"><path class="xgrid crisp" transform="translate(29.19,0)" d="M0,0v147" style="stroke: rgb(235, 240, 248); stroke-opacity: 1; stroke-width: 1px;"/><path class="xgrid crisp" transform="translate(43.17,0)" d="M0,0v147" style="stroke: rgb(235, 240, 248); stroke-opacity: 1; stroke-width: 1px;"/><path class="xgrid crisp" transform="translate(57.15,0)" d="M0,0v147" style="stroke: rgb(235, 240, 248); stroke-opacity: 1; stroke-width: 1px;"/><path class="xgrid crisp" transform="translate(71.13,0)" d="M0,0v147" style="stroke: rgb(235, 240, 248); stroke-opacity: 1; stroke-width: 1px;"/><path class="xgrid crisp" transform="translate(85.11,0)" d="M0,0v147" style="stroke: rgb(235, 240, 248); stroke-opacity: 1; stroke-width: 1px;"/><path class="xgrid crisp" transform="translate(99.09,0)" d="M0,0v147" style="stroke: rgb(235, 240, 248); stroke-opacity: 1; stroke-width: 1px;"/><path class="xgrid crisp" transform="translate(113.06,0)" d="M0,0v147" style="stroke: rgb(235, 240, 248); stroke-opacity: 1; stroke-width: 1px;"/><path class="xgrid crisp" transform="translate(127.04,0)" d="M0,0v147" style="stroke: rgb(235, 240, 248); stroke-opacity: 1; stroke-width: 1px;"/><path class="xgrid crisp" transform="translate(141.01999999999998,0)" d="M0,0v147" style="stroke: rgb(235, 240, 248); stroke-opacity: 1; stroke-width: 1px;"/><path class="xgrid crisp" transform="translate(155,0)" d="M0,0v147" style="stroke: rgb(235, 240, 248); stroke-opacity: 1; stroke-width: 1px;"/><path class="xgrid crisp" transform="translate(168.98,0)" d="M0,0v147" style="stroke: rgb(235, 240, 248); stroke-opacity: 1; stroke-width: 1px;"/><path class="xgrid crisp" transform="translate(182.96,0)" d="M0,0v147" style="stroke: rgb(235, 240, 248); stroke-opacity: 1; stroke-width: 1px;"/><path class="xgrid crisp" transform="translate(196.94,0)" d="M0,0v147" style="stroke: rgb(235, 240, 248); stroke-opacity: 1; stroke-width: 1px;"/><path class="xgrid crisp" transform="translate(210.91,0)" d="M0,0v147" style="stroke: rgb(235, 240, 248); stroke-opacity: 1; stroke-width: 1px;"/><path class="xgrid crisp" transform="translate(224.89,0)" d="M0,0v147" style="stroke: rgb(235, 240, 248); stroke-opacity: 1; stroke-width: 1px;"/><path class="xgrid crisp" transform="translate(238.87,0)" d="M0,0v147" style="stroke: rgb(235, 240, 248); stroke-opacity: 1; stroke-width: 1px;"/><path class="xgrid crisp" transform="translate(252.85,0)" d="M0,0v147" style="stroke: rgb(235, 240, 248); stroke-opacity: 1; stroke-width: 1px;"/><path class="xgrid crisp" transform="translate(266.83000000000004,0)" d="M0,0v147" style="stroke: rgb(235, 240, 248); stroke-opacity: 1; stroke-width: 1px;"/><path class="xgrid crisp" transform="translate(280.81,0)" d="M0,0v147" style="stroke: rgb(235, 240, 248); stroke-opacity: 1; stroke-width: 1px;"/></g><g class="y"><path class="ygrid crisp" transform="translate(0,109.44)" d="M25,0h260" style="stroke: rgb(190, 190, 190); stroke-opacity: 1; stroke-width: 1px;"/><path class="ygrid crisp" transform="translate(0,85.48)" d="M25,0h260" style="stroke: rgb(190, 190, 190); stroke-opacity: 1; stroke-width: 1px;"/><path class="ygrid crisp" transform="translate(0,61.52)" d="M25,0h260" style="stroke: rgb(190, 190, 190); stroke-opacity: 1; stroke-width: 1px;"/><path class="ygrid crisp" transform="translate(0,37.56)" d="M25,0h260" style="stroke: rgb(190, 190, 190); stroke-opacity: 1; stroke-width: 1px;"/><path class="ygrid crisp" transform="translate(0,13.6)" d="M25,0h260" style="stroke: rgb(190, 190, 190); stroke-opacity: 1; stroke-width: 1px;"/></g></g><g class="zerolinelayer"><path class="yzl zl crisp" transform="translate(0,133.4)" d="M25,0h260" style="stroke: rgb(235, 240, 248); stroke-opacity: 1; stroke-width: 2px;"/></g><path class="xlines-below"/><path class="ylines-below"/><g class="overlines-below"/><g class="xaxislayer-below"/><g class="yaxislayer-below"/><g class="overaxes-below"/><g class="plot" transform="translate(25,0)" clip-path="url(#clip7419d3xyplot)"><g class="scatterlayer mlayer"><g class="trace scatter trace56f941" style="stroke-miterlimit: 2; opacity: 1;"><g class="fills"/><g class="errorbars"/><g class="lines"/><g class="points"><path class="point" transform="translate(4.19,133.4)" d="M5,0A5,5 0 1,1 0,-5A5,5 0 0,1 5,0Z" style="opacity: 1; stroke-width: 0px; fill: rgb(128, 222, 234); fill-opacity: 1;"/><path class="point" transform="translate(18.17,132.03)" d="M5,0A5,5 0 1,1 0,-5A5,5 0 0,1 5,0Z" style="opacity: 1; stroke-width: 0px; fill: rgb(128, 222, 234); fill-opacity: 1;"/><path class="point" transform="translate(32.15,127.31)" d="M5,0A5,5 0 1,1 0,-5A5,5 0 0,1 5,0Z" style="opacity: 1; stroke-width: 0px; fill: rgb(128, 222, 234); fill-opacity: 1;"/><path class="point" transform="translate(46.13,117.83)" d="M5,0A5,5 0 1,1 0,-5A5,5 0 0,1 5,0Z" style="opacity: 1; stroke-width: 0px; fill: rgb(128, 222, 234); fill-opacity: 1;"/><path class="point" transform="translate(60.11,102.49)" d="M5,0A5,5 0 1,1 0,-5A5,5 0 0,1 5,0Z" style="opacity: 1; stroke-width: 0px; fill: rgb(128, 222, 234); fill-opacity: 1;"/><path class="point" transform="translate(74.09,81.69)" d="M5,0A5,5 0 1,1 0,-5A5,5 0 0,1 5,0Z" style="opacity: 1; stroke-width: 0px; fill: rgb(128, 222, 234); fill-opacity: 1;"/><path class="point" transform="translate(88.06,57.93)" d="M5,0A5,5 0 1,1 0,-5A5,5 0 0,1 5,0Z" style="opacity: 1; stroke-width: 0px; fill: rgb(128, 222, 234); fill-opacity: 1;"/><path class="point" transform="translate(102.04,35.53)" d="M5,0A5,5 0 1,1 0,-5A5,5 0 0,1 5,0Z" style="opacity: 1; stroke-width: 0px; fill: rgb(128, 222, 234); fill-opacity: 1;"/><path class="point" transform="translate(116.02,19.45)" d="M5,0A5,5 0 1,1 0,-5A5,5 0 0,1 5,0Z" style="opacity: 1; stroke-width: 0px; fill: rgb(128, 222, 234); fill-opacity: 1;"/><path class="point" transform="translate(130,13.6)" d="M5,0A5,5 0 1,1 0,-5A5,5 0 0,1 5,0Z" style="opacity: 1; stroke-width: 0px; fill: rgb(128, 222, 234); fill-opacity: 1;"/><path class="point" transform="translate(143.98,19.45)" d="M5,0A5,5 0 1,1 0,-5A5,5 0 0,1 5,0Z" style="opacity: 1; stroke-width: 0px; fill: rgb(128, 222, 234); fill-opacity: 1;"/><path class="point" transform="translate(157.96,35.53)" d="M5,0A5,5 0 1,1 0,-5A5,5 0 0,1 5,0Z" style="opacity: 1; stroke-width: 0px; fill: rgb(128, 222, 234); fill-opacity: 1;"/><path class="point" transform="translate(171.94,57.93)" d="M5,0A5,5 0 1,1 0,-5A5,5 0 0,1 5,0Z" style="opacity: 1; stroke-width: 0px; fill: rgb(128, 222, 234); fill-opacity: 1;"/><path class="point" transform="translate(185.91,81.69)" d="M5,0A5,5 0 1,1 0,-5A5,5 0 0,1 5,0Z" style="opacity: 1; stroke-width: 0px; fill: rgb(128, 222, 234); fill-opacity: 1;"/><path class="point" transform="translate(199.89,102.49)" d="M5,0A5,5 0 1,1 0,-5A5,5 0 0,1 5,0Z" style="opacity: 1; stroke-width: 0px; fill: rgb(128, 222, 234); fill-opacity: 1;"/><path class="point" transform="translate(213.87,117.83)" d="M5,0A5,5 0 1,1 0,-5A5,5 0 0,1 5,0Z" style="opacity: 1; stroke-width: 0px; fill: rgb(128, 222, 234); fill-opacity: 1;"/><path class="point" transform="translate(227.85,127.31)" d="M5,0A5,5 0 1,1 0,-5A5,5 0 0,1 5,0Z" style="opacity: 1; stroke-width: 0px; fill: rgb(128, 222, 234); fill-opacity: 1;"/><path class="point" transform="translate(241.83,132.03)" d="M5,0A5,5 0 1,1 0,-5A5,5 0 0,1 5,0Z" style="opacity: 1; stroke-width: 0px; fill: rgb(128, 222, 234); fill-opacity: 1;"/><path class="point" transform="translate(255.81,133.4)" d="M5,0A5,5 0 1,1 0,-5A5,5 0 0,1 5,0Z" style="opacity: 1; stroke-width: 0px; fill: rgb(128, 222, 234); fill-opacity: 1;"/></g><g class="text"/></g><g class="trace scatter trace30d665" style="stroke-miterlimit: 2; opacity: 1;"><g class="fills"/><g class="errorbars"/><g class="lines"/><g class="points"/><g class="text"/></g><g class="trace scatter trace3d6177" style="stroke-miterlimit: 2; opacity: 1;"><g class="fills"/><g class="errorbars"/><g class="lines"><path class="js-line" d="M18.17,133.4L18.17,132.03" style="vector-effect: non-scaling-stroke; fill: none; stroke: rgb(128, 222, 234); stroke-opacity: 1; stroke-width: 4px; opacity: 1;"/></g><g class="points"/><g class="text"/></g><g class="trace scatter trace6c35ad" style="stroke-miterlimit: 2; opacity: 1;"><g class="fills"/><g class="errorbars"/><g class="lines"><path class="js-line" d="M32.15,133.4L32.15,127.31" style="vector-effect: non-scaling-stroke; fill: none; stroke: rgb(128, 222, 234); stroke-opacity: 1; stroke-width: 4px; opacity: 1;"/></g><g class="points"/><g class="text"/></g><g class="trace scatter trace9cfbb8" style="stroke-miterlimit: 2; opacity: 1;"><g class="fills"/><g class="errorbars"/><g class="lines"><path class="js-line" d="M46.13,133.4L46.13,117.83" style="vector-effect: non-scaling-stroke; fill: none; stroke: rgb(128, 222, 234); stroke-opacity: 1; stroke-width: 4px; opacity: 1;"/></g><g class="points"/><g class="text"/></g><g class="trace scatter trace648312" style="stroke-miterlimit: 2; opacity: 1;"><g class="fills"/><g class="errorbars"/><g class="lines"><path class="js-line" d="M60.11,133.4L60.11,102.49" style="vector-effect: non-scaling-stroke; fill: none; stroke: rgb(128, 222, 234); stroke-opacity: 1; stroke-width: 4px; opacity: 1;"/></g><g class="points"/><g class="text"/></g><g class="trace scatter tracec84088" style="stroke-miterlimit: 2; opacity: 1;"><g class="fills"/><g class="errorbars"/><g class="lines"><path class="js-line" d="M74.09,133.4L74.09,81.69" style="vector-effect: non-scaling-stroke; fill: none; stroke: rgb(128, 222, 234); stroke-opacity: 1; stroke-width: 4px; opacity: 1;"/></g><g class="points"/><g class="text"/></g><g class="trace scatter tracebf8b7d" style="stroke-miterlimit: 2; opacity: 1;"><g class="fills"/><g class="errorbars"/><g class="lines"><path class="js-line" d="M88.06,133.4L88.06,57.93" style="vector-effect: non-scaling-stroke; fill: none; stroke: rgb(128, 222, 234); stroke-opacity: 1; stroke-width: 4px; opacity: 1;"/></g><g class="points"/><g class="text"/></g><g class="trace scatter trace74ff6c" style="stroke-miterlimit: 2; opacity: 1;"><g class="fills"/><g class="errorbars"/><g class="lines"><path class="js-line" d="M102.04,133.4L102.04,35.53" style="vector-effect: non-scaling-stroke; fill: none; stroke: rgb(128, 222, 234); stroke-opacity: 1; stroke-width: 4px; opacity: 1;"/></g><g class="points"/><g class="text"/></g><g class="trace scatter traceaa05f2" style="stroke-miterlimit: 2; opacity: 1;"><g class="fills"/><g class="errorbars"/><g class="lines"><path class="js-line" d="M116.02,133.4L116.02,19.45" style="vector-effect: non-scaling-stroke; fill: none; stroke: rgb(128, 222, 234); stroke-opacity: 1; stroke-width: 4px; opacity: 1;"/></g><g class="points"/><g class="text"/></g><g class="trace scatter tracea44f01" style="stroke-miterlimit: 2; opacity: 1;"><g class="fills"/><g class="errorbars"/><g class="lines"><path class="js-line" d="M130,133.4L130,13.6" style="vector-effect: non-scaling-stroke; fill: none; stroke: rgb(128, 222, 234); stroke-opacity: 1; stroke-width: 4px; opacity: 1;"/></g><g class="points"/><g class="text"/></g><g class="trace scatter trace17a848" style="stroke-miterlimit: 2; opacity: 1;"><g class="fills"/><g class="errorbars"/><g class="lines"><path class="js-line" d="M143.98,133.4L143.98,19.45" style="vector-effect: non-scaling-stroke; fill: none; stroke: rgb(128, 222, 234); stroke-opacity: 1; stroke-width: 4px; opacity: 1;"/></g><g class="points"/><g class="text"/></g><g class="trace scatter tracec89d88" style="stroke-miterlimit: 2; opacity: 1;"><g class="fills"/><g class="errorbars"/><g class="lines"><path class="js-line" d="M157.96,133.4L157.96,35.53" style="vector-effect: non-scaling-stroke; fill: none; stroke: rgb(128, 222, 234); stroke-opacity: 1; stroke-width: 4px; opacity: 1;"/></g><g class="points"/><g class="text"/></g><g class="trace scatter trace4d2bbe" style="stroke-miterlimit: 2; opacity: 1;"><g class="fills"/><g class="errorbars"/><g class="lines"><path class="js-line" d="M171.94,133.4L171.94,57.93" style="vector-effect: non-scaling-stroke; fill: none; stroke: rgb(128, 222, 234); stroke-opacity: 1; stroke-width: 4px; opacity: 1;"/></g><g class="points"/><g class="text"/></g><g class="trace scatter traceafecfa" style="stroke-miterlimit: 2; opacity: 1;"><g class="fills"/><g class="errorbars"/><g class="lines"><path class="js-line" d="M185.91,133.4L185.91,81.69" style="vector-effect: non-scaling-stroke; fill: none; stroke: rgb(128, 222, 234); stroke-opacity: 1; stroke-width: 4px; opacity: 1;"/></g><g class="points"/><g class="text"/></g><g class="trace scatter trace1f27f4" style="stroke-miterlimit: 2; opacity: 1;"><g class="fills"/><g class="errorbars"/><g class="lines"><path class="js-line" d="M199.89,133.4L199.89,102.49" style="vector-effect: non-scaling-stroke; fill: none; stroke: rgb(128, 222, 234); stroke-opacity: 1; stroke-width: 4px; opacity: 1;"/></g><g class="points"/><g class="text"/></g><g class="trace scatter trace964ec4" style="stroke-miterlimit: 2; opacity: 1;"><g class="fills"/><g class="errorbars"/><g class="lines"><path class="js-line" d="M213.87,133.4L213.87,117.83" style="vector-effect: non-scaling-stroke; fill: none; stroke: rgb(128, 222, 234); stroke-opacity: 1; stroke-width: 4px; opacity: 1;"/></g><g class="points"/><g class="text"/></g><g class="trace scatter trace7b2f09" style="stroke-miterlimit: 2; opacity: 1;"><g class="fills"/><g class="errorbars"/><g class="lines"><path class="js-line" d="M227.85,133.4L227.85,127.31" style="vector-effect: non-scaling-stroke; fill: none; stroke: rgb(128, 222, 234); stroke-opacity: 1; stroke-width: 4px; opacity: 1;"/></g><g class="points"/><g class="text"/></g><g class="trace scatter tracedd9fa4" style="stroke-miterlimit: 2; opacity: 1;"><g class="fills"/><g class="errorbars"/><g class="lines"><path class="js-line" d="M241.83,133.4L241.83,132.03" style="vector-effect: non-scaling-stroke; fill: none; stroke: rgb(128, 222, 234); stroke-opacity: 1; stroke-width: 4px; opacity: 1;"/></g><g class="points"/><g class="text"/></g><g class="trace scatter trace7725cc" style="stroke-miterlimit: 2; opacity: 1;"><g class="fills"/><g class="errorbars"/><g class="lines"/><g class="points"/><g class="text"/></g></g></g><g class="overplot"/><path class="xlines-above crisp" d="M0,0" style="fill: none;"/><path class="ylines-above crisp" d="" style="fill: none; stroke-width: 1px; stroke: rgb(0, 0, 0); stroke-opacity: 0;"/><g class="overlines-above"/><g class="xaxislayer-above"/><g class="yaxislayer-above"><path class="ytick ticks crisp" d="M24,0h0" transform="translate(0,133.4)" style="stroke: rgb(190, 190, 190); stroke-opacity: 1; stroke-width: 1px;"/><path class="ytick ticks crisp" d="M24,0h0" transform="translate(0,109.44)" style="stroke: rgb(190, 190, 190); stroke-opacity: 1; stroke-width: 1px;"/><path class="ytick ticks crisp" d="M24,0h0" transform="translate(0,85.48)" style="stroke: rgb(190, 190, 190); stroke-opacity: 1; stroke-width: 1px;"/><path class="ytick ticks crisp" d="M24,0h0" transform="translate(0,61.52)" style="stroke: rgb(190, 190, 190); stroke-opacity: 1; stroke-width: 1px;"/><path class="ytick ticks crisp" d="M24,0h0" transform="translate(0,37.56)" style="stroke: rgb(190, 190, 190); stroke-opacity: 1; stroke-width: 1px;"/><path class="ytick ticks crisp" d="M24,0h0" transform="translate(0,13.6)" style="stroke: rgb(190, 190, 190); stroke-opacity: 1; stroke-width: 1px;"/><g class="ytick"><text text-anchor="end" x="21" y="5.25" transform="translate(0,133.4)" style="font-family: 'Open Sans', verdana, arial, sans-serif; font-size: 15px; fill: rgb(255, 255, 255); fill-opacity: 1; white-space: pre; opacity: 1;">0</text></g><g class="ytick"><text text-anchor="end" x="21" y="5.25" style="font-family: 'Open Sans', verdana, arial, sans-serif; font-size: 15px; fill: rgb(255, 255, 255); fill-opacity: 1; white-space: pre; opacity: 1;" transform="translate(0,109.44)">0.2</text></g><g class="ytick"><text text-anchor="end" x="21" y="5.25" style="font-family: 'Open Sans', verdana, arial, sans-serif; font-size: 15px; fill: rgb(255, 255, 255); fill-opacity: 1; white-space: pre; opacity: 1;" transform="translate(0,85.48)">0.4</text></g><g class="ytick"><text text-anchor="end" x="21" y="5.25" style="font-family: 'Open Sans', verdana, arial, sans-serif; font-size: 15px; fill: rgb(255, 255, 255); fill-opacity: 1; white-space: pre; opacity: 1;" transform="translate(0,61.52)">0.6</text></g><g class="ytick"><text text-anchor="end" x="21" y="5.25" style="font-family: 'Open Sans', verdana, arial, sans-serif; font-size: 15px; fill: rgb(255, 255, 255); fill-opacity: 1; white-space: pre; opacity: 1;" transform="translate(0,37.56)">0.8</text></g><g class="ytick"><text text-anchor="end" x="21" y="5.25" style="font-family: 'Open Sans', verdana, arial, sans-serif; font-size: 15px; fill: rgb(255, 255, 255); fill-opacity: 1; white-space: pre; opacity: 1;" transform="translate(0,13.6)">1</text></g></g><g class="overaxes-above"/></g></g><g class="polarlayer"/><g class="smithlayer"/><g class="ternarylayer"/><g class="geolayer"/><g class="funnelarealayer"/><g class="pielayer"/><g class="iciclelayer"/><g class="treemaplayer"/><g class="sunburstlayer"/><g class="glimages"/><defs id="topdefs-7419d3"><g class="clips"/></defs><g class="layer-above"><g class="imagelayer"/><g class="shapelayer"/></g><g class="infolayer"><g class="g-gtitle"/><g class="g-xtitle"/><g class="g-ytitle"/></g></svg>