<svg class="main-svg" xmlns="http://www.w3.org/2000/svg" xmlns:xlink="http://www.w3.org/1999/xlink" width="285" height="147" style="" viewBox="0 0 285 147"><rect x="0" y="0" width="285" height="147" style="fill: rgb(0, 0, 0); fill-opacity: 0;"/><defs id="defs-6425de"><g class="clips"><clipPath id="clip6425dexyplot" class="plotclip"><rect width="267" height="126"/></clipPath><clipPath class="axesclip" id="clip6425dex"><rect x="18" y="0" width="267" height="147"/></clipPath><clipPath class="axesclip" id="clip6425dey"><rect x="0" y="0" width="285" height="126"/></clipPath><clipPath class="axesclip" id="clip6425dexy"><rect x="18" y="0" width="267" height="126"/></clipPath></g><g class="gradients"/><g class="patterns"/></defs><g class="bglayer"><rect class="bg" x="18" y="0" width="267" height="126" style="fill: rgb(0, 0, 0); fill-opacity: 0; stroke-width: 0;"/></g><g class="layer-below"><g class="imagelayer"/><g class="shapelayer"/></g><g class="cartesianlayer"><g class="subplot xy"><g class="layer-subplot"><g class="shapelayer"/><g class="imagelayer"/></g><g class="minor-gridlayer"><g class="x"/><g class="y"/></g><g class="gridlayer"><g class="x"><path class="xgrid crisp" transform="translate(37.6,0)" d="M0,0v126" style="stroke: rgb(235, 240, 248); stroke-opacity: 1; stroke-width: 1px;"/><path class="xgrid crisp" transform="translate(50.26,0)" d="M0,0v126" style="stroke: rgb(235, 240, 248); stroke-opacity: 1; stroke-width: 1px;"/><path class="xgrid crisp" transform="translate(62.91,0)" d="M0,0v126" style="stroke: rgb(235, 240, 248); stroke-opacity: 1; stroke-width: 1px;"/><path class="xgrid crisp" transform="translate(75.57,0)" d="M0,0v126" style="stroke: rgb(235, 240, 248); stroke-opacity: 1; stroke-width: 1px;"/><path class="xgrid crisp" transform="translate(88.22,0)" d="M0,0v126" style="stroke: rgb(235, 240, 248); stroke-opacity: 1; stroke-width: 1px;"/><path class="xgrid crisp" transform="translate(100.88,0)" d="M0,0v126" style="stroke: rgb(235, 240, 248); stroke-opacity: 1; stroke-width: 1px;"/><path class="xgrid crisp" transform="translate(113.53,0)" d="M0,0v126" style="stroke: rgb(235, 240, 248); stroke-opacity: 1; stroke-width: 1px;"/><path class="xgrid crisp" transform="translate(126.19,0)" d="M0,0v126" style="stroke: rgb(235, 240, 248); stroke-opacity: 1; stroke-width: 1px;"/><path class="xgrid crisp" transform="translate(138.84,0)" d="M0,0v126" style="stroke: rgb(235, 240, 248); stroke-opacity: 1; stroke-width: 1px;"/><path class="xgrid crisp" transform="translate(164.16,0)" d="M0,0v126" style="stroke: rgb(235, 240, 248); stroke-opacity: 1; stroke-width: 1px;"/><path class="xgrid crisp" transform="translate(176.81,0)" d="M0,0v126" style="stroke: rgb(235, 240, 248); stroke-opacity: 1; stroke-width: 1px;"/><path class="xgrid crisp" transform="translate(189.47,0)" d="M0,0v126" style="stroke: rgb(235, 240, 248); stroke-opacity: 1; stroke-width: 1px;"/><path class="xgrid crisp" transform="translate(202.12,0)" d="M0,0v126" style="stroke: rgb(235, 240, 248); stroke-opacity: 1; stroke-width: 1px;"/><path class="xgrid crisp" transform="translate(214.78,0)" d="M0,0v126" style="stroke: rgb(235, 240, 248); stroke-opacity: 1; stroke-width: 1px;"/><path class="xgrid crisp" transform="translate(227.43,0)" d="M0,0v126" style="stroke: rgb(235, 240, 248); stroke-opacity: 1; stroke-width: 1px;"/><path class="xgrid crisp" transform="translate(240.09,0)" d="M0,0v126" style="stroke: rgb(235, 240, 248); stroke-opacity: 1; stroke-width: 1px;"/><path class="xgrid crisp" transform="translate(252.74,0)" d="M0,0v126" style="stroke: rgb(235, 240, 248); stroke-opacity: 1; stroke-width: 1px;"/><path class="xgrid crisp" transform="translate(265.4,0)" d="M0,0v126" style="stroke: rgb(235, 240, 248); stroke-opacity: 1; stroke-width: 1px;"/></g><g class="y"><path class="ygrid crisp" transform="translate(0,98.27)" d="M18,0h267" style="stroke: rgb(235, 240, 248); stroke-opacity: 1; stroke-width: 1px;"/><path class="ygrid crisp" transform="translate(0,76.84)" d="M18,0h267" style="stroke: rgb(235, 240, 248); stroke-opacity: 1; stroke-width: 1px;"/><path class="ygrid crisp" transform="translate(0,55.41)" d="M18,0h267" style="stroke: rgb(235, 240, 248); stroke-opacity: 1; stroke-width: 1px;"/><path class="ygrid crisp" transform="translate(0,33.98)" d="M18,0h267" style="stroke: rgb(235, 240, 248); stroke-opacity: 1; stroke-width: 1px;"/><path class="ygrid crisp" transform="translate(0,12.55)" d="M18,0h267" style="stroke: rgb(235, 240, 248); stroke-opacity: 1; stroke-width: 1px;"/></g></g><g class="zerolinelayer"><path class="xzl zl crisp" transform="translate(151.5,0)" d="M0,0v126" style="stroke: rgb(235, 240, 248); stroke-opacity: 1; stroke-width: 2px;"/><path class="yzl zl crisp" transform="translate(0,119.7)" d="M18,0h267" style="stroke: rgb(235, 240, 248); stroke-opacity: 1; stroke-width: 2px;"/></g><path class="xlines-below"/><path class="ylines-below"/><g class="overlines-below"/><g class="xaxislayer-below"/><g class="yaxislayer-below"/><g class="overaxes-below"/><g class="plot" transform="translate(18,0)" clip-path="url(#clip6425dexyplot)"><g class="scatterlayer mlayer"><g class="trace scatter trace03c237" style="stroke-miterlimit: 2; opacity: 1;"><g class="fills"/><g class="errorbars"/><g class="lines"/><g class="points"><path class="point" transform="translate(19.6,12.55)" d="M5,0A5,5 0 1,1 0,-5A5,5 0 0,1 5,0Z" style="opacity: 1; stroke-width: 0px; fill: rgb(128, 222, 234); fill-opacity: 1;"/><path class="point" transform="translate(32.26,12.55)" d="M5,0A5,5 0 1,1 0,-5A5,5 0 0,1 5,0Z" style="opacity: 1; stroke-width: 0px; fill: rgb(128, 222, 234); fill-opacity: 1;"/><path class="point" transform="translate(44.91,12.55)" d="M5,0A5,5 0 1,1 0,-5A5,5 0 0,1 5,0Z" style="opacity: 1; stroke-width: 0px; fill: rgb(128, 222, 234); fill-opacity: 1;"/><path class="point" transform="translate(57.57,12.55)" d="M5,0A5,5 0 1,1 0,-5A5,5 0 0,1 5,0Z" style="opacity: 1; stroke-width: 0px; fill: rgb(128, 222, 234); fill-opacity: 1;"/><path class="point" transform="translate(70.22,12.55)" d="M5,0A5,5 0 1,1 0,-5A5,5 0 0,1 5,0Z" style="opacity: 1; stroke-width: 0px; fill: rgb(128, 222, 234); fill-opacity: 1;"/><path class="point" transform="translate(82.88,12.55)" d="M5,0A5,5 0 1,1 0,-5A5,5 0 0,1 5,0Z" style="opacity: 1; stroke-width: 0px; fill: rgb(128, 222, 234); fill-opacity: 1;"/><path class="point" transform="translate(95.53,12.55)" d="M5,0A5,5 0 1,1 0,-5A5,5 0 0,1 5,0Z" style="opacity: 1; stroke-width: 0px; fill: rgb(128, 222, 234); fill-opacity: 1;"/><path class="point" transform="translate(108.19,12.55)" d="M5,0A5,5 0 1,1 0,-5A5,5 0 0,1 5,0Z" style="opacity: 1; stroke-width: 0px; fill: rgb(128, 222, 234); fill-opacity: 1;"/><path class="point" transform="translate(120.84,12.55)" d="M5,0A5,5 0 1,1 0,-5A5,5 0 0,1 5,0Z" style="opacity: 1; stroke-width: 0px; fill: rgb(128, 222, 234); fill-opacity: 1;"/><path class="point" transform="translate(133.5,12.55)" d="M5,0A5,5 0 1,1 0,-5A5,5 0 0,1 5,0Z" style="opacity: 1; stroke-width: 0px; fill: rgb(128, 222, 234); fill-opacity: 1;"/><path class="point" transform="translate(146.16,12.55)" d="M5,0A5,5 0 1,1 0,-5A5,5 0 0,1 5,0Z" style="opacity: 1; stroke-width: 0px; fill: rgb(128, 222, 234); fill-opacity: 1;"/><path class="point" transform="translate(158.81,12.55)" d="M5,0A5,5 0 1,1 0,-5A5,5 0 0,1 5,0Z" style="opacity: 1; stroke-width: 0px; fill: rgb(128, 222, 234); fill-opacity: 1;"/><path class="point" transform="translate(171.47,12.55)" d="M5,0A5,5 0 1,1 0,-5A5,5 0 0,1 5,0Z" style="opacity: 1; stroke-width: 0px; fill: rgb(128, 222, 234); fill-opacity: 1;"/><path class="point" transform="translate(184.12,12.55)" d="M5,0A5,5 0 1,1 0,-5A5,5 0 0,1 5,0Z" style="opacity: 1; stroke-width: 0px; fill: rgb(128, 222, 234); fill-opacity: 1;"/><path class="point" transform="translate(196.78,12.55)" d="M5,0A5,5 0 1,1 0,-5A5,5 0 0,1 5,0Z" style="opacity: 1; stroke-width: 0px; fill: rgb(128, 222, 234); fill-opacity: 1;"/><path class="point" transform="translate(209.43,12.55)" d="M5,0A5,5 0 1,1 0,-5A5,5 0 0,1 5,0Z" style="opacity: 1; stroke-width: 0px; fill: rgb(128, 222, 234); fill-opacity: 1;"/><path class="point" transform="translate(222.09,12.55)" d="M5,0A5,5 0 1,1 0,-5A5,5 0 0,1 5,0Z" style="opacity: 1; stroke-width: 0px; fill: rgb(128, 222, 234); fill-opacity: 1;"/><path class="point" transform="translate(234.74,12.55)" d="M5,0A5,5 0 1,1 0,-5A5,5 0 0,1 5,0Z" style="opacity: 1; stroke-width: 0px; fill: rgb(128, 222, 234); fill-opacity: 1;"/><path class="point" transform="translate(247.4,12.55)" d="M5,0A5,5 0 1,1 0,-5A5,5 0 0,1 5,0Z" style="opacity: 1; stroke-width: 0px; fill: rgb(128, 222, 234); fill-opacity: 1;"/></g><g class="text"/></g><g class="trace scatter trace1793fb" style="stroke-miterlimit: 2; opacity: 1;"><g class="fills"/><g class="errorbars"/><g class="lines"><path class="js-line" d="M19.6,119.7L19.6,12.55" style="vector-effect: non-scaling-stroke; fill: none; stroke: rgb(128, 222, 234); stroke-opacity: 1; stroke-width: 4px; opacity: 1;"/></g><g class="points"/><g class="text"/></g><g class="trace scatter trace86efe9" style="stroke-miterlimit: 2; opacity: 1;"><g class="fills"/><g class="errorbars"/><g class="lines"><path class="js-line" d="M32.26,119.7L32.26,12.55" style="vector-effect: non-scaling-stroke; fill: none; stroke: rgb(128, 222, 234); stroke-opacity: 1; stroke-width: 4px; opacity: 1;"/></g><g class="points"/><g class="text"/></g><g class="trace scatter trace108fd7" style="stroke-miterlimit: 2; opacity: 1;"><g class="fills"/><g class="errorbars"/><g class="lines"><path class="js-line" d="M44.91,119.7L44.91,12.55" style="vector-effect: non-scaling-stroke; fill: none; stroke: rgb(128, 222, 234); stroke-opacity: 1; stroke-width: 4px; opacity: 1;"/></g><g class="points"/><g class="text"/></g><g class="trace scatter trace3c670d" style="stroke-miterlimit: 2; opacity: 1;"><g class="fills"/><g class="errorbars"/><g class="lines"><path class="js-line" d="M57.57,119.7L57.57,12.55" style="vector-effect: non-scaling-stroke; fill: none; stroke: rgb(128, 222, 234); stroke-opacity: 1; stroke-width: 4px; opacity: 1;"/></g><g class="points"/><g class="text"/></g><g class="trace scatter trace3198e4" style="stroke-miterlimit: 2; opacity: 1;"><g class="fills"/><g class="errorbars"/><g class="lines"><path class="js-line" d="M70.22,119.7L70.22,12.55" style="vector-effect: non-scaling-stroke; fill: none; stroke: rgb(128, 222, 234); stroke-opacity: 1; stroke-width: 4px; opacity: 1;"/></g><g class="points"/><g class="text"/></g><g class="trace scatter tracef757c5" style="stroke-miterlimit: 2; opacity: 1;"><g class="fills"/><g class="errorbars"/><g class="lines"><path class="js-line" d="M82.88,119.7L82.88,12.55" style="vector-effect: non-scaling-stroke; fill: none; stroke: rgb(128, 222, 234); stroke-opacity: 1; stroke-width: 4px; opacity: 1;"/></g><g class="points"/><g class="text"/></g><g class="trace scatter trace3bee12" style="stroke-miterlimit: 2; opacity: 1;"><g class="fills"/><g class="errorbars"/><g class="lines"><path class="js-line" d="M95.53,119.7L95.53,12.55" style="vector-effect: non-scaling-stroke; fill: none; stroke: rgb(128, 222, 234); stroke-opacity: 1; stroke-width: 4px; opacity: 1;"/></g><g class="points"/><g class="text"/></g><g class="trace scatter tracedf1b30" style="stroke-miterlimit: 2; opacity: 1;"><g class="fills"/><g class="errorbars"/><g class="lines"><path class="js-line" d="M108.19,119.7L108.19,12.55" style="vector-effect: non-scaling-stroke; fill: none; stroke: rgb(128, 222, 234); stroke-opacity: 1; stroke-width: 4px; opacity: 1;"/></g><g class="points"/><g class="text"/></g><g class="trace scatter tracefae66a" style="stroke-miterlimit: 2; opacity: 1;"><g class="fills"/><g class="errorbars"/><g class="lines"><path class="js-line" d="M120.84,119.7L120.84,12.55" style="vector-effect: non-scaling-stroke; fill: none; stroke: rgb(128, 222, 234); stroke-opacity: 1; stroke-width: 4px; opacity: 1;"/></g><g class="points"/><g class="text"/></g><g class="trace scatter trace2fdd96" style="stroke-miterlimit: 2; opacity: 1;"><g class="fills"/><g class="errorbars"/><g class="lines"><path class="js-line" d="M133.5,119.7L133.5,12.55" style="vector-effect: non-scaling-stroke; fill: none; stroke: rgb(128, 222, 234); stroke-opacity: 1; stroke-width: 4px; opacity: 1;"/></g><g class="points"/><g class="text"/></g><g class="trace scatter trace8918c1" style="stroke-miterlimit: 2; opacity: 1;"><g class="fills"/><g class="errorbars"/><g class="lines"><path class="js-line" d="M146.16,119.7L146.16,12.55" style="vector-effect: non-scaling-stroke; fill: none; stroke: rgb(128, 222, 234); stroke-opacity: 1; stroke-width: 4px; opacity: 1;"/></g><g class="points"/><g class="text"/></g><g class="trace scatter trace674b9f" style="stroke-miterlimit: 2; opacity: 1;"><g class="fills"/><g class="errorbars"/><g class="lines"><path class="js-line" d="M158.81,119.7L158.81,12.55" style="vector-effect: non-scaling-stroke; fill: none; stroke: rgb(128, 222, 234); stroke-opacity: 1; stroke-width: 4px; opacity: 1;"/></g><g class="points"/><g class="text"/></g><g class="trace scatter traceac4c41" style="stroke-miterlimit: 2; opacity: 1;"><g class="fills"/><g class="errorbars"/><g class="lines"><path class="js-line" d="M171.47,119.7L171.47,12.55" style="vector-effect: non-scaling-stroke; fill: none; stroke: rgb(128, 222, 234); stroke-opacity: 1; stroke-width: 4px; opacity: 1;"/></g><g class="points"/><g class="text"/></g><g class="trace scatter trace4d7ea5" style="stroke-miterlimit: 2; opacity: 1;"><g class="fills"/><g class="errorbars"/><g class="lines"><path class="js-line" d="M184.12,119.7L184.12,12.55" style="vector-effect: non-scaling-stroke; fill: none; stroke: rgb(128, 222, 234); stroke-opacity: 1; stroke-width: 4px; opacity: 1;"/></g><g class="points"/><g class="text"/></g><g class="trace scatter traceca8b52" style="stroke-miterlimit: 2; opacity: 1;"><g class="fills"/><g class="errorbars"/><g class="lines"><path class="js-line" d="M196.78,119.7L196.78,12.55" style="vector-effect: non-scaling-stroke; fill: none; stroke: rgb(128, 222, 234); stroke-opacity: 1; stroke-width: 4px; opacity: 1;"/></g><g class="points"/><g class="text"/></g><g class="trace scatter trace1eb1d5" style="stroke-miterlimit: 2; opacity: 1;"><g class="fills"/><g class="errorbars"/><g class="lines"><path class="js-line" d="M209.43,119.7L209.43,12.55" style="vector-effect: non-scaling-stroke; fill: none; stroke: rgb(128, 222, 234); stroke-opacity: 1; stroke-width: 4px; opacity: 1;"/></g><g class="points"/><g class="text"/></g><g class="trace scatter trace416cf5" style="stroke-miterlimit: 2; opacity: 1;"><g class="fills"/><g class="errorbars"/><g class="lines"><path class="js-line" d="M222.09,119.7L222.09,12.55" style="vector-effect: non-scaling-stroke; fill: none; stroke: rgb(128, 222, 234); stroke-opacity: 1; stroke-width: 4px; opacity: 1;"/></g><g class="points"/><g class="text"/></g><g class="trace scatter tracea5e151" style="stroke-miterlimit: 2; opacity: 1;"><g class="fills"/><g class="errorbars"/><g class="lines"><path class="js-line" d="M234.74,119.7L234.74,12.55" style="vector-effect: non-scaling-stroke; fill: none; stroke: rgb(128, 222, 234); stroke-opacity: 1; stroke-width: 4px; opacity: 1;"/></g><g class="points"/><g class="text"/></g><g class="trace scatter tracec6aa08" style="stroke-miterlimit: 2; opacity: 1;"><g class="fills"/><g class="errorbars"/><g class="lines"><path class="js-line" d="M247.4,119.7L247.4,12.55" style="vector-effect: non-scaling-stroke; fill: none; stroke: rgb(128, 222, 234); stroke-opacity: 1; stroke-width: 4px; opacity: 1;"/></g><g class="points"/><g class="text"/></g></g></g><g class="overplot"/><path class="xlines-above crisp" d="M0,0" style="fill: none;"/><path class="ylines-above crisp" d="M0,0" style="fill: none;"/><g class="overlines-above"/><g class="xaxislayer-above"><g class="xtick"><text text-anchor="start" x="0" y="139" transform="translate(37.6,0) rotate(90,0,133)" style="font-family: 'Open Sans', verdana, arial, sans-serif; font-size: 12px; fill: rgb(255, 255, 255); fill-opacity: 1; white-space: pre; opacity: 1;">−9</text></g><g class="xtick"><text text-anchor="start" x="0" y="139" style="font-family: 'Open Sans', verdana, arial, sans-serif; font-size: 12px; fill: rgb(255, 255, 255); fill-opacity: 1; white-space: pre; opacity: 1;" transform="translate(50.26,0) rotate(90,0,133)">−8</text></g><g class="xtick"><text text-anchor="start" x="0" y="139" style="font-family: 'Open Sans', verdana, arial, sans-serif; font-size: 12px; fill: rgb(255, 255, 255); fill-opacity: 1; white-space: pre; opacity: 1;" transform="translate(62.91,0) rotate(90,0,133)">−7</text></g><g class="xtick"><text text-anchor="start" x="0" y="139" style="font-family: 'Open Sans', verdana, arial, sans-serif; font-size: 12px; fill: rgb(255, 255, 255); fill-opacity: 1; white-space: pre; opacity: 1;" transform="translate(75.57,0) rotate(90,0,133)">−6</text></g><g class="xtick"><text text-anchor="start" x="0" y="139" style="font-family: 'Open Sans', verdana, arial, sans-serif; font-size: 12px; fill: rgb(255, 255, 255); fill-opacity: 1; white-space: pre; opacity: 1;" transform="translate(88.22,0) rotate(90,0,133)">−5</text></g><g class="xtick"><text text-anchor="start" x="0" y="139" style="font-family: 'Open Sans', verdana, arial, sans-serif; font-size: 12px; fill: rgb(255, 255, 255); fill-opacity: 1; white-space: pre; opacity: 1;" transform="translate(100.88,0) rotate(90,0,133)">−4</text></g><g class="xtick"><text text-anchor="start" x="0" y="139" style="font-family: 'Open Sans', verdana, arial, sans-serif; font-size: 12px; fill: rgb(255, 255, 255); fill-opacity: 1; white-space: pre; opacity: 1;" transform="translate(113.53,0) rotate(90,0,133)">−3</text></g><g class="xtick"><text text-anchor="start" x="0" y="139" style="font-family: 'Open Sans', verdana, arial, sans-serif; font-size: 12px; fill: rgb(255, 255, 255); fill-opacity: 1; white-space: pre; opacity: 1;" transform="translate(126.19,0) rotate(90,0,133)">−2</text></g><g class="xtick"><text text-anchor="start" x="0" y="139" style="font-family: 'Open Sans', verdana, arial, sans-serif; font-size: 12px; fill: rgb(255, 255, 255); fill-opacity: 1; white-space: pre; opacity: 1;" transform="translate(138.84,0) rotate(90,0,133)">−1</text></g><g class="xtick"><text text-anchor="start" x="0" y="139" style="font-family: 'Open Sans', verdana, arial, sans-serif; font-size: 12px; fill: rgb(255, 255, 255); fill-opacity: 1; white-space: pre; opacity: 1;" transform="translate(151.5,0) rotate(90,0,133)">0</text></g><g class="xtick"><text text-anchor="start" x="0" y="139" style="font-family: 'Open Sans', verdana, arial, sans-serif; font-size: 12px; fill: rgb(255, 255, 255); fill-opacity: 1; white-space: pre; opacity: 1;" transform="translate(164.16,0) rotate(90,0,133)">1</text></g><g class="xtick"><text text-anchor="start" x="0" y="139" style="font-family: 'Open Sans', verdana, arial, sans-serif; font-size: 12px; fill: rgb(255, 255, 255); fill-opacity: 1; white-space: pre; opacity: 1;" transform="translate(176.81,0) rotate(90,0,133)">2</text></g><g class="xtick"><text text-anchor="start" x="0" y="139" style="font-family: 'Open Sans', verdana, arial, sans-serif; font-size: 12px; fill: rgb(255, 255, 255); fill-opacity: 1; white-space: pre; opacity: 1;" transform="translate(189.47,0) rotate(90,0,133)">3</text></g><g class="xtick"><text text-anchor="start" x="0" y="139" style="font-family: 'Open Sans', verdana, arial, sans-serif; font-size: 12px; fill: rgb(255, 255, 255); fill-opacity: 1; white-space: pre; opacity: 1;" transform="translate(202.12,0) rotate(90,0,133)">4</text></g><g class="xtick"><text text-anchor="start" x="0" y="139" style="font-family: 'Open Sans', verdana, arial, sans-serif; font-size: 12px; fill: rgb(255, 255, 255); fill-opacity: 1; white-space: pre; opacity: 1;" transform="translate(214.78,0) rotate(90,0,133)">5</text></g><g class="xtick"><text text-anchor="start" x="0" y="139" style="font-family: 'Open Sans', verdana, arial, sans-serif; font-size: 12px; fill: rgb(255, 255, 255); fill-opacity: 1; white-space: pre; opacity: 1;" transform="translate(227.43,0) rotate(90,0,133)">6</text></g><g class="xtick"><text text-anchor="start" x="0" y="139" style="font-family: 'Open Sans', verdana, arial, sans-serif; font-size: 12px; fill: rgb(255, 255, 255); fill-opacity: 1; white-space: pre; opacity: 1;" transform="translate(240.09,0) rotate(90,0,133)">7</text></g><g class="xtick"><text text-anchor="start" x="0" y="139" style="font-family: 'Open Sans', verdana, arial, sans-serif; font-size: 12px; fill: rgb(255, 255, 255); fill-opacity: 1; white-space: pre; opacity: 1;" transform="translate(252.74,0) rotate(90,0,133)">8</text></g><g class="xtick"><text text-anchor="start" x="0" y="139" style="font-family: 'Open Sans', verdana, arial, sans-serif; font-size: 12px; fill: rgb(255, 255, 255); fill-opacity: 1; white-space: pre; opacity: 1;" transform="translate(265.4,0) rotate(90,0,133)">9</text></g></g><g class="yaxislayer-above"><g class="ytick"><text text-anchor="end" x="17" y="4.199999999999999" transform="translate(0,119.7)" style="font-family: 'Open Sans', verdana, arial, sans-serif; font-size: 12px; fill: rgb(255, 255, 255); fill-opacity: 1; white-space: pre; opacity: 1;">0</text></g><g class="ytick"><text text-anchor="end" x="17" y="4.199999999999999" style="font-family: 'Open Sans', verdana, arial, sans-serif; font-size: 12px; fill: rgb(255, 255, 255); fill-opacity: 1; white-space: pre; opacity: 1;" transform="translate(0,98.27)">0.2</text></g><g class="ytick"><text text-anchor="end" x="17" y="4.199999999999999" style="font-family: 'Open Sans', verdana, arial, sans-serif; font-size: 12px; fill: rgb(255, 255, 255); fill-opacity: 1; white-space: pre; opacity: 1;" transform="translate(0,76.84)">0.4</text></g><g class="ytick"><text text-anchor="end" x="17" y="4.199999999999999" style="font-family: 'Open Sans', verdana, arial, sans-serif; font-size: 12px; fill: rgb(255, 255, 255); fill-opacity: 1; white-space: pre; opacity: 1;" transform="translate(0,55.41)">0.6</text></g><g class="ytick"><text text-anchor="end" x="17" y="4.199999999999999" style="font-family: 'Open Sans', verdana, arial, sans-serif; font-size: 12px; fill: rgb(255, 255, 255); fill-opacity: 1; white-space: pre; opacity: 1;" transform="translate(0,33.98)">0.8</text></g><g class="ytick"><text text-anchor="end" x="17" y="4.199999999999999" style="font-family: 'Open Sans', verdana, arial, sans-serif; font-size: 12px; fill: rgb(255, 255, 255); fill-opacity: 1; white-space: pre; opacity: 1;" transform="translate(0,12.55)">1</text></g></g><g class="overaxes-above"/></g></g><g class="polarlayer"/><g class="smithlayer"/><g class="ternarylayer"/><g class="geolayer"/><g class="funnelarealayer"/><g class="pielayer"/><g class="iciclelayer"/><g class="treemaplayer"/><g class="sunburstlayer"/><g class="glimages"/><defs id="topdefs-6425de"><g class="clips"/></defs><g class="layer-above"><g class="imagelayer"/><g class="shapelayer"/></g><g class="infolayer"><g class="g-gtitle"/><g class="g-xtitle"/><g class="g-ytitle"/></g></svg>