<svg class="main-svg" xmlns="http://www.w3.org/2000/svg" xmlns:xlink="http://www.w3.org/1999/xlink" width="500" height="200" style="" viewBox="0 0 500 200"><rect x="0" y="0" width="500" height="200" style="fill: rgb(0, 0, 0); fill-opacity: 0;"/><defs id="defs-8d3167"><g class="clips"><clipPath id="clip8d3167xyplot" class="plotclip"><rect width="475" height="200"/></clipPath><clipPath class="axesclip" id="clip8d3167x"><rect x="25" y="0" width="475" height="200"/></clipPath><clipPath class="axesclip" id="clip8d3167y"><rect x="0" y="0" width="500" height="200"/></clipPath><clipPath class="axesclip" id="clip8d3167xy"><rect x="25" y="0" width="475" height="200"/></clipPath></g><g class="gradients"/><g class="patterns"/></defs><g class="bglayer"><rect class="bg" x="25" y="0" width="475" height="200" style="fill: rgb(0, 0, 0); fill-opacity: 0; stroke-width: 0;"/></g><g class="layer-below"><g class="imagelayer"/><g class="shapelayer"/></g><g class="cartesianlayer"><g class="subplot xy"><g class="layer-subplot"><g class="shapelayer"/><g class="imagelayer"/></g><g class="gridlayer"><g class="x"><path class="xgrid crisp" transform="translate(32.66,0)" d="M0,0v200" style="stroke: rgb(235, 240, 248); stroke-opacity: 1; stroke-width: 1px;"/><path class="xgrid crisp" transform="translate(58.2,0)" d="M0,0v200" style="stroke: rgb(235, 240, 248); stroke-opacity: 1; stroke-width: 1px;"/><path class="xgrid crisp" transform="translate(83.74000000000001,0)" d="M0,0v200" style="stroke: rgb(235, 240, 248); stroke-opacity: 1; stroke-width: 1px;"/><path class="xgrid crisp" transform="translate(109.27,0)" d="M0,0v200" style="stroke: rgb(235, 240, 248); stroke-opacity: 1; stroke-width: 1px;"/><path class="xgrid crisp" transform="translate(134.81,0)" d="M0,0v200" style="stroke: rgb(235, 240, 248); stroke-opacity: 1; stroke-width: 1px;"/><path class="xgrid crisp" transform="translate(160.35,0)" d="M0,0v200" style="stroke: rgb(235, 240, 248); stroke-opacity: 1; stroke-width: 1px;"/><path class="xgrid crisp" transform="translate(185.89,0)" d="M0,0v200" style="stroke: rgb(235, 240, 248); stroke-opacity: 1; stroke-width: 1px;"/><path class="xgrid crisp" transform="translate(211.42,0)" d="M0,0v200" style="stroke: rgb(235, 240, 248); stroke-opacity: 1; stroke-width: 1px;"/><path class="xgrid crisp" transform="translate(236.96,0)" d="M0,0v200" style="stroke: rgb(235, 240, 248); stroke-opacity: 1; stroke-width: 1px;"/><path class="xgrid crisp" transform="translate(262.5,0)" d="M0,0v200" style="stroke: rgb(235, 240, 248); stroke-opacity: 1; stroke-width: 1px;"/><path class="xgrid crisp" transform="translate(288.04,0)" d="M0,0v200" style="stroke: rgb(235, 240, 248); stroke-opacity: 1; stroke-width: 1px;"/><path class="xgrid crisp" transform="translate(313.58,0)" d="M0,0v200" style="stroke: rgb(235, 240, 248); stroke-opacity: 1; stroke-width: 1px;"/><path class="xgrid crisp" transform="translate(339.11,0)" d="M0,0v200" style="stroke: rgb(235, 240, 248); stroke-opacity: 1; stroke-width: 1px;"/><path class="xgrid crisp" transform="translate(364.65,0)" d="M0,0v200" style="stroke: rgb(235, 240, 248); stroke-opacity: 1; stroke-width: 1px;"/><path class="xgrid crisp" transform="translate(390.19,0)" d="M0,0v200" style="stroke: rgb(235, 240, 248); stroke-opacity: 1; stroke-width: 1px;"/><path class="xgrid crisp" transform="translate(415.73,0)" d="M0,0v200" style="stroke: rgb(235, 240, 248); stroke-opacity: 1; stroke-width: 1px;"/><path class="xgrid crisp" transform="translate(441.26,0)" d="M0,0v200" style="stroke: rgb(235, 240, 248); stroke-opacity: 1; stroke-width: 1px;"/><path class="xgrid crisp" transform="translate(466.8,0)" d="M0,0v200" style="stroke: rgb(235, 240, 248); stroke-opacity: 1; stroke-width: 1px;"/><path class="xgrid crisp" transform="translate(492.34,0)" d="M0,0v200" style="stroke: rgb(235, 240, 248); stroke-opacity: 1; stroke-width: 1px;"/></g><g class="y"><path class="ygrid crisp" transform="translate(0,150.25)" d="M25,0h475" style="stroke: rgb(190, 190, 190); stroke-opacity: 1; stroke-width: 1px;"/><path class="ygrid crisp" transform="translate(0,116.75)" d="M25,0h475" style="stroke: rgb(190, 190, 190); stroke-opacity: 1; stroke-width: 1px;"/><path class="ygrid crisp" transform="translate(0,83.25)" d="M25,0h475" style="stroke: rgb(190, 190, 190); stroke-opacity: 1; stroke-width: 1px;"/><path class="ygrid crisp" transform="translate(0,49.75)" d="M25,0h475" style="stroke: rgb(190, 190, 190); stroke-opacity: 1; stroke-width: 1px;"/><path class="ygrid crisp" transform="translate(0,16.25)" d="M25,0h475" style="stroke: rgb(190, 190, 190); stroke-opacity: 1; stroke-width: 1px;"/></g></g><g class="zerolinelayer"><path class="yzl zl crisp" transform="translate(0,183.75)" d="M25,0h475" style="stroke: rgb(235, 240, 248); stroke-opacity: 1; stroke-width: 2px;"/></g><path class="xlines-below"/><path class="ylines-below"/><g class="overlines-below"/><g class="xaxislayer-below"/><g class="yaxislayer-below"/><g class="overaxes-below"/><g class="plot" transform="translate(25,0)" clip-path="url(#clip8d3167xyplot)"><g class="scatterlayer mlayer"><g class="trace scatter tracef7a8a3" style="stroke-miterlimit: 2; opacity: 1;"><g class="fills"/><g class="errorbars"/><g class="lines"/><g class="points"><path class="point" transform="translate(7.66,183.75)" d="M5,0A5,5 0 1,1 0,-5A5,5 0 0,1 5,0Z" style="opacity: 1; stroke-width: 0px; fill: rgb(128, 222, 234); fill-opacity: 1;"/><path class="point" transform="translate(33.2,154.66)" d="M5,0A5,5 0 1,1 0,-5A5,5 0 0,1 5,0Z" style="opacity: 1; stroke-width: 0px; fill: rgb(128, 222, 234); fill-opacity: 1;"/><path class="point" transform="translate(58.74,126.46)" d="M5,0A5,5 0 1,1 0,-5A5,5 0 0,1 5,0Z" style="opacity: 1; stroke-width: 0px; fill: rgb(128, 222, 234); fill-opacity: 1;"/><path class="point" transform="translate(84.27,100)" d="M5,0A5,5 0 1,1 0,-5A5,5 0 0,1 5,0Z" style="opacity: 1; stroke-width: 0px; fill: rgb(128, 222, 234); fill-opacity: 1;"/><path class="point" transform="translate(109.81,76.08)" d="M5,0A5,5 0 1,1 0,-5A5,5 0 0,1 5,0Z" style="opacity: 1; stroke-width: 0px; fill: rgb(128, 222, 234); fill-opacity: 1;"/><path class="point" transform="translate(135.35,55.44)" d="M5,0A5,5 0 1,1 0,-5A5,5 0 0,1 5,0Z" style="opacity: 1; stroke-width: 0px; fill: rgb(128, 222, 234); fill-opacity: 1;"/><path class="point" transform="translate(160.89,38.69)" d="M5,0A5,5 0 1,1 0,-5A5,5 0 0,1 5,0Z" style="opacity: 1; stroke-width: 0px; fill: rgb(128, 222, 234); fill-opacity: 1;"/><path class="point" transform="translate(186.42,26.35)" d="M5,0A5,5 0 1,1 0,-5A5,5 0 0,1 5,0Z" style="opacity: 1; stroke-width: 0px; fill: rgb(128, 222, 234); fill-opacity: 1;"/><path class="point" transform="translate(211.96,18.79)" d="M5,0A5,5 0 1,1 0,-5A5,5 0 0,1 5,0Z" style="opacity: 1; stroke-width: 0px; fill: rgb(128, 222, 234); fill-opacity: 1;"/><path class="point" transform="translate(237.5,16.25)" d="M5,0A5,5 0 1,1 0,-5A5,5 0 0,1 5,0Z" style="opacity: 1; stroke-width: 0px; fill: rgb(128, 222, 234); fill-opacity: 1;"/><path class="point" transform="translate(263.04,18.79)" d="M5,0A5,5 0 1,1 0,-5A5,5 0 0,1 5,0Z" style="opacity: 1; stroke-width: 0px; fill: rgb(128, 222, 234); fill-opacity: 1;"/><path class="point" transform="translate(288.58,26.35)" d="M5,0A5,5 0 1,1 0,-5A5,5 0 0,1 5,0Z" style="opacity: 1; stroke-width: 0px; fill: rgb(128, 222, 234); fill-opacity: 1;"/><path class="point" transform="translate(314.11,38.69)" d="M5,0A5,5 0 1,1 0,-5A5,5 0 0,1 5,0Z" style="opacity: 1; stroke-width: 0px; fill: rgb(128, 222, 234); fill-opacity: 1;"/><path class="point" transform="translate(339.65,55.44)" d="M5,0A5,5 0 1,1 0,-5A5,5 0 0,1 5,0Z" style="opacity: 1; stroke-width: 0px; fill: rgb(128, 222, 234); fill-opacity: 1;"/><path class="point" transform="translate(365.19,76.08)" d="M5,0A5,5 0 1,1 0,-5A5,5 0 0,1 5,0Z" style="opacity: 1; stroke-width: 0px; fill: rgb(128, 222, 234); fill-opacity: 1;"/><path class="point" transform="translate(390.73,100)" d="M5,0A5,5 0 1,1 0,-5A5,5 0 0,1 5,0Z" style="opacity: 1; stroke-width: 0px; fill: rgb(128, 222, 234); fill-opacity: 1;"/><path class="point" transform="translate(416.26,126.46)" d="M5,0A5,5 0 1,1 0,-5A5,5 0 0,1 5,0Z" style="opacity: 1; stroke-width: 0px; fill: rgb(128, 222, 234); fill-opacity: 1;"/><path class="point" transform="translate(441.8,154.66)" d="M5,0A5,5 0 1,1 0,-5A5,5 0 0,1 5,0Z" style="opacity: 1; stroke-width: 0px; fill: rgb(128, 222, 234); fill-opacity: 1;"/><path class="point" transform="translate(467.34,183.75)" d="M5,0A5,5 0 1,1 0,-5A5,5 0 0,1 5,0Z" style="opacity: 1; stroke-width: 0px; fill: rgb(128, 222, 234); fill-opacity: 1;"/></g><g class="text"/></g><g class="trace scatter trace269a27" style="stroke-miterlimit: 2; opacity: 1;"><g class="fills"/><g class="errorbars"/><g class="lines"/><g class="points"/><g class="text"/></g><g class="trace scatter trace8ccf28" style="stroke-miterlimit: 2; opacity: 1;"><g class="fills"/><g class="errorbars"/><g class="lines"><path class="js-line" d="M33.2,183.75L33.2,154.66" style="vector-effect: non-scaling-stroke; fill: none; stroke: rgb(128, 222, 234); stroke-opacity: 1; stroke-width: 4px; opacity: 1;"/></g><g class="points"/><g class="text"/></g><g class="trace scatter trace514f0d" style="stroke-miterlimit: 2; opacity: 1;"><g class="fills"/><g class="errorbars"/><g class="lines"><path class="js-line" d="M58.74,183.75L58.74,126.46" style="vector-effect: non-scaling-stroke; fill: none; stroke: rgb(128, 222, 234); stroke-opacity: 1; stroke-width: 4px; opacity: 1;"/></g><g class="points"/><g class="text"/></g><g class="trace scatter tracecac00c" style="stroke-miterlimit: 2; opacity: 1;"><g class="fills"/><g class="errorbars"/><g class="lines"><path class="js-line" d="M84.27,183.75L84.27,100" style="vector-effect: non-scaling-stroke; fill: none; stroke: rgb(128, 222, 234); stroke-opacity: 1; stroke-width: 4px; opacity: 1;"/></g><g class="points"/><g class="text"/></g><g class="trace scatter trace069573" style="stroke-miterlimit: 2; opacity: 1;"><g class="fills"/><g class="errorbars"/><g class="lines"><path class="js-line" d="M109.81,183.75L109.81,76.08" style="vector-effect: non-scaling-stroke; fill: none; stroke: rgb(128, 222, 234); stroke-opacity: 1; stroke-width: 4px; opacity: 1;"/></g><g class="points"/><g class="text"/></g><g class="trace scatter tracee66b1b" style="stroke-miterlimit: 2; opacity: 1;"><g class="fills"/><g class="errorbars"/><g class="lines"><path class="js-line" d="M135.35,183.75L135.35,55.44" style="vector-effect: non-scaling-stroke; fill: none; stroke: rgb(128, 222, 234); stroke-opacity: 1; stroke-width: 4px; opacity: 1;"/></g><g class="points"/><g class="text"/></g><g class="trace scatter tracef13379" style="stroke-miterlimit: 2; opacity: 1;"><g class="fills"/><g class="errorbars"/><g class="lines"><path class="js-line" d="M160.89,183.75L160.89,38.69" style="vector-effect: non-scaling-stroke; fill: none; stroke: rgb(128, 222, 234); stroke-opacity: 1; stroke-width: 4px; opacity: 1;"/></g><g class="points"/><g class="text"/></g><g class="trace scatter trace9a3bb8" style="stroke-miterlimit: 2; opacity: 1;"><g class="fills"/><g class="errorbars"/><g class="lines"><path class="js-line" d="M186.42,183.75L186.42,26.35" style="vector-effect: non-scaling-stroke; fill: none; stroke: rgb(128, 222, 234); stroke-opacity: 1; stroke-width: 4px; opacity: 1;"/></g><g class="points"/><g class="text"/></g><g class="trace scatter trace82376a" style="stroke-miterlimit: 2; opacity: 1;"><g class="fills"/><g class="errorbars"/><g class="lines"><path class="js-line" d="M211.96,183.75L211.96,18.79" style="vector-effect: non-scaling-stroke; fill: none; stroke: rgb(128, 222, 234); stroke-opacity: 1; stroke-width: 4px; opacity: 1;"/></g><g class="points"/><g class="text"/></g><g class="trace scatter trace8b8de6" style="stroke-miterlimit: 2; opacity: 1;"><g class="fills"/><g class="errorbars"/><g class="lines"><path class="js-line" d="M237.5,183.75L237.5,16.25" style="vector-effect: non-scaling-stroke; fill: none; stroke: rgb(128, 222, 234); stroke-opacity: 1; stroke-width: 4px; opacity: 1;"/></g><g class="points"/><g class="text"/></g><g class="trace scatter trace3cf25e" style="stroke-miterlimit: 2; opacity: 1;"><g class="fills"/><g class="errorbars"/><g class="lines"><path class="js-line" d="M263.04,183.75L263.04,18.79" style="vector-effect: non-scaling-stroke; fill: none; stroke: rgb(128, 222, 234); stroke-opacity: 1; stroke-width: 4px; opacity: 1;"/></g><g class="points"/><g class="text"/></g><g class="trace scatter traceb6c2fb" style="stroke-miterlimit: 2; opacity: 1;"><g class="fills"/><g class="errorbars"/><g class="lines"><path class="js-line" d="M288.58,183.75L288.58,26.35" style="vector-effect: non-scaling-stroke; fill: none; stroke: rgb(128, 222, 234); stroke-opacity: 1; stroke-width: 4px; opacity: 1;"/></g><g class="points"/><g class="text"/></g><g class="trace scatter tracecc0dad" style="stroke-miterlimit: 2; opacity: 1;"><g class="fills"/><g class="errorbars"/><g class="lines"><path class="js-line" d="M314.11,183.75L314.11,38.69" style="vector-effect: non-scaling-stroke; fill: none; stroke: rgb(128, 222, 234); stroke-opacity: 1; stroke-width: 4px; opacity: 1;"/></g><g class="points"/><g class="text"/></g><g class="trace scatter trace3bf841" style="stroke-miterlimit: 2; opacity: 1;"><g class="fills"/><g class="errorbars"/><g class="lines"><path class="js-line" d="M339.65,183.75L339.65,55.44" style="vector-effect: non-scaling-stroke; fill: none; stroke: rgb(128, 222, 234); stroke-opacity: 1; stroke-width: 4px; opacity: 1;"/></g><g class="points"/><g class="text"/></g><g class="trace scatter traced76a28" style="stroke-miterlimit: 2; opacity: 1;"><g class="fills"/><g class="errorbars"/><g class="lines"><path class="js-line" d="M365.19,183.75L365.19,76.08" style="vector-effect: non-scaling-stroke; fill: none; stroke: rgb(128, 222, 234); stroke-opacity: 1; stroke-width: 4px; opacity: 1;"/></g><g class="points"/><g class="text"/></g><g class="trace scatter trace6cae7b" style="stroke-miterlimit: 2; opacity: 1;"><g class="fills"/><g class="errorbars"/><g class="lines"><path class="js-line" d="M390.73,183.75L390.73,100" style="vector-effect: non-scaling-stroke; fill: none; stroke: rgb(128, 222, 234); stroke-opacity: 1; stroke-width: 4px; opacity: 1;"/></g><g class="points"/><g class="text"/></g><g class="trace scatter traced48078" style="stroke-miterlimit: 2; opacity: 1;"><g class="fills"/><g class="errorbars"/><g class="lines"><path class="js-line" d="M416.26,183.75L416.26,126.46" style="vector-effect: non-scaling-stroke; fill: none; stroke: rgb(128, 222, 234); stroke-opacity: 1; stroke-width: 4px; opacity: 1;"/></g><g class="points"/><g class="text"/></g><g class="trace scatter trace34f17a" style="stroke-miterlimit: 2; opacity: 1;"><g class="fills"/><g class="errorbars"/><g class="lines"><path class="js-line" d="M441.8,183.75L441.8,154.66" style="vector-effect: non-scaling-stroke; fill: none; stroke: rgb(128, 222, 234); stroke-opacity: 1; stroke-width: 4px; opacity: 1;"/></g><g class="points"/><g class="text"/></g><g class="trace scatter tracecce214" style="stroke-miterlimit: 2; opacity: 1;"><g class="fills"/><g class="errorbars"/><g class="lines"/><g class="points"/><g class="text"/></g></g></g><g class="overplot"/><path class="xlines-above crisp" d="M0,0" style="fill: none;"/><path class="ylines-above crisp" d="" style="fill: none; stroke-width: 1px; stroke: rgb(0, 0, 0); stroke-opacity: 0;"/><g class="overlines-above"/><g class="xaxislayer-above"/><g class="yaxislayer-above"><path class="ytick ticks crisp" d="M24,0h0" transform="translate(0,183.75)" style="stroke: rgb(190, 190, 190); stroke-opacity: 1; stroke-width: 1px;"/><path class="ytick ticks crisp" d="M24,0h0" transform="translate(0,150.25)" style="stroke: rgb(190, 190, 190); stroke-opacity: 1; stroke-width: 1px;"/><path class="ytick ticks crisp" d="M24,0h0" transform="translate(0,116.75)" style="stroke: rgb(190, 190, 190); stroke-opacity: 1; stroke-width: 1px;"/><path class="ytick ticks crisp" d="M24,0h0" transform="translate(0,83.25)" style="stroke: rgb(190, 190, 190); stroke-opacity: 1; stroke-width: 1px;"/><path class="ytick ticks crisp" d="M24,0h0" transform="translate(0,49.75)" style="stroke: rgb(190, 190, 190); stroke-opacity: 1; stroke-width: 1px;"/><path class="ytick ticks crisp" d="M24,0h0" transform="translate(0,16.25)" style="stroke: rgb(190, 190, 190); stroke-opacity: 1; stroke-width: 1px;"/><g class="ytick"><text text-anchor="end" x="21" y="5.25" transform="translate(0,183.75)" style="font-family: 'Open Sans', verdana, arial, sans-serif; font-size: 15px; fill: rgb(255, 255, 255); fill-opacity: 1; white-space: pre; opacity: 1;">0</text></g><g class="ytick"><text text-anchor="end" x="21" y="5.25" style="font-family: 'Open Sans', verdana, arial, sans-serif; font-size: 15px; fill: rgb(255, 255, 255); fill-opacity: 1; white-space: pre; opacity: 1;" transform="translate(0,150.25)">0.2</text></g><g class="ytick"><text text-anchor="end" x="21" y="5.25" style="font-family: 'Open Sans', verdana, arial, sans-serif; font-size: 15px; fill: rgb(255, 255, 255); fill-opacity: 1; white-space: pre; opacity: 1;" transform="translate(0,116.75)">0.4</text></g><g class="ytick"><text text-anchor="end" x="21" y="5.25" style="font-family: 'Open Sans', verdana, arial, sans-serif; font-size: 15px; fill: rgb(255, 255, 255); fill-opacity: 1; white-space: pre; opacity: 1;" transform="translate(0,83.25)">0.6</text></g><g class="ytick"><text text-anchor="end" x="21" y="5.25" style="font-family: 'Open Sans', verdana, arial, sans-serif; font-size: 15px; fill: rgb(255, 255, 255); fill-opacity: 1; white-space: pre; opacity: 1;" transform="translate(0,49.75)">0.8</text></g><g class="ytick"><text text-anchor="end" x="21" y="5.25" style="font-family: 'Open Sans', verdana, arial, sans-serif; font-size: 15px; fill: rgb(255, 255, 255); fill-opacity: 1; white-space: pre; opacity: 1;" transform="translate(0,16.25)">1</text></g></g><g class="overaxes-above"/></g></g><g class="polarlayer"/><g class="smithlayer"/><g class="ternarylayer"/><g class="geolayer"/><g class="funnelarealayer"/><g class="pielayer"/><g class="iciclelayer"/><g class="treemaplayer"/><g class="sunburstlayer"/><g class="glimages"/><defs id="topdefs-8d3167"><g class="clips"/></defs><g class="layer-above"><g class="imagelayer"/><g class="shapelayer"/></g><g class="infolayer"><g class="g-gtitle"/><g class="g-xtitle"/><g class="g-ytitle"/></g></svg>